G04 EAGLE Gerber RS-274X export*
G75*
%MOMM*%
%FSLAX34Y34*%
%LPD*%
%INTop Solder Mask*%
%IPPOS*%
%AMOC8*
5,1,8,0,0,1.08239X$1,22.5*%
G01*
%ADD10C,7.747000*%
%ADD11P,2.171924X8X202.500000*%
%ADD12R,0.727000X1.327000*%
%ADD13R,2.540000X2.540000*%
%ADD14C,2.540000*%
%ADD15R,1.427000X1.627000*%
%ADD16R,1.327000X1.527000*%
%ADD17R,0.927000X1.027000*%
%ADD18R,1.627000X1.627000*%
%ADD19C,1.905000*%
%ADD20P,1.761049X8X202.500000*%
%ADD21C,1.627000*%
%ADD22C,1.778000*%
%ADD23R,1.778000X1.778000*%
%ADD24C,0.711200*%
%ADD25C,1.327000*%
%ADD26C,2.057400*%
%ADD27R,2.057400X2.057400*%
%ADD28C,4.445000*%
%ADD29C,2.222500*%
%ADD30C,2.006600*%


D10*
X40640Y944880D03*
X749300Y142240D03*
X40640Y142240D03*
X749300Y944880D03*
X1457960Y142240D03*
X1457960Y944880D03*
D11*
X965200Y533400D03*
X965200Y508000D03*
X939800Y533400D03*
X939800Y508000D03*
X914400Y533400D03*
X914400Y508000D03*
X889000Y533400D03*
X889000Y508000D03*
X863600Y533400D03*
X863600Y508000D03*
X838200Y533400D03*
X838200Y508000D03*
X812800Y533400D03*
X812800Y508000D03*
X787400Y533400D03*
X787400Y508000D03*
X762000Y533400D03*
X762000Y508000D03*
X736600Y533400D03*
X736600Y508000D03*
X711200Y533400D03*
X711200Y508000D03*
X685800Y533400D03*
X685800Y508000D03*
X965200Y584200D03*
X965200Y558800D03*
X939800Y584200D03*
X939800Y558800D03*
X914400Y584200D03*
X914400Y558800D03*
X889000Y584200D03*
X889000Y558800D03*
X863600Y584200D03*
X863600Y558800D03*
X838200Y584200D03*
X838200Y558800D03*
X812800Y584200D03*
X812800Y558800D03*
X787400Y584200D03*
X787400Y558800D03*
X762000Y584200D03*
X762000Y558800D03*
X736600Y584200D03*
X736600Y558800D03*
X711200Y584200D03*
X711200Y558800D03*
X685800Y584200D03*
X685800Y558800D03*
D12*
X234950Y840800D03*
X222250Y840800D03*
X209550Y840800D03*
X196850Y840800D03*
X196850Y784800D03*
X209550Y784800D03*
X222250Y784800D03*
X234950Y784800D03*
D13*
X205480Y1041170D03*
D14*
X170480Y1041170D03*
X135480Y1041170D03*
X100480Y1041170D03*
D13*
X421380Y1041170D03*
D14*
X386380Y1041170D03*
X351380Y1041170D03*
X316380Y1041170D03*
D15*
X266040Y736600D03*
X247040Y736600D03*
X212700Y711200D03*
X193700Y711200D03*
X155600Y901700D03*
X174600Y901700D03*
X371500Y901700D03*
X390500Y901700D03*
X243180Y901700D03*
X224180Y901700D03*
D16*
X213600Y965200D03*
X243600Y965200D03*
D17*
X92100Y891700D03*
X111100Y891700D03*
X101600Y912700D03*
D15*
X111100Y838200D03*
X92100Y838200D03*
X111100Y774700D03*
X92100Y774700D03*
X459080Y901700D03*
X440080Y901700D03*
D16*
X429500Y965200D03*
X459500Y965200D03*
D17*
X308000Y891700D03*
X327000Y891700D03*
X317500Y912700D03*
D15*
X327000Y838200D03*
X308000Y838200D03*
X327000Y774700D03*
X308000Y774700D03*
D12*
X666750Y840800D03*
X654050Y840800D03*
X641350Y840800D03*
X628650Y840800D03*
X628650Y784800D03*
X641350Y784800D03*
X654050Y784800D03*
X666750Y784800D03*
D13*
X637280Y1041170D03*
D14*
X602280Y1041170D03*
X567280Y1041170D03*
X532280Y1041170D03*
D13*
X929380Y1041170D03*
D14*
X894380Y1041170D03*
X859380Y1041170D03*
X824380Y1041170D03*
D15*
X697840Y736600D03*
X678840Y736600D03*
X644500Y711200D03*
X625500Y711200D03*
X587400Y901700D03*
X606400Y901700D03*
X879500Y901700D03*
X898500Y901700D03*
X674980Y901700D03*
X655980Y901700D03*
D16*
X645400Y965200D03*
X675400Y965200D03*
D17*
X523900Y891700D03*
X542900Y891700D03*
X533400Y912700D03*
D15*
X542900Y838200D03*
X523900Y838200D03*
X542900Y774700D03*
X523900Y774700D03*
X967080Y901700D03*
X948080Y901700D03*
D16*
X937500Y965200D03*
X967500Y965200D03*
D17*
X816000Y891700D03*
X835000Y891700D03*
X825500Y912700D03*
D15*
X835000Y838200D03*
X816000Y838200D03*
X835000Y774700D03*
X816000Y774700D03*
D12*
X1174750Y840800D03*
X1162050Y840800D03*
X1149350Y840800D03*
X1136650Y840800D03*
X1136650Y784800D03*
X1149350Y784800D03*
X1162050Y784800D03*
X1174750Y784800D03*
D13*
X1145280Y1041170D03*
D14*
X1110280Y1041170D03*
X1075280Y1041170D03*
X1040280Y1041170D03*
D13*
X1361180Y1041170D03*
D14*
X1326180Y1041170D03*
X1291180Y1041170D03*
X1256180Y1041170D03*
D15*
X1205840Y736600D03*
X1186840Y736600D03*
X1152500Y711200D03*
X1133500Y711200D03*
X1095400Y901700D03*
X1114400Y901700D03*
X1311300Y901700D03*
X1330300Y901700D03*
X1182980Y901700D03*
X1163980Y901700D03*
D16*
X1153400Y965200D03*
X1183400Y965200D03*
D17*
X1031900Y891700D03*
X1050900Y891700D03*
X1041400Y912700D03*
D15*
X1050900Y838200D03*
X1031900Y838200D03*
X1050900Y774700D03*
X1031900Y774700D03*
X1398880Y901700D03*
X1379880Y901700D03*
D16*
X1369300Y965200D03*
X1399300Y965200D03*
D17*
X1247800Y891700D03*
X1266800Y891700D03*
X1257300Y912700D03*
D15*
X1266800Y838200D03*
X1247800Y838200D03*
X1266800Y774700D03*
X1247800Y774700D03*
D12*
X1212850Y264100D03*
X1225550Y264100D03*
X1238250Y264100D03*
X1250950Y264100D03*
X1250950Y320100D03*
X1238250Y320100D03*
X1225550Y320100D03*
X1212850Y320100D03*
D13*
X1242320Y51030D03*
D14*
X1277320Y51030D03*
X1312320Y51030D03*
X1347320Y51030D03*
D13*
X1026420Y51030D03*
D14*
X1061420Y51030D03*
X1096420Y51030D03*
X1131420Y51030D03*
D15*
X1181760Y368300D03*
X1200760Y368300D03*
X1235100Y393700D03*
X1254100Y393700D03*
X1292200Y203200D03*
X1273200Y203200D03*
X1076300Y203200D03*
X1057300Y203200D03*
X1204620Y203200D03*
X1223620Y203200D03*
D16*
X1234200Y139700D03*
X1204200Y139700D03*
D17*
X1355700Y213200D03*
X1336700Y213200D03*
X1346200Y192200D03*
D15*
X1336700Y266700D03*
X1355700Y266700D03*
X1336700Y330200D03*
X1355700Y330200D03*
X988720Y203200D03*
X1007720Y203200D03*
D16*
X1018300Y139700D03*
X988300Y139700D03*
D17*
X1139800Y213200D03*
X1120800Y213200D03*
X1130300Y192200D03*
D15*
X1120800Y266700D03*
X1139800Y266700D03*
X1120800Y330200D03*
X1139800Y330200D03*
D18*
X673100Y76200D03*
X596900Y406400D03*
X520700Y101600D03*
D19*
X520700Y76200D03*
D20*
X520700Y127000D03*
D21*
X622300Y406400D03*
X647700Y406400D03*
X571500Y406400D03*
X546100Y406400D03*
X520700Y406400D03*
X673100Y406400D03*
X673100Y101600D03*
X673100Y127000D03*
X673100Y152400D03*
X673100Y177800D03*
X673100Y203200D03*
X673100Y228600D03*
X673100Y254000D03*
X673100Y279400D03*
X673100Y304800D03*
X673100Y330200D03*
X673100Y355600D03*
X673100Y381000D03*
X546100Y101600D03*
X520700Y381000D03*
X520700Y355600D03*
X520700Y330200D03*
X520700Y304800D03*
X520700Y279400D03*
X520700Y254000D03*
X520700Y228600D03*
X520700Y203200D03*
X520700Y177800D03*
X520700Y152400D03*
X544830Y368300D03*
X570865Y368300D03*
X596900Y368300D03*
X622935Y368300D03*
X648970Y368300D03*
X544830Y323850D03*
X570865Y323850D03*
X596900Y323850D03*
X622935Y323850D03*
X648970Y323850D03*
X587900Y76200D03*
X605900Y83800D03*
D16*
X226300Y279400D03*
X256300Y279400D03*
X61200Y50800D03*
X91200Y50800D03*
D15*
X130200Y279400D03*
X149200Y279400D03*
X-9500Y76200D03*
X9500Y76200D03*
D22*
X89100Y469900D03*
D23*
X114100Y469900D03*
D24*
X190700Y469900D03*
X215700Y469900D03*
D25*
X165100Y330200D03*
X190500Y330200D03*
X215900Y330200D03*
D26*
X25800Y330200D03*
D27*
X75800Y330200D03*
D28*
X152400Y111600D03*
X152400Y51600D03*
X199400Y81600D03*
D29*
X800100Y61278D02*
X800100Y40323D01*
X850900Y40323D02*
X850900Y61278D01*
X901700Y61278D02*
X901700Y40323D01*
X279400Y65723D02*
X279400Y86678D01*
X330200Y86678D02*
X330200Y65723D01*
X431800Y65723D02*
X431800Y86678D01*
X381000Y86678D02*
X381000Y65723D01*
D30*
X825500Y279400D03*
X825500Y254000D03*
X825500Y228600D03*
X825500Y203200D03*
X736600Y469900D03*
X685800Y469900D03*
X787400Y469900D03*
M02*
