M48
;GenerationSoftware,Autodesk,EAGLE,9.6.2*%
;CreationDate,2021-11-10T00:49:12Z*%
FMAT,2
ICI,OFF
METRIC,TZ,000.000
T10C0.350
T9C0.700
T8C0.800
T7C0.900
T6C1.000
T5C1.016
T4C1.200
T3C1.397
T2C2.997
T1C3.969
%
G90
M71
T1
X74930Y94488
X4064Y94488
X74930Y14224
X4064Y14224
X145796Y14224
X145796Y94488
T2
X19940Y8160
X15240Y5160
X15240Y11160
T3
X43180Y7620
X85090Y5080
X80010Y5080
X38100Y7620
X33020Y7620
X27940Y7620
X90170Y5080
T4
X35138Y104117
X38638Y104117
X42138Y104117
X82438Y104117
X13548Y104117
X17048Y104117
X20548Y104117
X10048Y104117
X125618Y104117
X106142Y5103
X113142Y5103
X109642Y5103
X102642Y5103
X134732Y5103
X131232Y5103
X127732Y5103
X124232Y5103
X129118Y104117
X132618Y104117
X136118Y104117
X104028Y104117
X107528Y104117
X111028Y104117
X114528Y104117
X85938Y104117
X89438Y104117
X92938Y104117
X53228Y104117
X56728Y104117
X60228Y104117
X63728Y104117
X31638Y104117
T5
X76200Y58420
X76200Y55880
X73660Y58420
X73660Y55880
X68580Y46990
X73660Y46990
X82550Y20320
X82550Y22860
X82550Y25400
X71120Y55880
X71120Y58420
X76200Y50800
X78740Y55880
X78740Y46990
X82550Y27940
X68580Y55880
X96520Y53340
X96520Y50800
X93980Y53340
X93980Y50800
X91440Y53340
X91440Y50800
X88900Y53340
X88900Y50800
X86360Y53340
X86360Y50800
X83820Y53340
X83820Y50800
X81280Y53340
X81280Y50800
X78740Y53340
X78740Y50800
X76200Y53340
X68580Y58420
X73660Y53340
X73660Y50800
X71120Y53340
X71120Y50800
X68580Y53340
X68580Y50800
X96520Y58420
X96520Y55880
X93980Y58420
X93980Y55880
X91440Y58420
X91440Y55880
X88900Y58420
X88900Y55880
X86360Y58420
X86360Y55880
X83820Y58420
X83820Y55880
X81280Y58420
X81280Y55880
X78740Y58420
T6
X59690Y32385
X62293Y32385
X64897Y32385
X60590Y8380
X58790Y7620
X67310Y25400
X67310Y7620
X59690Y40640
X52070Y10160
X52070Y7620
X52070Y12700
X62230Y40640
X64770Y40640
X57150Y40640
X54610Y40640
X52070Y40640
X67310Y40640
X67310Y10160
X67310Y12700
X67310Y15240
X67310Y17780
X67310Y20320
X67310Y22860
X67310Y27940
X67310Y30480
X67310Y33020
X67310Y35560
X67310Y38100
X54610Y10160
X52070Y38100
X52070Y35560
X52070Y33020
X52070Y30480
X52070Y27940
X52070Y25400
X52070Y22860
X52070Y20320
X52070Y17780
X52070Y15240
X54483Y36830
X57086Y36830
X59690Y36830
X62293Y36830
X64897Y36830
X54483Y32385
X57086Y32385
T7
X2580Y33020
X7580Y33020
T8
X16510Y33020
X19050Y33020
X21590Y33020
T9
X8910Y46990
X11410Y46990
X21570Y46990
X19070Y46990
T10
X59690Y64770
X67310Y67310
X63500Y63500
X107950Y22860
X120142Y24892
X118110Y23622
X130810Y87630
X120650Y86868
X87630Y87630
X69850Y86868
X121920Y35560
X125730Y36830
X116840Y74930
X113030Y74930
X66040Y74930
X62230Y74930
X22860Y74930
X26670Y86868
X139700Y11430
X48514Y98552
X6350Y99568
X11430Y30480
X104140Y64770
X104140Y58420
X19050Y73660
X80010Y40640
X87630Y38100
X77470Y38100
X16510Y62230
X21590Y57150
X36830Y87630
X33020Y54610
X90170Y40640
X3810Y101600
X144780Y6350
X40386Y99314
X25908Y98298
X20320Y93980
X34290Y55880
X40640Y49530
X62230Y67310
X124460Y22098
X124460Y16510
X118872Y12192
X104394Y11176
X118618Y85598
X114300Y88392
X114300Y93980
X119888Y98298
X134366Y99314
X67818Y85598
X63500Y88392
X63500Y93980
X69088Y98298
X91186Y99314
X24638Y85598
X20320Y88392
X39370Y48260
M30