G04 EAGLE Gerber RS-274X export*
G75*
%MOMM*%
%FSLAX34Y34*%
%LPD*%
%INBottom Copper Layer*%
%IPPOS*%
%AMOC8*
5,1,8,0,0,1.08239X$1,22.5*%
G01*
%ADD10C,7.620000*%
%ADD11P,2.034460X8X202.500000*%
%ADD12R,2.413000X2.413000*%
%ADD13C,2.413000*%
%ADD14R,1.500000X1.500000*%
%ADD15C,1.778000*%
%ADD16P,1.623585X8X202.500000*%
%ADD17C,1.500000*%
%ADD18C,1.651000*%
%ADD19R,1.651000X1.651000*%
%ADD20C,1.200000*%
%ADD21C,1.930400*%
%ADD22R,1.930400X1.930400*%
%ADD23C,4.318000*%
%ADD24C,2.095500*%
%ADD25C,1.879600*%
%ADD26C,1.270000*%
%ADD27C,0.604000*%
%ADD28C,0.406400*%
%ADD29C,0.812800*%
%ADD30C,0.609600*%

G36*
X-71067Y20234D02*
X-71067Y20234D01*
X-71041Y20233D01*
X-70057Y20263D01*
X-69980Y20243D01*
X-69967Y20242D01*
X-69961Y20241D01*
X-69947Y20241D01*
X-69820Y20233D01*
X1553188Y20233D01*
X1553207Y20235D01*
X1553261Y20235D01*
X1559238Y20579D01*
X1559264Y20584D01*
X1559290Y20584D01*
X1559449Y20610D01*
X1571101Y23285D01*
X1571160Y23306D01*
X1571220Y23319D01*
X1571369Y23379D01*
X1582135Y28578D01*
X1582187Y28612D01*
X1582244Y28637D01*
X1582376Y28729D01*
X1591717Y36192D01*
X1591760Y36236D01*
X1591809Y36273D01*
X1591917Y36393D01*
X1599366Y45744D01*
X1599398Y45797D01*
X1599438Y45845D01*
X1599517Y45985D01*
X1604700Y56759D01*
X1604719Y56817D01*
X1604748Y56872D01*
X1604793Y57027D01*
X1607452Y68683D01*
X1607454Y68709D01*
X1607462Y68734D01*
X1607482Y68894D01*
X1607817Y74872D01*
X1607816Y74891D01*
X1607819Y74943D01*
X1607819Y1037911D01*
X1607817Y1037931D01*
X1607813Y1038035D01*
X1607418Y1042079D01*
X1607408Y1042122D01*
X1607406Y1042166D01*
X1607369Y1042323D01*
X1605000Y1050148D01*
X1604965Y1050227D01*
X1604940Y1050309D01*
X1604875Y1050429D01*
X1604871Y1050439D01*
X1604868Y1050442D01*
X1604863Y1050451D01*
X1600548Y1057395D01*
X1600494Y1057461D01*
X1600448Y1057534D01*
X1600354Y1057633D01*
X1600347Y1057642D01*
X1600344Y1057645D01*
X1600337Y1057651D01*
X1594370Y1063241D01*
X1594307Y1063286D01*
X1594279Y1063313D01*
X1594273Y1063316D01*
X1594238Y1063349D01*
X1594122Y1063421D01*
X1594113Y1063427D01*
X1594109Y1063429D01*
X1594101Y1063434D01*
X1586889Y1067286D01*
X1586809Y1067317D01*
X1586733Y1067357D01*
X1586602Y1067396D01*
X1586592Y1067400D01*
X1586588Y1067400D01*
X1586579Y1067403D01*
X1578616Y1069256D01*
X1578572Y1069261D01*
X1578529Y1069273D01*
X1578369Y1069288D01*
X1574385Y1069416D01*
X1574373Y1069415D01*
X1574344Y1069417D01*
X1574127Y1069417D01*
X1574114Y1069415D01*
X1574084Y1069416D01*
X1573117Y1069384D01*
X1573029Y1069407D01*
X1573012Y1069408D01*
X1573005Y1069409D01*
X1572989Y1069409D01*
X1572868Y1069417D01*
X-61496Y1069417D01*
X-61515Y1069414D01*
X-61569Y1069415D01*
X-66772Y1069115D01*
X-66798Y1069110D01*
X-66825Y1069111D01*
X-66983Y1069085D01*
X-77128Y1066757D01*
X-77186Y1066735D01*
X-77246Y1066723D01*
X-77396Y1066662D01*
X-86768Y1062137D01*
X-86820Y1062103D01*
X-86877Y1062078D01*
X-87009Y1061986D01*
X-95141Y1055489D01*
X-95184Y1055445D01*
X-95233Y1055408D01*
X-95341Y1055288D01*
X-101825Y1047147D01*
X-101858Y1047094D01*
X-101897Y1047047D01*
X-101976Y1046906D01*
X-106488Y1037527D01*
X-106508Y1037468D01*
X-106536Y1037413D01*
X-106582Y1037259D01*
X-108896Y1027111D01*
X-108898Y1027085D01*
X-108906Y1027060D01*
X-108925Y1026900D01*
X-109217Y1021696D01*
X-109216Y1021677D01*
X-109219Y1021625D01*
X-109219Y1021580D01*
X-109219Y1020362D01*
X-109219Y56169D01*
X-109217Y56148D01*
X-109214Y56050D01*
X-108778Y51420D01*
X-108768Y51376D01*
X-108766Y51332D01*
X-108730Y51175D01*
X-106057Y42231D01*
X-106022Y42153D01*
X-105997Y42071D01*
X-105933Y41950D01*
X-105928Y41940D01*
X-105925Y41937D01*
X-105921Y41929D01*
X-101022Y33982D01*
X-100968Y33915D01*
X-100923Y33843D01*
X-100830Y33743D01*
X-100823Y33735D01*
X-100819Y33732D01*
X-100813Y33725D01*
X-94022Y27319D01*
X-93953Y27269D01*
X-93890Y27210D01*
X-93774Y27138D01*
X-93765Y27132D01*
X-93761Y27130D01*
X-93753Y27125D01*
X-85535Y22697D01*
X-85455Y22666D01*
X-85379Y22626D01*
X-85249Y22586D01*
X-85239Y22582D01*
X-85234Y22582D01*
X-85225Y22579D01*
X-76141Y20431D01*
X-76097Y20426D01*
X-76054Y20414D01*
X-75894Y20398D01*
X-71299Y20234D01*
X-71286Y20235D01*
X-71254Y20233D01*
X-71079Y20233D01*
X-71067Y20234D01*
G37*
%LPC*%
G36*
X1013303Y36424D02*
X1013303Y36424D01*
X1011814Y37913D01*
X1011814Y58643D01*
X1011802Y58741D01*
X1011799Y58840D01*
X1011782Y58899D01*
X1011774Y58959D01*
X1011738Y59051D01*
X1011710Y59146D01*
X1011680Y59198D01*
X1011657Y59254D01*
X1011599Y59334D01*
X1011549Y59420D01*
X1011483Y59495D01*
X1011471Y59512D01*
X1011461Y59520D01*
X1011443Y59541D01*
X987028Y83956D01*
X986949Y84016D01*
X986877Y84084D01*
X986824Y84113D01*
X986776Y84150D01*
X986685Y84190D01*
X986599Y84238D01*
X986540Y84253D01*
X986485Y84277D01*
X986387Y84292D01*
X986291Y84317D01*
X986191Y84323D01*
X986170Y84327D01*
X986158Y84325D01*
X986130Y84327D01*
X874406Y84327D01*
X770127Y188606D01*
X770127Y243194D01*
X785506Y258573D01*
X813624Y258573D01*
X813653Y258576D01*
X813682Y258574D01*
X813810Y258596D01*
X813939Y258613D01*
X813967Y258623D01*
X813996Y258628D01*
X814114Y258682D01*
X814235Y258730D01*
X814259Y258747D01*
X814286Y258759D01*
X814387Y258840D01*
X814492Y258916D01*
X814511Y258939D01*
X814534Y258958D01*
X814612Y259061D01*
X814695Y259161D01*
X814708Y259188D01*
X814725Y259212D01*
X814796Y259356D01*
X815379Y260763D01*
X818737Y264121D01*
X822219Y265563D01*
X822245Y265578D01*
X822274Y265587D01*
X822383Y265657D01*
X822496Y265721D01*
X822517Y265742D01*
X822542Y265758D01*
X822631Y265852D01*
X822724Y265942D01*
X822740Y265968D01*
X822760Y265990D01*
X822822Y266103D01*
X822890Y266213D01*
X822899Y266242D01*
X822913Y266268D01*
X822946Y266394D01*
X822984Y266517D01*
X822985Y266547D01*
X822993Y266576D01*
X822993Y266706D01*
X822999Y266835D01*
X822993Y266864D01*
X822993Y266894D01*
X822961Y267020D01*
X822935Y267146D01*
X822921Y267173D01*
X822914Y267202D01*
X822852Y267316D01*
X822795Y267432D01*
X822776Y267455D01*
X822761Y267481D01*
X822673Y267575D01*
X822589Y267674D01*
X822564Y267691D01*
X822544Y267713D01*
X822435Y267783D01*
X822329Y267857D01*
X822301Y267868D01*
X822275Y267884D01*
X822126Y267943D01*
X820917Y268336D01*
X819243Y269189D01*
X817722Y270294D01*
X816394Y271622D01*
X815289Y273143D01*
X814436Y274817D01*
X813855Y276604D01*
X813815Y276861D01*
X824230Y276861D01*
X824348Y276876D01*
X824467Y276883D01*
X824505Y276896D01*
X824545Y276901D01*
X824656Y276944D01*
X824769Y276981D01*
X824803Y277003D01*
X824841Y277018D01*
X824937Y277088D01*
X825038Y277151D01*
X825066Y277181D01*
X825098Y277204D01*
X825174Y277296D01*
X825256Y277383D01*
X825275Y277418D01*
X825301Y277449D01*
X825352Y277557D01*
X825409Y277661D01*
X825420Y277701D01*
X825437Y277737D01*
X825459Y277854D01*
X825489Y277969D01*
X825493Y278030D01*
X825497Y278050D01*
X825495Y278070D01*
X825499Y278130D01*
X825499Y279401D01*
X825501Y279401D01*
X825501Y278130D01*
X825516Y278012D01*
X825523Y277893D01*
X825536Y277855D01*
X825541Y277814D01*
X825585Y277704D01*
X825621Y277591D01*
X825643Y277556D01*
X825658Y277519D01*
X825728Y277423D01*
X825791Y277322D01*
X825821Y277294D01*
X825845Y277261D01*
X825936Y277186D01*
X826023Y277104D01*
X826058Y277084D01*
X826090Y277059D01*
X826197Y277008D01*
X826302Y276950D01*
X826341Y276940D01*
X826377Y276923D01*
X826494Y276901D01*
X826609Y276871D01*
X826670Y276867D01*
X826690Y276863D01*
X826710Y276865D01*
X826770Y276861D01*
X837185Y276861D01*
X837145Y276604D01*
X836564Y274817D01*
X835711Y273143D01*
X834606Y271622D01*
X833278Y270294D01*
X831757Y269189D01*
X830083Y268336D01*
X828874Y267943D01*
X828847Y267931D01*
X828818Y267924D01*
X828703Y267863D01*
X828586Y267808D01*
X828563Y267789D01*
X828537Y267775D01*
X828441Y267688D01*
X828341Y267605D01*
X828324Y267581D01*
X828302Y267561D01*
X828231Y267453D01*
X828154Y267348D01*
X828143Y267320D01*
X828127Y267295D01*
X828085Y267173D01*
X828037Y267052D01*
X828033Y267023D01*
X828024Y266994D01*
X828013Y266865D01*
X827997Y266737D01*
X828001Y266707D01*
X827999Y266677D01*
X828021Y266550D01*
X828037Y266421D01*
X828048Y266393D01*
X828053Y266364D01*
X828106Y266246D01*
X828154Y266125D01*
X828171Y266101D01*
X828184Y266074D01*
X828264Y265973D01*
X828340Y265868D01*
X828363Y265849D01*
X828382Y265826D01*
X828486Y265748D01*
X828585Y265665D01*
X828612Y265652D01*
X828636Y265634D01*
X828781Y265563D01*
X832263Y264121D01*
X835621Y260763D01*
X837439Y256375D01*
X837439Y251625D01*
X835621Y247237D01*
X832263Y243879D01*
X828868Y242473D01*
X828747Y242404D01*
X828624Y242339D01*
X828609Y242325D01*
X828592Y242315D01*
X828492Y242218D01*
X828389Y242125D01*
X828378Y242108D01*
X828363Y242094D01*
X828291Y241976D01*
X828214Y241859D01*
X828208Y241840D01*
X828197Y241823D01*
X828156Y241690D01*
X828111Y241558D01*
X828109Y241538D01*
X828103Y241519D01*
X828097Y241380D01*
X828086Y241241D01*
X828089Y241221D01*
X828088Y241201D01*
X828116Y241065D01*
X828140Y240928D01*
X828148Y240909D01*
X828153Y240890D01*
X828214Y240765D01*
X828271Y240638D01*
X828283Y240622D01*
X828292Y240604D01*
X828383Y240498D01*
X828469Y240390D01*
X828485Y240377D01*
X828499Y240362D01*
X828612Y240282D01*
X828723Y240198D01*
X828749Y240186D01*
X828759Y240179D01*
X828778Y240172D01*
X828868Y240127D01*
X832263Y238721D01*
X835621Y235363D01*
X837439Y230975D01*
X837439Y226225D01*
X835621Y221837D01*
X832263Y218479D01*
X828868Y217073D01*
X828747Y217004D01*
X828624Y216939D01*
X828609Y216925D01*
X828592Y216915D01*
X828492Y216818D01*
X828389Y216725D01*
X828378Y216708D01*
X828363Y216694D01*
X828291Y216576D01*
X828214Y216459D01*
X828208Y216440D01*
X828197Y216423D01*
X828156Y216290D01*
X828111Y216158D01*
X828109Y216138D01*
X828103Y216119D01*
X828097Y215980D01*
X828086Y215841D01*
X828089Y215821D01*
X828088Y215801D01*
X828116Y215665D01*
X828140Y215528D01*
X828148Y215509D01*
X828153Y215490D01*
X828214Y215365D01*
X828271Y215238D01*
X828283Y215222D01*
X828292Y215204D01*
X828383Y215098D01*
X828469Y214990D01*
X828485Y214977D01*
X828499Y214962D01*
X828612Y214882D01*
X828723Y214798D01*
X828749Y214786D01*
X828759Y214779D01*
X828778Y214772D01*
X828868Y214727D01*
X832263Y213321D01*
X835621Y209963D01*
X836204Y208556D01*
X836218Y208531D01*
X836227Y208503D01*
X836297Y208393D01*
X836361Y208280D01*
X836382Y208259D01*
X836398Y208234D01*
X836492Y208145D01*
X836583Y208052D01*
X836608Y208036D01*
X836629Y208016D01*
X836743Y207953D01*
X836854Y207885D01*
X836882Y207877D01*
X836908Y207862D01*
X837034Y207830D01*
X837158Y207792D01*
X837187Y207790D01*
X837216Y207783D01*
X837376Y207773D01*
X899280Y207773D01*
X899378Y207785D01*
X899477Y207788D01*
X899536Y207805D01*
X899596Y207813D01*
X899688Y207849D01*
X899783Y207877D01*
X899835Y207907D01*
X899891Y207930D01*
X899971Y207988D01*
X900057Y208038D01*
X900132Y208104D01*
X900149Y208116D01*
X900157Y208126D01*
X900178Y208144D01*
X909456Y217422D01*
X909516Y217501D01*
X909584Y217573D01*
X909613Y217626D01*
X909650Y217674D01*
X909690Y217765D01*
X909738Y217851D01*
X909753Y217910D01*
X909777Y217965D01*
X909792Y218063D01*
X909817Y218159D01*
X909823Y218259D01*
X909827Y218280D01*
X909825Y218292D01*
X909827Y218320D01*
X909827Y293994D01*
X925206Y309373D01*
X1165980Y309373D01*
X1166078Y309385D01*
X1166177Y309388D01*
X1166236Y309405D01*
X1166296Y309413D01*
X1166388Y309449D01*
X1166483Y309477D01*
X1166535Y309507D01*
X1166591Y309530D01*
X1166671Y309588D01*
X1166757Y309638D01*
X1166832Y309704D01*
X1166849Y309716D01*
X1166857Y309726D01*
X1166878Y309744D01*
X1213268Y356134D01*
X1213273Y356142D01*
X1213281Y356148D01*
X1213371Y356267D01*
X1213463Y356386D01*
X1213466Y356394D01*
X1213472Y356402D01*
X1213543Y356546D01*
X1214462Y358766D01*
X1216034Y360338D01*
X1218088Y361189D01*
X1241759Y361189D01*
X1241858Y361201D01*
X1241957Y361204D01*
X1242015Y361221D01*
X1242075Y361229D01*
X1242167Y361265D01*
X1242262Y361293D01*
X1242314Y361323D01*
X1242371Y361346D01*
X1242451Y361404D01*
X1242536Y361454D01*
X1242611Y361520D01*
X1242628Y361532D01*
X1242636Y361542D01*
X1242657Y361560D01*
X1252384Y371287D01*
X1254134Y373038D01*
X1256188Y373889D01*
X1292559Y373889D01*
X1292658Y373901D01*
X1292757Y373904D01*
X1292815Y373921D01*
X1292875Y373929D01*
X1292967Y373965D01*
X1293062Y373993D01*
X1293114Y374023D01*
X1293171Y374046D01*
X1293251Y374104D01*
X1293336Y374154D01*
X1293411Y374220D01*
X1293428Y374232D01*
X1293436Y374242D01*
X1293457Y374260D01*
X1378340Y459143D01*
X1378400Y459221D01*
X1378468Y459294D01*
X1378497Y459347D01*
X1378534Y459394D01*
X1378574Y459485D01*
X1378622Y459572D01*
X1378637Y459631D01*
X1378661Y459686D01*
X1378676Y459784D01*
X1378701Y459880D01*
X1378707Y459980D01*
X1378711Y460000D01*
X1378709Y460013D01*
X1378711Y460041D01*
X1378711Y657559D01*
X1378699Y657658D01*
X1378696Y657757D01*
X1378679Y657815D01*
X1378671Y657875D01*
X1378635Y657967D01*
X1378607Y658062D01*
X1378577Y658114D01*
X1378554Y658171D01*
X1378496Y658251D01*
X1378446Y658336D01*
X1378380Y658411D01*
X1378368Y658428D01*
X1378358Y658436D01*
X1378340Y658457D01*
X1293457Y743340D01*
X1293379Y743400D01*
X1293306Y743468D01*
X1293253Y743497D01*
X1293206Y743534D01*
X1293115Y743574D01*
X1293028Y743622D01*
X1292969Y743637D01*
X1292914Y743661D01*
X1292816Y743676D01*
X1292720Y743701D01*
X1292620Y743707D01*
X1292600Y743711D01*
X1292587Y743709D01*
X1292559Y743711D01*
X206041Y743711D01*
X205942Y743699D01*
X205843Y743696D01*
X205785Y743679D01*
X205725Y743671D01*
X205633Y743635D01*
X205538Y743607D01*
X205486Y743577D01*
X205429Y743554D01*
X205349Y743496D01*
X205264Y743446D01*
X205189Y743380D01*
X205172Y743368D01*
X205169Y743364D01*
X205166Y743362D01*
X205161Y743355D01*
X205143Y743340D01*
X193666Y731862D01*
X191612Y731011D01*
X189388Y731011D01*
X187334Y731862D01*
X185762Y733434D01*
X184911Y735488D01*
X184911Y737712D01*
X185762Y739766D01*
X200034Y754038D01*
X202088Y754889D01*
X1296512Y754889D01*
X1298566Y754038D01*
X1389038Y663566D01*
X1389889Y661512D01*
X1389889Y456088D01*
X1389038Y454034D01*
X1298566Y363562D01*
X1296512Y362711D01*
X1260141Y362711D01*
X1260042Y362699D01*
X1259943Y362696D01*
X1259885Y362679D01*
X1259825Y362671D01*
X1259733Y362635D01*
X1259638Y362607D01*
X1259586Y362577D01*
X1259529Y362554D01*
X1259449Y362496D01*
X1259364Y362446D01*
X1259289Y362380D01*
X1259272Y362368D01*
X1259264Y362358D01*
X1259243Y362340D01*
X1249516Y352613D01*
X1247766Y350862D01*
X1245712Y350011D01*
X1220604Y350011D01*
X1220506Y349999D01*
X1220407Y349996D01*
X1220348Y349979D01*
X1220288Y349971D01*
X1220196Y349935D01*
X1220101Y349907D01*
X1220049Y349877D01*
X1219993Y349854D01*
X1219913Y349796D01*
X1219827Y349746D01*
X1219752Y349680D01*
X1219735Y349668D01*
X1219727Y349658D01*
X1219706Y349640D01*
X1170294Y300227D01*
X929520Y300227D01*
X929422Y300215D01*
X929323Y300212D01*
X929264Y300195D01*
X929204Y300187D01*
X929112Y300151D01*
X929017Y300123D01*
X928965Y300093D01*
X928909Y300070D01*
X928829Y300012D01*
X928743Y299962D01*
X928668Y299896D01*
X928651Y299884D01*
X928643Y299874D01*
X928622Y299856D01*
X919344Y290578D01*
X919284Y290499D01*
X919216Y290427D01*
X919187Y290374D01*
X919150Y290326D01*
X919110Y290235D01*
X919062Y290149D01*
X919047Y290090D01*
X919023Y290035D01*
X919008Y289937D01*
X918983Y289841D01*
X918977Y289741D01*
X918973Y289720D01*
X918975Y289708D01*
X918973Y289680D01*
X918973Y214006D01*
X903594Y198627D01*
X837376Y198627D01*
X837347Y198624D01*
X837318Y198626D01*
X837190Y198604D01*
X837061Y198587D01*
X837033Y198577D01*
X837004Y198572D01*
X836886Y198518D01*
X836765Y198470D01*
X836741Y198453D01*
X836714Y198441D01*
X836613Y198360D01*
X836508Y198284D01*
X836489Y198261D01*
X836466Y198242D01*
X836388Y198139D01*
X836305Y198039D01*
X836292Y198012D01*
X836275Y197988D01*
X836204Y197844D01*
X835621Y196437D01*
X832263Y193079D01*
X827875Y191261D01*
X823125Y191261D01*
X818737Y193079D01*
X815379Y196437D01*
X813561Y200825D01*
X813561Y205575D01*
X815379Y209963D01*
X818737Y213321D01*
X822132Y214727D01*
X822253Y214796D01*
X822376Y214861D01*
X822391Y214875D01*
X822408Y214885D01*
X822508Y214982D01*
X822611Y215075D01*
X822622Y215092D01*
X822637Y215106D01*
X822710Y215225D01*
X822786Y215341D01*
X822792Y215360D01*
X822803Y215377D01*
X822844Y215510D01*
X822889Y215642D01*
X822891Y215662D01*
X822897Y215681D01*
X822903Y215820D01*
X822914Y215959D01*
X822911Y215979D01*
X822912Y215999D01*
X822884Y216135D01*
X822860Y216272D01*
X822852Y216291D01*
X822847Y216310D01*
X822786Y216436D01*
X822729Y216562D01*
X822717Y216578D01*
X822708Y216596D01*
X822617Y216702D01*
X822531Y216810D01*
X822515Y216823D01*
X822501Y216838D01*
X822388Y216918D01*
X822277Y217002D01*
X822251Y217014D01*
X822241Y217021D01*
X822222Y217028D01*
X822132Y217073D01*
X818737Y218479D01*
X815379Y221837D01*
X814796Y223244D01*
X814782Y223269D01*
X814773Y223297D01*
X814703Y223407D01*
X814639Y223520D01*
X814618Y223541D01*
X814602Y223566D01*
X814508Y223655D01*
X814417Y223748D01*
X814392Y223764D01*
X814371Y223784D01*
X814257Y223847D01*
X814146Y223915D01*
X814118Y223923D01*
X814092Y223938D01*
X813966Y223970D01*
X813842Y224008D01*
X813813Y224010D01*
X813784Y224017D01*
X813624Y224027D01*
X802520Y224027D01*
X802422Y224015D01*
X802323Y224012D01*
X802264Y223995D01*
X802204Y223987D01*
X802112Y223951D01*
X802017Y223923D01*
X801965Y223893D01*
X801909Y223870D01*
X801829Y223812D01*
X801743Y223762D01*
X801668Y223696D01*
X801651Y223684D01*
X801643Y223674D01*
X801622Y223656D01*
X797424Y219458D01*
X797364Y219379D01*
X797296Y219307D01*
X797267Y219254D01*
X797230Y219206D01*
X797190Y219115D01*
X797142Y219029D01*
X797127Y218970D01*
X797103Y218915D01*
X797088Y218817D01*
X797063Y218721D01*
X797057Y218621D01*
X797053Y218600D01*
X797055Y218588D01*
X797053Y218560D01*
X797053Y200540D01*
X797065Y200442D01*
X797068Y200343D01*
X797085Y200284D01*
X797093Y200224D01*
X797129Y200132D01*
X797157Y200037D01*
X797187Y199985D01*
X797210Y199929D01*
X797268Y199849D01*
X797318Y199763D01*
X797384Y199688D01*
X797396Y199671D01*
X797406Y199663D01*
X797424Y199642D01*
X880362Y116704D01*
X880441Y116644D01*
X880513Y116576D01*
X880566Y116547D01*
X880614Y116510D01*
X880705Y116470D01*
X880791Y116422D01*
X880850Y116407D01*
X880905Y116383D01*
X881003Y116368D01*
X881099Y116343D01*
X881199Y116337D01*
X881220Y116333D01*
X881232Y116335D01*
X881260Y116333D01*
X1038646Y116333D01*
X1038745Y116345D01*
X1038844Y116348D01*
X1038902Y116365D01*
X1038962Y116373D01*
X1039054Y116409D01*
X1039149Y116437D01*
X1039201Y116467D01*
X1039258Y116490D01*
X1039338Y116548D01*
X1039423Y116598D01*
X1039499Y116664D01*
X1039515Y116676D01*
X1039523Y116686D01*
X1039544Y116704D01*
X1050359Y127519D01*
X1052786Y128525D01*
X1190034Y128525D01*
X1192461Y127519D01*
X1194319Y125661D01*
X1195325Y123234D01*
X1195325Y120606D01*
X1194319Y118179D01*
X1192461Y116321D01*
X1190034Y115315D01*
X1057362Y115315D01*
X1057263Y115303D01*
X1057164Y115300D01*
X1057106Y115283D01*
X1057046Y115275D01*
X1056954Y115239D01*
X1056859Y115211D01*
X1056807Y115181D01*
X1056750Y115158D01*
X1056670Y115100D01*
X1056585Y115050D01*
X1056509Y114984D01*
X1056493Y114972D01*
X1056485Y114962D01*
X1056464Y114944D01*
X1047681Y106161D01*
X1045254Y105155D01*
X1042626Y105155D01*
X1040199Y106161D01*
X1039544Y106816D01*
X1039466Y106876D01*
X1039394Y106944D01*
X1039341Y106973D01*
X1039293Y107010D01*
X1039202Y107050D01*
X1039115Y107098D01*
X1039057Y107113D01*
X1039001Y107137D01*
X1038903Y107152D01*
X1038807Y107177D01*
X1038707Y107183D01*
X1038687Y107187D01*
X1038674Y107185D01*
X1038646Y107187D01*
X876946Y107187D01*
X787907Y196226D01*
X787907Y222874D01*
X798206Y233173D01*
X813624Y233173D01*
X813653Y233176D01*
X813682Y233174D01*
X813810Y233196D01*
X813939Y233213D01*
X813967Y233223D01*
X813996Y233228D01*
X814114Y233282D01*
X814235Y233330D01*
X814259Y233347D01*
X814286Y233359D01*
X814387Y233440D01*
X814492Y233516D01*
X814511Y233539D01*
X814534Y233558D01*
X814612Y233661D01*
X814695Y233761D01*
X814708Y233788D01*
X814725Y233812D01*
X814796Y233956D01*
X815379Y235363D01*
X818737Y238721D01*
X822132Y240127D01*
X822253Y240196D01*
X822376Y240261D01*
X822391Y240275D01*
X822408Y240285D01*
X822508Y240382D01*
X822611Y240475D01*
X822622Y240492D01*
X822637Y240506D01*
X822710Y240625D01*
X822786Y240741D01*
X822792Y240760D01*
X822803Y240777D01*
X822844Y240910D01*
X822889Y241042D01*
X822891Y241062D01*
X822897Y241081D01*
X822903Y241220D01*
X822914Y241359D01*
X822911Y241379D01*
X822912Y241399D01*
X822884Y241535D01*
X822860Y241672D01*
X822852Y241691D01*
X822847Y241710D01*
X822786Y241836D01*
X822729Y241962D01*
X822717Y241978D01*
X822708Y241996D01*
X822617Y242102D01*
X822531Y242210D01*
X822515Y242223D01*
X822501Y242238D01*
X822388Y242318D01*
X822277Y242402D01*
X822251Y242414D01*
X822241Y242421D01*
X822222Y242428D01*
X822132Y242473D01*
X818737Y243879D01*
X815379Y247237D01*
X814796Y248644D01*
X814782Y248669D01*
X814773Y248697D01*
X814703Y248807D01*
X814639Y248920D01*
X814618Y248941D01*
X814602Y248966D01*
X814508Y249055D01*
X814417Y249148D01*
X814392Y249164D01*
X814371Y249184D01*
X814257Y249247D01*
X814146Y249315D01*
X814118Y249323D01*
X814092Y249338D01*
X813966Y249370D01*
X813842Y249408D01*
X813813Y249410D01*
X813784Y249417D01*
X813624Y249427D01*
X789820Y249427D01*
X789722Y249415D01*
X789623Y249412D01*
X789564Y249395D01*
X789504Y249387D01*
X789412Y249351D01*
X789317Y249323D01*
X789265Y249293D01*
X789209Y249270D01*
X789129Y249212D01*
X789043Y249162D01*
X788968Y249096D01*
X788951Y249084D01*
X788943Y249074D01*
X788922Y249056D01*
X779644Y239778D01*
X779584Y239699D01*
X779516Y239627D01*
X779487Y239574D01*
X779450Y239526D01*
X779410Y239435D01*
X779362Y239349D01*
X779347Y239290D01*
X779323Y239235D01*
X779308Y239137D01*
X779283Y239041D01*
X779277Y238941D01*
X779273Y238920D01*
X779275Y238908D01*
X779273Y238880D01*
X779273Y192920D01*
X779285Y192822D01*
X779288Y192723D01*
X779305Y192664D01*
X779313Y192604D01*
X779349Y192512D01*
X779377Y192417D01*
X779407Y192365D01*
X779430Y192309D01*
X779488Y192229D01*
X779538Y192143D01*
X779604Y192068D01*
X779616Y192051D01*
X779626Y192043D01*
X779644Y192022D01*
X877822Y93844D01*
X877901Y93784D01*
X877973Y93716D01*
X878026Y93687D01*
X878074Y93650D01*
X878165Y93610D01*
X878251Y93562D01*
X878310Y93547D01*
X878365Y93523D01*
X878463Y93508D01*
X878559Y93483D01*
X878659Y93477D01*
X878680Y93473D01*
X878692Y93475D01*
X878720Y93473D01*
X990444Y93473D01*
X1017909Y66007D01*
X1017988Y65947D01*
X1018060Y65879D01*
X1018113Y65850D01*
X1018161Y65813D01*
X1018252Y65773D01*
X1018338Y65725D01*
X1018397Y65710D01*
X1018452Y65686D01*
X1018550Y65671D01*
X1018646Y65646D01*
X1018746Y65640D01*
X1018767Y65636D01*
X1018779Y65638D01*
X1018807Y65636D01*
X1027927Y65636D01*
X1028025Y65648D01*
X1028124Y65651D01*
X1028182Y65668D01*
X1028242Y65676D01*
X1028334Y65712D01*
X1028429Y65740D01*
X1028482Y65770D01*
X1028538Y65793D01*
X1028618Y65851D01*
X1028703Y65901D01*
X1028779Y65967D01*
X1028795Y65979D01*
X1028803Y65989D01*
X1028824Y66007D01*
X1069274Y106458D01*
X1071954Y109137D01*
X1075221Y110491D01*
X1193519Y110491D01*
X1196786Y109137D01*
X1199466Y106458D01*
X1239916Y66007D01*
X1239994Y65947D01*
X1240066Y65879D01*
X1240119Y65850D01*
X1240167Y65813D01*
X1240258Y65773D01*
X1240345Y65725D01*
X1240403Y65710D01*
X1240459Y65686D01*
X1240557Y65671D01*
X1240653Y65646D01*
X1240753Y65640D01*
X1240773Y65636D01*
X1240785Y65638D01*
X1240813Y65636D01*
X1243827Y65636D01*
X1243925Y65648D01*
X1244024Y65651D01*
X1244082Y65668D01*
X1244142Y65676D01*
X1244234Y65712D01*
X1244329Y65740D01*
X1244381Y65770D01*
X1244438Y65793D01*
X1244518Y65851D01*
X1244603Y65901D01*
X1244679Y65967D01*
X1244695Y65979D01*
X1244703Y65989D01*
X1244724Y66007D01*
X1275154Y96437D01*
X1278421Y97791D01*
X1386069Y97791D01*
X1389336Y96437D01*
X1413011Y72762D01*
X1413089Y72702D01*
X1413161Y72634D01*
X1413214Y72605D01*
X1413262Y72568D01*
X1413353Y72528D01*
X1413440Y72480D01*
X1413498Y72465D01*
X1413554Y72441D01*
X1413652Y72426D01*
X1413748Y72401D01*
X1413848Y72395D01*
X1413868Y72391D01*
X1413880Y72393D01*
X1413908Y72391D01*
X1449569Y72391D01*
X1452836Y71037D01*
X1455337Y68536D01*
X1456691Y65269D01*
X1456691Y61731D01*
X1455337Y58464D01*
X1452836Y55963D01*
X1449569Y54609D01*
X1407931Y54609D01*
X1404664Y55963D01*
X1380989Y79638D01*
X1380911Y79698D01*
X1380839Y79766D01*
X1380786Y79795D01*
X1380738Y79832D01*
X1380647Y79872D01*
X1380560Y79920D01*
X1380502Y79935D01*
X1380446Y79959D01*
X1380348Y79974D01*
X1380252Y79999D01*
X1380152Y80005D01*
X1380132Y80009D01*
X1380120Y80007D01*
X1380092Y80009D01*
X1284398Y80009D01*
X1284300Y79997D01*
X1284201Y79994D01*
X1284143Y79977D01*
X1284083Y79969D01*
X1283991Y79933D01*
X1283896Y79905D01*
X1283844Y79875D01*
X1283787Y79852D01*
X1283707Y79794D01*
X1283622Y79744D01*
X1283546Y79678D01*
X1283530Y79666D01*
X1283522Y79656D01*
X1283501Y79638D01*
X1270587Y66723D01*
X1270574Y66707D01*
X1270559Y66695D01*
X1270477Y66582D01*
X1270392Y66472D01*
X1270384Y66454D01*
X1270372Y66438D01*
X1270321Y66308D01*
X1270265Y66180D01*
X1270262Y66160D01*
X1270255Y66142D01*
X1270237Y66004D01*
X1270216Y65866D01*
X1270217Y65846D01*
X1270215Y65826D01*
X1270232Y65689D01*
X1270245Y65549D01*
X1270252Y65531D01*
X1270255Y65511D01*
X1270306Y65382D01*
X1270353Y65250D01*
X1270364Y65234D01*
X1270371Y65215D01*
X1270453Y65102D01*
X1270532Y64987D01*
X1270546Y64974D01*
X1270558Y64958D01*
X1270666Y64869D01*
X1270770Y64776D01*
X1270788Y64767D01*
X1270803Y64755D01*
X1270929Y64695D01*
X1271053Y64632D01*
X1271073Y64628D01*
X1271091Y64619D01*
X1271228Y64593D01*
X1271363Y64562D01*
X1271383Y64563D01*
X1271403Y64559D01*
X1271542Y64568D01*
X1271681Y64572D01*
X1271701Y64577D01*
X1271720Y64579D01*
X1271876Y64619D01*
X1273900Y65276D01*
X1274781Y65416D01*
X1274781Y53569D01*
X1262934Y53569D01*
X1263074Y54450D01*
X1263731Y56474D01*
X1263735Y56493D01*
X1263743Y56511D01*
X1263765Y56649D01*
X1263791Y56786D01*
X1263790Y56806D01*
X1263793Y56826D01*
X1263780Y56965D01*
X1263771Y57103D01*
X1263765Y57122D01*
X1263763Y57142D01*
X1263716Y57274D01*
X1263673Y57406D01*
X1263662Y57423D01*
X1263655Y57441D01*
X1263577Y57557D01*
X1263503Y57674D01*
X1263488Y57688D01*
X1263477Y57705D01*
X1263372Y57797D01*
X1263271Y57892D01*
X1263253Y57902D01*
X1263238Y57915D01*
X1263114Y57979D01*
X1262992Y58046D01*
X1262973Y58051D01*
X1262955Y58060D01*
X1262819Y58090D01*
X1262684Y58125D01*
X1262664Y58125D01*
X1262645Y58129D01*
X1262506Y58125D01*
X1262366Y58125D01*
X1262347Y58120D01*
X1262327Y58120D01*
X1262193Y58081D01*
X1262058Y58046D01*
X1262041Y58037D01*
X1262022Y58031D01*
X1261902Y57961D01*
X1261779Y57894D01*
X1261765Y57880D01*
X1261748Y57870D01*
X1261627Y57763D01*
X1257297Y53434D01*
X1257237Y53356D01*
X1257169Y53284D01*
X1257140Y53231D01*
X1257103Y53183D01*
X1257063Y53092D01*
X1257015Y53005D01*
X1257000Y52947D01*
X1256976Y52891D01*
X1256961Y52793D01*
X1256936Y52697D01*
X1256930Y52597D01*
X1256926Y52577D01*
X1256928Y52565D01*
X1256926Y52537D01*
X1256926Y37913D01*
X1255437Y36424D01*
X1229203Y36424D01*
X1227714Y37913D01*
X1227714Y52537D01*
X1227702Y52635D01*
X1227699Y52734D01*
X1227682Y52792D01*
X1227674Y52852D01*
X1227638Y52944D01*
X1227610Y53039D01*
X1227580Y53092D01*
X1227557Y53148D01*
X1227499Y53228D01*
X1227449Y53313D01*
X1227383Y53389D01*
X1227371Y53405D01*
X1227361Y53413D01*
X1227343Y53434D01*
X1188439Y92338D01*
X1188361Y92398D01*
X1188289Y92466D01*
X1188236Y92495D01*
X1188188Y92532D01*
X1188097Y92572D01*
X1188010Y92620D01*
X1187952Y92635D01*
X1187896Y92659D01*
X1187798Y92674D01*
X1187702Y92699D01*
X1187602Y92705D01*
X1187582Y92709D01*
X1187570Y92707D01*
X1187542Y92709D01*
X1081198Y92709D01*
X1081100Y92697D01*
X1081001Y92694D01*
X1080943Y92677D01*
X1080883Y92669D01*
X1080791Y92633D01*
X1080696Y92605D01*
X1080644Y92575D01*
X1080587Y92552D01*
X1080507Y92494D01*
X1080422Y92444D01*
X1080346Y92378D01*
X1080330Y92366D01*
X1080322Y92356D01*
X1080301Y92338D01*
X1054687Y66723D01*
X1054674Y66707D01*
X1054659Y66695D01*
X1054577Y66582D01*
X1054492Y66472D01*
X1054484Y66454D01*
X1054472Y66438D01*
X1054421Y66308D01*
X1054365Y66180D01*
X1054362Y66160D01*
X1054355Y66142D01*
X1054337Y66004D01*
X1054316Y65866D01*
X1054317Y65846D01*
X1054315Y65826D01*
X1054332Y65689D01*
X1054345Y65549D01*
X1054352Y65531D01*
X1054355Y65511D01*
X1054406Y65382D01*
X1054453Y65250D01*
X1054464Y65234D01*
X1054471Y65215D01*
X1054553Y65102D01*
X1054632Y64987D01*
X1054646Y64974D01*
X1054658Y64958D01*
X1054766Y64869D01*
X1054870Y64776D01*
X1054888Y64767D01*
X1054903Y64755D01*
X1055029Y64695D01*
X1055153Y64632D01*
X1055173Y64628D01*
X1055191Y64619D01*
X1055328Y64593D01*
X1055463Y64562D01*
X1055483Y64563D01*
X1055503Y64559D01*
X1055642Y64568D01*
X1055781Y64572D01*
X1055801Y64577D01*
X1055820Y64579D01*
X1055976Y64619D01*
X1058000Y65276D01*
X1058881Y65416D01*
X1058881Y53569D01*
X1047034Y53569D01*
X1047174Y54450D01*
X1047831Y56474D01*
X1047835Y56493D01*
X1047843Y56511D01*
X1047865Y56649D01*
X1047891Y56786D01*
X1047890Y56806D01*
X1047893Y56826D01*
X1047880Y56965D01*
X1047871Y57103D01*
X1047865Y57122D01*
X1047863Y57142D01*
X1047816Y57274D01*
X1047773Y57406D01*
X1047762Y57423D01*
X1047755Y57441D01*
X1047677Y57557D01*
X1047603Y57674D01*
X1047588Y57688D01*
X1047577Y57705D01*
X1047472Y57797D01*
X1047371Y57892D01*
X1047353Y57902D01*
X1047338Y57915D01*
X1047214Y57979D01*
X1047092Y58046D01*
X1047073Y58051D01*
X1047055Y58060D01*
X1046919Y58090D01*
X1046784Y58125D01*
X1046764Y58125D01*
X1046745Y58129D01*
X1046606Y58125D01*
X1046466Y58125D01*
X1046447Y58120D01*
X1046427Y58120D01*
X1046293Y58081D01*
X1046158Y58046D01*
X1046141Y58037D01*
X1046122Y58031D01*
X1046002Y57961D01*
X1045879Y57894D01*
X1045865Y57880D01*
X1045848Y57870D01*
X1045727Y57763D01*
X1041397Y53434D01*
X1041337Y53356D01*
X1041269Y53284D01*
X1041240Y53231D01*
X1041203Y53183D01*
X1041163Y53092D01*
X1041115Y53005D01*
X1041100Y52947D01*
X1041076Y52891D01*
X1041061Y52793D01*
X1041036Y52697D01*
X1041030Y52597D01*
X1041026Y52577D01*
X1041028Y52565D01*
X1041026Y52537D01*
X1041026Y37913D01*
X1039537Y36424D01*
X1013303Y36424D01*
G37*
%LPD*%
%LPC*%
G36*
X661626Y849375D02*
X661626Y849375D01*
X659199Y850381D01*
X629401Y880179D01*
X628395Y882606D01*
X628395Y936538D01*
X628383Y936637D01*
X628380Y936736D01*
X628363Y936794D01*
X628355Y936854D01*
X628319Y936946D01*
X628291Y937041D01*
X628261Y937093D01*
X628238Y937150D01*
X628180Y937230D01*
X628130Y937315D01*
X628064Y937391D01*
X628052Y937407D01*
X628042Y937415D01*
X628024Y937436D01*
X586916Y978544D01*
X586838Y978604D01*
X586766Y978672D01*
X586713Y978701D01*
X586665Y978738D01*
X586574Y978778D01*
X586487Y978826D01*
X586429Y978841D01*
X586373Y978865D01*
X586275Y978880D01*
X586179Y978905D01*
X586079Y978911D01*
X586059Y978915D01*
X586046Y978913D01*
X586018Y978915D01*
X483826Y978915D01*
X481399Y979921D01*
X479541Y981779D01*
X478535Y984206D01*
X478535Y986834D01*
X479541Y989261D01*
X481399Y991119D01*
X483446Y991967D01*
X483507Y992002D01*
X483572Y992028D01*
X483645Y992080D01*
X483723Y992125D01*
X483773Y992173D01*
X483829Y992214D01*
X483887Y992284D01*
X483951Y992346D01*
X483988Y992406D01*
X484032Y992459D01*
X484070Y992541D01*
X484117Y992617D01*
X484138Y992684D01*
X484168Y992747D01*
X484184Y992835D01*
X484211Y992921D01*
X484214Y992991D01*
X484227Y993060D01*
X484222Y993149D01*
X484226Y993239D01*
X484212Y993307D01*
X484208Y993377D01*
X484180Y993462D01*
X484162Y993550D01*
X484131Y993613D01*
X484110Y993679D01*
X484062Y993755D01*
X484022Y993836D01*
X483977Y993889D01*
X483939Y993948D01*
X483874Y994010D01*
X483816Y994078D01*
X483759Y994118D01*
X483708Y994166D01*
X483629Y994209D01*
X483556Y994261D01*
X483490Y994286D01*
X483429Y994320D01*
X483342Y994342D01*
X483258Y994374D01*
X483189Y994382D01*
X483121Y994399D01*
X482961Y994409D01*
X457481Y994409D01*
X454214Y995763D01*
X423784Y1026193D01*
X423706Y1026253D01*
X423634Y1026321D01*
X423581Y1026350D01*
X423533Y1026387D01*
X423442Y1026427D01*
X423355Y1026475D01*
X423297Y1026490D01*
X423241Y1026514D01*
X423143Y1026529D01*
X423047Y1026554D01*
X422947Y1026560D01*
X422927Y1026564D01*
X422915Y1026562D01*
X422887Y1026564D01*
X419873Y1026564D01*
X419775Y1026552D01*
X419676Y1026549D01*
X419618Y1026532D01*
X419558Y1026524D01*
X419466Y1026488D01*
X419371Y1026460D01*
X419318Y1026430D01*
X419262Y1026407D01*
X419182Y1026349D01*
X419097Y1026299D01*
X419021Y1026233D01*
X419005Y1026221D01*
X418997Y1026211D01*
X418976Y1026193D01*
X391226Y998442D01*
X388546Y995763D01*
X385279Y994409D01*
X241581Y994409D01*
X238314Y995763D01*
X207884Y1026193D01*
X207806Y1026253D01*
X207734Y1026321D01*
X207681Y1026350D01*
X207633Y1026387D01*
X207542Y1026427D01*
X207455Y1026475D01*
X207397Y1026490D01*
X207341Y1026514D01*
X207243Y1026529D01*
X207147Y1026554D01*
X207047Y1026560D01*
X207027Y1026564D01*
X207015Y1026562D01*
X206987Y1026564D01*
X203973Y1026564D01*
X203875Y1026552D01*
X203776Y1026549D01*
X203718Y1026532D01*
X203658Y1026524D01*
X203566Y1026488D01*
X203471Y1026460D01*
X203419Y1026430D01*
X203362Y1026407D01*
X203282Y1026349D01*
X203197Y1026299D01*
X203121Y1026233D01*
X203105Y1026221D01*
X203097Y1026211D01*
X203076Y1026193D01*
X185346Y1008463D01*
X182079Y1007109D01*
X36331Y1007109D01*
X33064Y1008463D01*
X30563Y1010964D01*
X29209Y1014231D01*
X29209Y1017769D01*
X30563Y1021036D01*
X33064Y1023537D01*
X36331Y1024891D01*
X95234Y1024891D01*
X95303Y1024899D01*
X95373Y1024898D01*
X95461Y1024919D01*
X95550Y1024931D01*
X95615Y1024956D01*
X95682Y1024973D01*
X95762Y1025015D01*
X95845Y1025048D01*
X95902Y1025089D01*
X95963Y1025121D01*
X96030Y1025182D01*
X96103Y1025234D01*
X96147Y1025288D01*
X96199Y1025335D01*
X96248Y1025410D01*
X96305Y1025479D01*
X96335Y1025543D01*
X96374Y1025601D01*
X96403Y1025686D01*
X96441Y1025767D01*
X96454Y1025836D01*
X96477Y1025902D01*
X96484Y1025991D01*
X96501Y1026079D01*
X96496Y1026149D01*
X96502Y1026219D01*
X96487Y1026307D01*
X96481Y1026397D01*
X96460Y1026463D01*
X96448Y1026532D01*
X96411Y1026614D01*
X96383Y1026699D01*
X96346Y1026758D01*
X96317Y1026822D01*
X96261Y1026892D01*
X96213Y1026968D01*
X96162Y1027016D01*
X96118Y1027070D01*
X96047Y1027125D01*
X95981Y1027186D01*
X95920Y1027220D01*
X95864Y1027262D01*
X95720Y1027333D01*
X92207Y1028788D01*
X88098Y1032897D01*
X85874Y1038265D01*
X85874Y1044075D01*
X88098Y1049443D01*
X92207Y1053552D01*
X97575Y1055776D01*
X103385Y1055776D01*
X108753Y1053552D01*
X112862Y1049443D01*
X115086Y1044075D01*
X115086Y1038265D01*
X112862Y1032897D01*
X108753Y1028788D01*
X105240Y1027333D01*
X105180Y1027298D01*
X105115Y1027272D01*
X105042Y1027220D01*
X104964Y1027175D01*
X104914Y1027127D01*
X104857Y1027086D01*
X104800Y1027016D01*
X104736Y1026954D01*
X104699Y1026894D01*
X104655Y1026841D01*
X104616Y1026759D01*
X104569Y1026683D01*
X104549Y1026616D01*
X104519Y1026553D01*
X104502Y1026465D01*
X104476Y1026379D01*
X104472Y1026309D01*
X104459Y1026240D01*
X104465Y1026151D01*
X104461Y1026061D01*
X104475Y1025993D01*
X104479Y1025923D01*
X104507Y1025838D01*
X104525Y1025750D01*
X104556Y1025687D01*
X104577Y1025621D01*
X104625Y1025545D01*
X104665Y1025464D01*
X104710Y1025411D01*
X104747Y1025352D01*
X104813Y1025290D01*
X104871Y1025222D01*
X104928Y1025182D01*
X104979Y1025134D01*
X105057Y1025091D01*
X105131Y1025039D01*
X105196Y1025014D01*
X105257Y1024980D01*
X105344Y1024958D01*
X105428Y1024926D01*
X105498Y1024918D01*
X105565Y1024901D01*
X105726Y1024891D01*
X130234Y1024891D01*
X130303Y1024899D01*
X130373Y1024898D01*
X130461Y1024919D01*
X130550Y1024931D01*
X130615Y1024956D01*
X130682Y1024973D01*
X130762Y1025015D01*
X130845Y1025048D01*
X130902Y1025089D01*
X130963Y1025121D01*
X131030Y1025182D01*
X131103Y1025234D01*
X131147Y1025288D01*
X131199Y1025335D01*
X131248Y1025410D01*
X131305Y1025479D01*
X131335Y1025543D01*
X131374Y1025601D01*
X131403Y1025686D01*
X131441Y1025767D01*
X131454Y1025836D01*
X131477Y1025902D01*
X131484Y1025991D01*
X131501Y1026079D01*
X131496Y1026149D01*
X131502Y1026219D01*
X131487Y1026307D01*
X131481Y1026397D01*
X131460Y1026463D01*
X131448Y1026532D01*
X131411Y1026614D01*
X131383Y1026699D01*
X131346Y1026758D01*
X131317Y1026822D01*
X131261Y1026892D01*
X131213Y1026968D01*
X131162Y1027016D01*
X131118Y1027070D01*
X131047Y1027125D01*
X130981Y1027186D01*
X130920Y1027220D01*
X130864Y1027262D01*
X130720Y1027333D01*
X127207Y1028788D01*
X123098Y1032897D01*
X120874Y1038265D01*
X120874Y1044075D01*
X123098Y1049443D01*
X127207Y1053552D01*
X132575Y1055776D01*
X138385Y1055776D01*
X143753Y1053552D01*
X147862Y1049443D01*
X150086Y1044075D01*
X150086Y1038265D01*
X147862Y1032897D01*
X143753Y1028788D01*
X140240Y1027333D01*
X140180Y1027298D01*
X140115Y1027272D01*
X140042Y1027220D01*
X139964Y1027175D01*
X139914Y1027127D01*
X139857Y1027086D01*
X139800Y1027016D01*
X139736Y1026954D01*
X139699Y1026894D01*
X139655Y1026841D01*
X139616Y1026759D01*
X139569Y1026683D01*
X139549Y1026616D01*
X139519Y1026553D01*
X139502Y1026465D01*
X139476Y1026379D01*
X139472Y1026309D01*
X139459Y1026240D01*
X139465Y1026151D01*
X139461Y1026061D01*
X139475Y1025993D01*
X139479Y1025923D01*
X139507Y1025838D01*
X139525Y1025750D01*
X139556Y1025687D01*
X139577Y1025621D01*
X139625Y1025545D01*
X139665Y1025464D01*
X139710Y1025411D01*
X139747Y1025352D01*
X139813Y1025290D01*
X139871Y1025222D01*
X139928Y1025182D01*
X139979Y1025134D01*
X140057Y1025091D01*
X140131Y1025039D01*
X140196Y1025014D01*
X140257Y1024980D01*
X140344Y1024958D01*
X140428Y1024926D01*
X140498Y1024918D01*
X140565Y1024901D01*
X140726Y1024891D01*
X165304Y1024891D01*
X165422Y1024906D01*
X165541Y1024913D01*
X165579Y1024926D01*
X165619Y1024931D01*
X165730Y1024974D01*
X165844Y1025011D01*
X165878Y1025033D01*
X165915Y1025048D01*
X166011Y1025118D01*
X166112Y1025182D01*
X166140Y1025211D01*
X166172Y1025234D01*
X166248Y1025326D01*
X166330Y1025413D01*
X166349Y1025449D01*
X166375Y1025479D01*
X166426Y1025587D01*
X166483Y1025692D01*
X166493Y1025731D01*
X166511Y1025767D01*
X166533Y1025884D01*
X166563Y1026000D01*
X166563Y1026040D01*
X166570Y1026079D01*
X166563Y1026199D01*
X166563Y1026318D01*
X166553Y1026357D01*
X166551Y1026397D01*
X166514Y1026510D01*
X166484Y1026626D01*
X166465Y1026661D01*
X166453Y1026699D01*
X166389Y1026800D01*
X166331Y1026905D01*
X166304Y1026934D01*
X166282Y1026968D01*
X166195Y1027050D01*
X166114Y1027137D01*
X166080Y1027159D01*
X166051Y1027186D01*
X165946Y1027244D01*
X165845Y1027308D01*
X165790Y1027330D01*
X165772Y1027340D01*
X165752Y1027345D01*
X165696Y1027367D01*
X164873Y1027634D01*
X162825Y1028678D01*
X160965Y1030029D01*
X159339Y1031655D01*
X157988Y1033515D01*
X156944Y1035563D01*
X156234Y1037750D01*
X156094Y1038631D01*
X169210Y1038631D01*
X169328Y1038646D01*
X169447Y1038653D01*
X169485Y1038666D01*
X169525Y1038671D01*
X169636Y1038714D01*
X169749Y1038751D01*
X169783Y1038773D01*
X169821Y1038788D01*
X169917Y1038858D01*
X170018Y1038921D01*
X170046Y1038951D01*
X170078Y1038974D01*
X170154Y1039066D01*
X170236Y1039153D01*
X170255Y1039188D01*
X170281Y1039219D01*
X170332Y1039327D01*
X170389Y1039431D01*
X170400Y1039471D01*
X170417Y1039507D01*
X170439Y1039624D01*
X170469Y1039739D01*
X170473Y1039800D01*
X170477Y1039820D01*
X170475Y1039840D01*
X170479Y1039900D01*
X170479Y1041171D01*
X170481Y1041171D01*
X170481Y1039900D01*
X170496Y1039782D01*
X170503Y1039663D01*
X170516Y1039625D01*
X170521Y1039584D01*
X170565Y1039474D01*
X170601Y1039361D01*
X170623Y1039326D01*
X170638Y1039289D01*
X170708Y1039193D01*
X170771Y1039092D01*
X170801Y1039064D01*
X170825Y1039031D01*
X170916Y1038956D01*
X171003Y1038874D01*
X171038Y1038854D01*
X171070Y1038829D01*
X171177Y1038778D01*
X171282Y1038720D01*
X171321Y1038710D01*
X171357Y1038693D01*
X171474Y1038671D01*
X171589Y1038641D01*
X171650Y1038637D01*
X171670Y1038633D01*
X171690Y1038635D01*
X171750Y1038631D01*
X184866Y1038631D01*
X184726Y1037750D01*
X184069Y1035726D01*
X184065Y1035707D01*
X184057Y1035689D01*
X184035Y1035551D01*
X184009Y1035414D01*
X184010Y1035394D01*
X184007Y1035374D01*
X184020Y1035235D01*
X184029Y1035097D01*
X184035Y1035078D01*
X184037Y1035058D01*
X184084Y1034926D01*
X184127Y1034794D01*
X184138Y1034777D01*
X184145Y1034759D01*
X184223Y1034643D01*
X184297Y1034526D01*
X184312Y1034512D01*
X184323Y1034495D01*
X184428Y1034403D01*
X184529Y1034308D01*
X184547Y1034298D01*
X184562Y1034285D01*
X184686Y1034221D01*
X184808Y1034154D01*
X184827Y1034149D01*
X184845Y1034140D01*
X184981Y1034110D01*
X185116Y1034075D01*
X185136Y1034075D01*
X185155Y1034071D01*
X185294Y1034075D01*
X185434Y1034075D01*
X185453Y1034080D01*
X185473Y1034080D01*
X185607Y1034119D01*
X185742Y1034154D01*
X185759Y1034163D01*
X185778Y1034169D01*
X185898Y1034239D01*
X186021Y1034306D01*
X186035Y1034320D01*
X186052Y1034330D01*
X186173Y1034437D01*
X190503Y1038766D01*
X190563Y1038844D01*
X190631Y1038916D01*
X190660Y1038969D01*
X190697Y1039017D01*
X190737Y1039108D01*
X190785Y1039195D01*
X190800Y1039253D01*
X190824Y1039309D01*
X190839Y1039407D01*
X190864Y1039503D01*
X190870Y1039603D01*
X190874Y1039623D01*
X190872Y1039635D01*
X190874Y1039663D01*
X190874Y1054287D01*
X192363Y1055776D01*
X218597Y1055776D01*
X220086Y1054287D01*
X220086Y1039663D01*
X220098Y1039565D01*
X220101Y1039466D01*
X220118Y1039408D01*
X220126Y1039348D01*
X220162Y1039256D01*
X220190Y1039161D01*
X220220Y1039109D01*
X220243Y1039052D01*
X220301Y1038972D01*
X220351Y1038887D01*
X220417Y1038811D01*
X220429Y1038795D01*
X220439Y1038787D01*
X220457Y1038766D01*
X246661Y1012562D01*
X246739Y1012502D01*
X246811Y1012434D01*
X246864Y1012405D01*
X246912Y1012368D01*
X247003Y1012328D01*
X247090Y1012280D01*
X247148Y1012265D01*
X247204Y1012241D01*
X247302Y1012226D01*
X247398Y1012201D01*
X247498Y1012195D01*
X247518Y1012191D01*
X247530Y1012193D01*
X247558Y1012191D01*
X379302Y1012191D01*
X379400Y1012203D01*
X379499Y1012206D01*
X379557Y1012223D01*
X379617Y1012231D01*
X379709Y1012267D01*
X379804Y1012295D01*
X379857Y1012325D01*
X379913Y1012348D01*
X379993Y1012406D01*
X380078Y1012456D01*
X380154Y1012522D01*
X380170Y1012534D01*
X380178Y1012544D01*
X380199Y1012562D01*
X393113Y1025477D01*
X393126Y1025493D01*
X393141Y1025505D01*
X393223Y1025618D01*
X393308Y1025728D01*
X393316Y1025746D01*
X393328Y1025762D01*
X393379Y1025892D01*
X393435Y1026020D01*
X393438Y1026040D01*
X393445Y1026058D01*
X393463Y1026196D01*
X393485Y1026334D01*
X393483Y1026354D01*
X393485Y1026374D01*
X393468Y1026511D01*
X393455Y1026651D01*
X393448Y1026669D01*
X393445Y1026689D01*
X393394Y1026818D01*
X393347Y1026950D01*
X393336Y1026966D01*
X393329Y1026985D01*
X393247Y1027098D01*
X393169Y1027213D01*
X393154Y1027226D01*
X393142Y1027242D01*
X393034Y1027332D01*
X392930Y1027424D01*
X392912Y1027433D01*
X392897Y1027445D01*
X392771Y1027505D01*
X392647Y1027568D01*
X392627Y1027572D01*
X392609Y1027581D01*
X392472Y1027607D01*
X392337Y1027638D01*
X392317Y1027637D01*
X392297Y1027641D01*
X392158Y1027632D01*
X392019Y1027628D01*
X391999Y1027623D01*
X391980Y1027621D01*
X391824Y1027581D01*
X389800Y1026924D01*
X388919Y1026784D01*
X388919Y1038631D01*
X400766Y1038631D01*
X400626Y1037750D01*
X399969Y1035726D01*
X399965Y1035707D01*
X399957Y1035688D01*
X399935Y1035551D01*
X399909Y1035414D01*
X399910Y1035394D01*
X399907Y1035374D01*
X399920Y1035235D01*
X399929Y1035097D01*
X399935Y1035078D01*
X399937Y1035058D01*
X399984Y1034926D01*
X400027Y1034794D01*
X400038Y1034777D01*
X400045Y1034758D01*
X400123Y1034643D01*
X400197Y1034525D01*
X400212Y1034512D01*
X400223Y1034495D01*
X400328Y1034403D01*
X400429Y1034308D01*
X400447Y1034298D01*
X400462Y1034285D01*
X400586Y1034221D01*
X400708Y1034154D01*
X400727Y1034149D01*
X400745Y1034140D01*
X400881Y1034110D01*
X401016Y1034075D01*
X401036Y1034075D01*
X401055Y1034071D01*
X401194Y1034075D01*
X401334Y1034075D01*
X401353Y1034080D01*
X401373Y1034080D01*
X401507Y1034119D01*
X401642Y1034154D01*
X401659Y1034163D01*
X401678Y1034169D01*
X401799Y1034239D01*
X401921Y1034306D01*
X401935Y1034320D01*
X401952Y1034330D01*
X402073Y1034437D01*
X406403Y1038766D01*
X406463Y1038844D01*
X406531Y1038916D01*
X406560Y1038969D01*
X406597Y1039017D01*
X406637Y1039108D01*
X406685Y1039195D01*
X406700Y1039253D01*
X406724Y1039309D01*
X406739Y1039407D01*
X406764Y1039503D01*
X406770Y1039603D01*
X406774Y1039623D01*
X406772Y1039635D01*
X406774Y1039663D01*
X406774Y1054287D01*
X408263Y1055776D01*
X434497Y1055776D01*
X435986Y1054287D01*
X435986Y1039663D01*
X435998Y1039565D01*
X436001Y1039466D01*
X436018Y1039408D01*
X436026Y1039348D01*
X436062Y1039256D01*
X436090Y1039161D01*
X436120Y1039109D01*
X436143Y1039052D01*
X436201Y1038972D01*
X436251Y1038887D01*
X436317Y1038811D01*
X436329Y1038795D01*
X436339Y1038787D01*
X436357Y1038766D01*
X462561Y1012562D01*
X462639Y1012502D01*
X462711Y1012434D01*
X462764Y1012405D01*
X462812Y1012368D01*
X462903Y1012328D01*
X462990Y1012280D01*
X463048Y1012265D01*
X463104Y1012241D01*
X463202Y1012226D01*
X463298Y1012201D01*
X463398Y1012195D01*
X463418Y1012191D01*
X463430Y1012193D01*
X463458Y1012191D01*
X595202Y1012191D01*
X595300Y1012203D01*
X595399Y1012206D01*
X595457Y1012223D01*
X595517Y1012231D01*
X595609Y1012267D01*
X595704Y1012295D01*
X595756Y1012325D01*
X595813Y1012348D01*
X595893Y1012406D01*
X595978Y1012456D01*
X596054Y1012522D01*
X596070Y1012534D01*
X596078Y1012544D01*
X596099Y1012562D01*
X609013Y1025477D01*
X609026Y1025493D01*
X609041Y1025505D01*
X609123Y1025618D01*
X609208Y1025728D01*
X609216Y1025746D01*
X609228Y1025762D01*
X609279Y1025892D01*
X609335Y1026020D01*
X609338Y1026040D01*
X609345Y1026058D01*
X609363Y1026196D01*
X609384Y1026334D01*
X609383Y1026354D01*
X609385Y1026374D01*
X609368Y1026511D01*
X609355Y1026651D01*
X609348Y1026669D01*
X609345Y1026689D01*
X609294Y1026818D01*
X609247Y1026950D01*
X609236Y1026966D01*
X609229Y1026985D01*
X609147Y1027098D01*
X609068Y1027213D01*
X609054Y1027226D01*
X609042Y1027242D01*
X608934Y1027331D01*
X608830Y1027424D01*
X608812Y1027433D01*
X608797Y1027445D01*
X608671Y1027505D01*
X608547Y1027568D01*
X608527Y1027572D01*
X608509Y1027581D01*
X608372Y1027607D01*
X608237Y1027638D01*
X608217Y1027637D01*
X608197Y1027641D01*
X608058Y1027632D01*
X607919Y1027628D01*
X607899Y1027623D01*
X607880Y1027621D01*
X607724Y1027581D01*
X605700Y1026924D01*
X604819Y1026784D01*
X604819Y1038631D01*
X616666Y1038631D01*
X616526Y1037750D01*
X615869Y1035726D01*
X615865Y1035707D01*
X615857Y1035689D01*
X615835Y1035551D01*
X615809Y1035414D01*
X615810Y1035394D01*
X615807Y1035374D01*
X615820Y1035235D01*
X615829Y1035097D01*
X615835Y1035078D01*
X615837Y1035058D01*
X615884Y1034926D01*
X615927Y1034794D01*
X615938Y1034777D01*
X615945Y1034759D01*
X616023Y1034643D01*
X616097Y1034526D01*
X616112Y1034512D01*
X616123Y1034495D01*
X616228Y1034403D01*
X616329Y1034308D01*
X616347Y1034298D01*
X616362Y1034285D01*
X616486Y1034221D01*
X616608Y1034154D01*
X616627Y1034149D01*
X616645Y1034140D01*
X616781Y1034110D01*
X616916Y1034075D01*
X616936Y1034075D01*
X616955Y1034071D01*
X617094Y1034075D01*
X617234Y1034075D01*
X617253Y1034080D01*
X617273Y1034080D01*
X617407Y1034119D01*
X617542Y1034154D01*
X617559Y1034163D01*
X617578Y1034169D01*
X617698Y1034239D01*
X617821Y1034306D01*
X617835Y1034320D01*
X617852Y1034330D01*
X617973Y1034437D01*
X622303Y1038766D01*
X622363Y1038844D01*
X622431Y1038916D01*
X622460Y1038969D01*
X622497Y1039017D01*
X622537Y1039108D01*
X622585Y1039195D01*
X622600Y1039253D01*
X622624Y1039309D01*
X622639Y1039407D01*
X622664Y1039503D01*
X622670Y1039603D01*
X622674Y1039623D01*
X622672Y1039635D01*
X622674Y1039663D01*
X622674Y1054287D01*
X624163Y1055776D01*
X650397Y1055776D01*
X651886Y1054287D01*
X651886Y1039663D01*
X651898Y1039565D01*
X651901Y1039466D01*
X651918Y1039408D01*
X651926Y1039348D01*
X651962Y1039256D01*
X651990Y1039161D01*
X652020Y1039109D01*
X652043Y1039052D01*
X652101Y1038972D01*
X652151Y1038887D01*
X652217Y1038811D01*
X652229Y1038795D01*
X652239Y1038787D01*
X652257Y1038766D01*
X665761Y1025262D01*
X665839Y1025202D01*
X665911Y1025134D01*
X665964Y1025105D01*
X666012Y1025068D01*
X666103Y1025028D01*
X666190Y1024980D01*
X666248Y1024965D01*
X666304Y1024941D01*
X666402Y1024926D01*
X666498Y1024901D01*
X666598Y1024895D01*
X666618Y1024891D01*
X666630Y1024893D01*
X666658Y1024891D01*
X819134Y1024891D01*
X819203Y1024899D01*
X819273Y1024898D01*
X819361Y1024919D01*
X819450Y1024931D01*
X819515Y1024956D01*
X819582Y1024973D01*
X819662Y1025015D01*
X819745Y1025048D01*
X819802Y1025089D01*
X819864Y1025121D01*
X819930Y1025182D01*
X820003Y1025234D01*
X820047Y1025288D01*
X820099Y1025335D01*
X820148Y1025410D01*
X820205Y1025479D01*
X820235Y1025543D01*
X820274Y1025601D01*
X820303Y1025686D01*
X820341Y1025767D01*
X820354Y1025836D01*
X820377Y1025902D01*
X820384Y1025991D01*
X820401Y1026079D01*
X820396Y1026149D01*
X820402Y1026219D01*
X820387Y1026307D01*
X820381Y1026397D01*
X820360Y1026463D01*
X820348Y1026532D01*
X820311Y1026614D01*
X820283Y1026699D01*
X820246Y1026758D01*
X820217Y1026822D01*
X820161Y1026892D01*
X820113Y1026968D01*
X820062Y1027016D01*
X820018Y1027070D01*
X819947Y1027125D01*
X819881Y1027186D01*
X819820Y1027220D01*
X819764Y1027262D01*
X819620Y1027333D01*
X816107Y1028788D01*
X811998Y1032897D01*
X809774Y1038265D01*
X809774Y1044075D01*
X811998Y1049443D01*
X816107Y1053552D01*
X821475Y1055776D01*
X827285Y1055776D01*
X832653Y1053552D01*
X836762Y1049443D01*
X838986Y1044075D01*
X838986Y1038265D01*
X836762Y1032897D01*
X832653Y1028788D01*
X829140Y1027333D01*
X829080Y1027298D01*
X829015Y1027272D01*
X828942Y1027220D01*
X828864Y1027175D01*
X828814Y1027127D01*
X828757Y1027086D01*
X828700Y1027016D01*
X828636Y1026954D01*
X828599Y1026894D01*
X828555Y1026841D01*
X828516Y1026759D01*
X828469Y1026683D01*
X828449Y1026616D01*
X828419Y1026553D01*
X828402Y1026465D01*
X828376Y1026379D01*
X828372Y1026309D01*
X828359Y1026240D01*
X828365Y1026151D01*
X828361Y1026061D01*
X828375Y1025993D01*
X828379Y1025923D01*
X828407Y1025838D01*
X828425Y1025750D01*
X828456Y1025687D01*
X828477Y1025621D01*
X828525Y1025545D01*
X828565Y1025464D01*
X828610Y1025411D01*
X828647Y1025352D01*
X828713Y1025290D01*
X828771Y1025222D01*
X828828Y1025182D01*
X828879Y1025134D01*
X828957Y1025091D01*
X829031Y1025039D01*
X829096Y1025014D01*
X829157Y1024980D01*
X829244Y1024958D01*
X829328Y1024926D01*
X829398Y1024918D01*
X829465Y1024901D01*
X829626Y1024891D01*
X854134Y1024891D01*
X854203Y1024899D01*
X854273Y1024898D01*
X854361Y1024919D01*
X854450Y1024931D01*
X854515Y1024956D01*
X854582Y1024973D01*
X854662Y1025015D01*
X854745Y1025048D01*
X854802Y1025089D01*
X854864Y1025121D01*
X854930Y1025182D01*
X855003Y1025234D01*
X855047Y1025288D01*
X855099Y1025335D01*
X855148Y1025410D01*
X855205Y1025479D01*
X855235Y1025543D01*
X855274Y1025601D01*
X855303Y1025686D01*
X855341Y1025767D01*
X855354Y1025836D01*
X855377Y1025902D01*
X855384Y1025991D01*
X855401Y1026079D01*
X855396Y1026149D01*
X855402Y1026219D01*
X855387Y1026307D01*
X855381Y1026397D01*
X855360Y1026463D01*
X855348Y1026532D01*
X855311Y1026614D01*
X855283Y1026699D01*
X855246Y1026758D01*
X855217Y1026822D01*
X855161Y1026892D01*
X855113Y1026968D01*
X855062Y1027016D01*
X855018Y1027070D01*
X854947Y1027125D01*
X854881Y1027186D01*
X854820Y1027220D01*
X854764Y1027262D01*
X854620Y1027333D01*
X851107Y1028788D01*
X846998Y1032897D01*
X844774Y1038265D01*
X844774Y1044075D01*
X846998Y1049443D01*
X851107Y1053552D01*
X856475Y1055776D01*
X862285Y1055776D01*
X867653Y1053552D01*
X871762Y1049443D01*
X873986Y1044075D01*
X873986Y1038265D01*
X871762Y1032897D01*
X867653Y1028788D01*
X864140Y1027333D01*
X864080Y1027298D01*
X864015Y1027272D01*
X863942Y1027220D01*
X863864Y1027175D01*
X863814Y1027127D01*
X863757Y1027086D01*
X863700Y1027016D01*
X863636Y1026954D01*
X863599Y1026894D01*
X863555Y1026841D01*
X863516Y1026759D01*
X863469Y1026683D01*
X863449Y1026616D01*
X863419Y1026553D01*
X863402Y1026465D01*
X863376Y1026379D01*
X863372Y1026309D01*
X863359Y1026240D01*
X863365Y1026151D01*
X863361Y1026061D01*
X863375Y1025993D01*
X863379Y1025923D01*
X863407Y1025838D01*
X863425Y1025750D01*
X863456Y1025687D01*
X863477Y1025621D01*
X863525Y1025545D01*
X863565Y1025464D01*
X863610Y1025411D01*
X863647Y1025352D01*
X863713Y1025290D01*
X863771Y1025222D01*
X863828Y1025182D01*
X863879Y1025134D01*
X863957Y1025091D01*
X864031Y1025039D01*
X864096Y1025014D01*
X864157Y1024980D01*
X864244Y1024958D01*
X864328Y1024926D01*
X864398Y1024918D01*
X864465Y1024901D01*
X864626Y1024891D01*
X889204Y1024891D01*
X889322Y1024906D01*
X889441Y1024913D01*
X889479Y1024926D01*
X889519Y1024931D01*
X889630Y1024975D01*
X889744Y1025011D01*
X889778Y1025033D01*
X889815Y1025048D01*
X889911Y1025118D01*
X890012Y1025182D01*
X890040Y1025211D01*
X890072Y1025234D01*
X890148Y1025326D01*
X890230Y1025413D01*
X890249Y1025449D01*
X890275Y1025479D01*
X890326Y1025587D01*
X890384Y1025692D01*
X890394Y1025731D01*
X890411Y1025767D01*
X890433Y1025884D01*
X890463Y1026000D01*
X890463Y1026040D01*
X890470Y1026079D01*
X890463Y1026199D01*
X890463Y1026318D01*
X890453Y1026357D01*
X890451Y1026397D01*
X890414Y1026510D01*
X890384Y1026626D01*
X890365Y1026661D01*
X890353Y1026699D01*
X890289Y1026800D01*
X890231Y1026905D01*
X890204Y1026934D01*
X890182Y1026968D01*
X890095Y1027050D01*
X890014Y1027137D01*
X889980Y1027159D01*
X889951Y1027186D01*
X889846Y1027244D01*
X889746Y1027308D01*
X889690Y1027330D01*
X889672Y1027340D01*
X889653Y1027345D01*
X889596Y1027367D01*
X888773Y1027634D01*
X886725Y1028678D01*
X884865Y1030029D01*
X883239Y1031655D01*
X881888Y1033515D01*
X880844Y1035563D01*
X880134Y1037750D01*
X879994Y1038631D01*
X893110Y1038631D01*
X893228Y1038646D01*
X893347Y1038653D01*
X893385Y1038666D01*
X893425Y1038671D01*
X893536Y1038714D01*
X893649Y1038751D01*
X893683Y1038773D01*
X893721Y1038788D01*
X893817Y1038858D01*
X893918Y1038921D01*
X893946Y1038951D01*
X893978Y1038974D01*
X894054Y1039066D01*
X894136Y1039153D01*
X894155Y1039188D01*
X894181Y1039219D01*
X894232Y1039327D01*
X894289Y1039431D01*
X894300Y1039471D01*
X894317Y1039507D01*
X894339Y1039624D01*
X894369Y1039739D01*
X894373Y1039800D01*
X894377Y1039820D01*
X894375Y1039840D01*
X894379Y1039900D01*
X894379Y1041171D01*
X894381Y1041171D01*
X894381Y1039900D01*
X894396Y1039782D01*
X894403Y1039663D01*
X894416Y1039625D01*
X894421Y1039584D01*
X894465Y1039474D01*
X894501Y1039361D01*
X894523Y1039326D01*
X894538Y1039289D01*
X894608Y1039193D01*
X894671Y1039092D01*
X894701Y1039064D01*
X894725Y1039031D01*
X894816Y1038956D01*
X894903Y1038874D01*
X894938Y1038854D01*
X894970Y1038829D01*
X895077Y1038778D01*
X895182Y1038720D01*
X895221Y1038710D01*
X895257Y1038693D01*
X895374Y1038671D01*
X895489Y1038641D01*
X895550Y1038637D01*
X895570Y1038633D01*
X895590Y1038635D01*
X895650Y1038631D01*
X908766Y1038631D01*
X908626Y1037750D01*
X907969Y1035726D01*
X907965Y1035707D01*
X907957Y1035688D01*
X907935Y1035551D01*
X907909Y1035414D01*
X907910Y1035394D01*
X907907Y1035374D01*
X907920Y1035235D01*
X907929Y1035097D01*
X907935Y1035078D01*
X907937Y1035058D01*
X907984Y1034926D01*
X908027Y1034794D01*
X908038Y1034777D01*
X908045Y1034758D01*
X908123Y1034643D01*
X908197Y1034525D01*
X908212Y1034512D01*
X908223Y1034495D01*
X908328Y1034403D01*
X908429Y1034308D01*
X908447Y1034298D01*
X908462Y1034285D01*
X908586Y1034221D01*
X908708Y1034154D01*
X908727Y1034149D01*
X908745Y1034140D01*
X908881Y1034110D01*
X909016Y1034075D01*
X909036Y1034075D01*
X909055Y1034071D01*
X909194Y1034075D01*
X909334Y1034075D01*
X909353Y1034080D01*
X909373Y1034080D01*
X909507Y1034119D01*
X909642Y1034154D01*
X909659Y1034163D01*
X909678Y1034169D01*
X909799Y1034239D01*
X909921Y1034306D01*
X909935Y1034320D01*
X909952Y1034330D01*
X910073Y1034437D01*
X914403Y1038766D01*
X914463Y1038844D01*
X914531Y1038916D01*
X914560Y1038969D01*
X914597Y1039017D01*
X914637Y1039108D01*
X914685Y1039195D01*
X914700Y1039253D01*
X914724Y1039309D01*
X914739Y1039407D01*
X914764Y1039503D01*
X914770Y1039603D01*
X914774Y1039623D01*
X914772Y1039635D01*
X914774Y1039663D01*
X914774Y1054287D01*
X916263Y1055776D01*
X942497Y1055776D01*
X943986Y1054287D01*
X943986Y1039663D01*
X943998Y1039565D01*
X944001Y1039466D01*
X944018Y1039408D01*
X944026Y1039348D01*
X944062Y1039256D01*
X944090Y1039161D01*
X944120Y1039109D01*
X944143Y1039052D01*
X944201Y1038972D01*
X944251Y1038887D01*
X944317Y1038811D01*
X944329Y1038795D01*
X944339Y1038787D01*
X944357Y1038766D01*
X957861Y1025262D01*
X957939Y1025202D01*
X958011Y1025134D01*
X958064Y1025105D01*
X958112Y1025068D01*
X958203Y1025028D01*
X958290Y1024980D01*
X958348Y1024965D01*
X958404Y1024941D01*
X958502Y1024926D01*
X958598Y1024901D01*
X958698Y1024895D01*
X958718Y1024891D01*
X958730Y1024893D01*
X958758Y1024891D01*
X1035034Y1024891D01*
X1035103Y1024899D01*
X1035173Y1024898D01*
X1035261Y1024919D01*
X1035350Y1024931D01*
X1035415Y1024956D01*
X1035482Y1024973D01*
X1035562Y1025015D01*
X1035645Y1025048D01*
X1035702Y1025089D01*
X1035764Y1025121D01*
X1035830Y1025182D01*
X1035903Y1025234D01*
X1035947Y1025288D01*
X1035999Y1025335D01*
X1036048Y1025410D01*
X1036105Y1025479D01*
X1036135Y1025543D01*
X1036174Y1025601D01*
X1036203Y1025686D01*
X1036241Y1025767D01*
X1036254Y1025836D01*
X1036277Y1025902D01*
X1036284Y1025991D01*
X1036301Y1026079D01*
X1036296Y1026149D01*
X1036302Y1026219D01*
X1036287Y1026307D01*
X1036281Y1026397D01*
X1036260Y1026463D01*
X1036248Y1026532D01*
X1036211Y1026614D01*
X1036183Y1026699D01*
X1036146Y1026758D01*
X1036117Y1026822D01*
X1036061Y1026892D01*
X1036013Y1026968D01*
X1035962Y1027016D01*
X1035918Y1027070D01*
X1035847Y1027125D01*
X1035781Y1027186D01*
X1035720Y1027220D01*
X1035664Y1027262D01*
X1035520Y1027333D01*
X1032007Y1028788D01*
X1027898Y1032897D01*
X1025674Y1038265D01*
X1025674Y1044075D01*
X1027898Y1049443D01*
X1032007Y1053552D01*
X1037375Y1055776D01*
X1043185Y1055776D01*
X1048553Y1053552D01*
X1052662Y1049443D01*
X1054886Y1044075D01*
X1054886Y1038265D01*
X1052662Y1032897D01*
X1048553Y1028788D01*
X1045040Y1027333D01*
X1044980Y1027298D01*
X1044915Y1027272D01*
X1044842Y1027220D01*
X1044764Y1027175D01*
X1044714Y1027127D01*
X1044657Y1027086D01*
X1044600Y1027016D01*
X1044536Y1026954D01*
X1044499Y1026894D01*
X1044455Y1026841D01*
X1044416Y1026759D01*
X1044369Y1026683D01*
X1044349Y1026616D01*
X1044319Y1026553D01*
X1044302Y1026465D01*
X1044276Y1026379D01*
X1044272Y1026309D01*
X1044259Y1026240D01*
X1044265Y1026151D01*
X1044261Y1026061D01*
X1044275Y1025993D01*
X1044279Y1025923D01*
X1044307Y1025838D01*
X1044325Y1025750D01*
X1044356Y1025687D01*
X1044377Y1025621D01*
X1044425Y1025545D01*
X1044465Y1025464D01*
X1044510Y1025411D01*
X1044547Y1025352D01*
X1044613Y1025290D01*
X1044671Y1025222D01*
X1044728Y1025182D01*
X1044779Y1025134D01*
X1044857Y1025091D01*
X1044931Y1025039D01*
X1044996Y1025014D01*
X1045057Y1024980D01*
X1045144Y1024958D01*
X1045228Y1024926D01*
X1045298Y1024918D01*
X1045365Y1024901D01*
X1045526Y1024891D01*
X1070034Y1024891D01*
X1070103Y1024899D01*
X1070173Y1024898D01*
X1070261Y1024919D01*
X1070350Y1024931D01*
X1070415Y1024956D01*
X1070482Y1024973D01*
X1070562Y1025015D01*
X1070645Y1025048D01*
X1070702Y1025089D01*
X1070764Y1025121D01*
X1070830Y1025182D01*
X1070903Y1025234D01*
X1070947Y1025288D01*
X1070999Y1025335D01*
X1071048Y1025410D01*
X1071105Y1025479D01*
X1071135Y1025543D01*
X1071174Y1025601D01*
X1071203Y1025686D01*
X1071241Y1025767D01*
X1071254Y1025836D01*
X1071277Y1025902D01*
X1071284Y1025991D01*
X1071301Y1026079D01*
X1071296Y1026149D01*
X1071302Y1026219D01*
X1071287Y1026307D01*
X1071281Y1026397D01*
X1071260Y1026463D01*
X1071248Y1026532D01*
X1071211Y1026614D01*
X1071183Y1026699D01*
X1071146Y1026758D01*
X1071117Y1026822D01*
X1071061Y1026892D01*
X1071013Y1026968D01*
X1070962Y1027016D01*
X1070918Y1027070D01*
X1070847Y1027125D01*
X1070781Y1027186D01*
X1070720Y1027220D01*
X1070664Y1027262D01*
X1070520Y1027333D01*
X1067007Y1028788D01*
X1062898Y1032897D01*
X1060674Y1038265D01*
X1060674Y1044075D01*
X1062898Y1049443D01*
X1067007Y1053552D01*
X1072375Y1055776D01*
X1078185Y1055776D01*
X1083553Y1053552D01*
X1087662Y1049443D01*
X1089886Y1044075D01*
X1089886Y1038265D01*
X1087662Y1032897D01*
X1083553Y1028788D01*
X1080040Y1027333D01*
X1079980Y1027298D01*
X1079915Y1027272D01*
X1079842Y1027220D01*
X1079764Y1027175D01*
X1079714Y1027127D01*
X1079657Y1027086D01*
X1079600Y1027016D01*
X1079536Y1026954D01*
X1079499Y1026894D01*
X1079455Y1026841D01*
X1079416Y1026759D01*
X1079369Y1026683D01*
X1079349Y1026616D01*
X1079319Y1026553D01*
X1079302Y1026465D01*
X1079276Y1026379D01*
X1079272Y1026309D01*
X1079259Y1026240D01*
X1079265Y1026151D01*
X1079261Y1026061D01*
X1079275Y1025993D01*
X1079279Y1025923D01*
X1079307Y1025838D01*
X1079325Y1025750D01*
X1079356Y1025687D01*
X1079377Y1025621D01*
X1079425Y1025545D01*
X1079465Y1025464D01*
X1079510Y1025411D01*
X1079547Y1025352D01*
X1079613Y1025290D01*
X1079671Y1025222D01*
X1079728Y1025182D01*
X1079779Y1025134D01*
X1079857Y1025091D01*
X1079931Y1025039D01*
X1079996Y1025014D01*
X1080057Y1024980D01*
X1080144Y1024958D01*
X1080228Y1024926D01*
X1080298Y1024918D01*
X1080365Y1024901D01*
X1080526Y1024891D01*
X1105104Y1024891D01*
X1105222Y1024906D01*
X1105341Y1024913D01*
X1105379Y1024926D01*
X1105419Y1024931D01*
X1105530Y1024975D01*
X1105644Y1025011D01*
X1105678Y1025033D01*
X1105715Y1025048D01*
X1105812Y1025118D01*
X1105912Y1025182D01*
X1105940Y1025211D01*
X1105972Y1025234D01*
X1106048Y1025327D01*
X1106130Y1025413D01*
X1106149Y1025449D01*
X1106175Y1025479D01*
X1106226Y1025587D01*
X1106283Y1025692D01*
X1106294Y1025731D01*
X1106311Y1025767D01*
X1106333Y1025884D01*
X1106363Y1026000D01*
X1106363Y1026040D01*
X1106370Y1026079D01*
X1106363Y1026199D01*
X1106363Y1026318D01*
X1106353Y1026357D01*
X1106351Y1026397D01*
X1106314Y1026510D01*
X1106284Y1026626D01*
X1106265Y1026661D01*
X1106253Y1026699D01*
X1106189Y1026800D01*
X1106131Y1026905D01*
X1106104Y1026934D01*
X1106082Y1026968D01*
X1105995Y1027050D01*
X1105914Y1027137D01*
X1105880Y1027159D01*
X1105851Y1027186D01*
X1105746Y1027244D01*
X1105645Y1027308D01*
X1105590Y1027330D01*
X1105572Y1027340D01*
X1105552Y1027345D01*
X1105496Y1027367D01*
X1104673Y1027634D01*
X1102625Y1028678D01*
X1100765Y1030029D01*
X1099139Y1031655D01*
X1097788Y1033515D01*
X1096744Y1035563D01*
X1096034Y1037750D01*
X1095894Y1038631D01*
X1109010Y1038631D01*
X1109128Y1038646D01*
X1109247Y1038653D01*
X1109285Y1038666D01*
X1109325Y1038671D01*
X1109436Y1038714D01*
X1109549Y1038751D01*
X1109583Y1038773D01*
X1109621Y1038788D01*
X1109717Y1038858D01*
X1109818Y1038921D01*
X1109846Y1038951D01*
X1109878Y1038974D01*
X1109954Y1039066D01*
X1110036Y1039153D01*
X1110055Y1039188D01*
X1110081Y1039219D01*
X1110132Y1039327D01*
X1110189Y1039431D01*
X1110200Y1039471D01*
X1110217Y1039507D01*
X1110239Y1039624D01*
X1110269Y1039739D01*
X1110273Y1039800D01*
X1110277Y1039820D01*
X1110275Y1039840D01*
X1110279Y1039900D01*
X1110279Y1041171D01*
X1110281Y1041171D01*
X1110281Y1039900D01*
X1110296Y1039782D01*
X1110303Y1039663D01*
X1110316Y1039625D01*
X1110321Y1039584D01*
X1110365Y1039474D01*
X1110401Y1039361D01*
X1110423Y1039326D01*
X1110438Y1039289D01*
X1110508Y1039193D01*
X1110571Y1039092D01*
X1110601Y1039064D01*
X1110625Y1039031D01*
X1110716Y1038956D01*
X1110803Y1038874D01*
X1110838Y1038854D01*
X1110870Y1038829D01*
X1110977Y1038778D01*
X1111082Y1038720D01*
X1111121Y1038710D01*
X1111157Y1038693D01*
X1111274Y1038671D01*
X1111389Y1038641D01*
X1111450Y1038637D01*
X1111470Y1038633D01*
X1111490Y1038635D01*
X1111550Y1038631D01*
X1124666Y1038631D01*
X1124526Y1037750D01*
X1123869Y1035726D01*
X1123865Y1035707D01*
X1123857Y1035688D01*
X1123835Y1035551D01*
X1123809Y1035414D01*
X1123810Y1035394D01*
X1123807Y1035374D01*
X1123820Y1035235D01*
X1123829Y1035097D01*
X1123835Y1035078D01*
X1123837Y1035058D01*
X1123884Y1034926D01*
X1123927Y1034794D01*
X1123938Y1034777D01*
X1123945Y1034758D01*
X1124023Y1034643D01*
X1124097Y1034525D01*
X1124112Y1034512D01*
X1124123Y1034495D01*
X1124228Y1034403D01*
X1124329Y1034308D01*
X1124347Y1034298D01*
X1124362Y1034285D01*
X1124486Y1034221D01*
X1124608Y1034154D01*
X1124627Y1034149D01*
X1124645Y1034140D01*
X1124781Y1034110D01*
X1124916Y1034075D01*
X1124936Y1034075D01*
X1124955Y1034071D01*
X1125094Y1034075D01*
X1125234Y1034075D01*
X1125253Y1034080D01*
X1125273Y1034080D01*
X1125407Y1034119D01*
X1125542Y1034154D01*
X1125559Y1034163D01*
X1125578Y1034169D01*
X1125698Y1034239D01*
X1125821Y1034306D01*
X1125835Y1034320D01*
X1125852Y1034330D01*
X1125973Y1034437D01*
X1130303Y1038766D01*
X1130363Y1038844D01*
X1130431Y1038916D01*
X1130460Y1038969D01*
X1130497Y1039017D01*
X1130537Y1039108D01*
X1130585Y1039195D01*
X1130600Y1039253D01*
X1130624Y1039309D01*
X1130639Y1039407D01*
X1130664Y1039503D01*
X1130670Y1039603D01*
X1130674Y1039623D01*
X1130672Y1039635D01*
X1130674Y1039663D01*
X1130674Y1054287D01*
X1132163Y1055776D01*
X1158397Y1055776D01*
X1159886Y1054287D01*
X1159886Y1039663D01*
X1159898Y1039565D01*
X1159901Y1039466D01*
X1159918Y1039408D01*
X1159926Y1039348D01*
X1159962Y1039256D01*
X1159990Y1039161D01*
X1160020Y1039109D01*
X1160043Y1039052D01*
X1160101Y1038972D01*
X1160151Y1038887D01*
X1160217Y1038811D01*
X1160229Y1038795D01*
X1160239Y1038787D01*
X1160257Y1038766D01*
X1186461Y1012562D01*
X1186539Y1012502D01*
X1186611Y1012434D01*
X1186664Y1012405D01*
X1186712Y1012368D01*
X1186803Y1012328D01*
X1186890Y1012280D01*
X1186948Y1012265D01*
X1187004Y1012241D01*
X1187102Y1012226D01*
X1187198Y1012201D01*
X1187298Y1012195D01*
X1187318Y1012191D01*
X1187330Y1012193D01*
X1187358Y1012191D01*
X1319102Y1012191D01*
X1319200Y1012203D01*
X1319299Y1012206D01*
X1319357Y1012223D01*
X1319417Y1012231D01*
X1319509Y1012267D01*
X1319604Y1012295D01*
X1319656Y1012325D01*
X1319713Y1012348D01*
X1319793Y1012406D01*
X1319878Y1012456D01*
X1319954Y1012522D01*
X1319970Y1012534D01*
X1319978Y1012544D01*
X1319999Y1012562D01*
X1332913Y1025477D01*
X1332926Y1025493D01*
X1332941Y1025505D01*
X1333023Y1025618D01*
X1333108Y1025728D01*
X1333116Y1025746D01*
X1333128Y1025762D01*
X1333179Y1025892D01*
X1333235Y1026020D01*
X1333238Y1026040D01*
X1333245Y1026058D01*
X1333263Y1026196D01*
X1333285Y1026334D01*
X1333283Y1026354D01*
X1333285Y1026374D01*
X1333268Y1026511D01*
X1333255Y1026651D01*
X1333248Y1026669D01*
X1333245Y1026689D01*
X1333194Y1026818D01*
X1333147Y1026950D01*
X1333136Y1026966D01*
X1333129Y1026985D01*
X1333047Y1027098D01*
X1332969Y1027213D01*
X1332954Y1027226D01*
X1332942Y1027242D01*
X1332834Y1027332D01*
X1332730Y1027424D01*
X1332712Y1027433D01*
X1332697Y1027445D01*
X1332571Y1027505D01*
X1332447Y1027568D01*
X1332427Y1027572D01*
X1332409Y1027581D01*
X1332272Y1027607D01*
X1332137Y1027638D01*
X1332117Y1027637D01*
X1332097Y1027641D01*
X1331958Y1027632D01*
X1331819Y1027628D01*
X1331799Y1027623D01*
X1331780Y1027621D01*
X1331624Y1027581D01*
X1329600Y1026924D01*
X1328719Y1026784D01*
X1328719Y1038631D01*
X1340566Y1038631D01*
X1340426Y1037750D01*
X1339769Y1035726D01*
X1339765Y1035707D01*
X1339757Y1035688D01*
X1339735Y1035551D01*
X1339709Y1035414D01*
X1339710Y1035394D01*
X1339707Y1035374D01*
X1339720Y1035235D01*
X1339729Y1035097D01*
X1339735Y1035078D01*
X1339737Y1035058D01*
X1339784Y1034926D01*
X1339827Y1034794D01*
X1339838Y1034777D01*
X1339845Y1034758D01*
X1339923Y1034643D01*
X1339997Y1034525D01*
X1340012Y1034512D01*
X1340023Y1034495D01*
X1340128Y1034403D01*
X1340229Y1034308D01*
X1340247Y1034298D01*
X1340262Y1034285D01*
X1340386Y1034221D01*
X1340508Y1034154D01*
X1340527Y1034149D01*
X1340545Y1034140D01*
X1340681Y1034110D01*
X1340816Y1034075D01*
X1340836Y1034075D01*
X1340855Y1034071D01*
X1340994Y1034075D01*
X1341134Y1034075D01*
X1341153Y1034080D01*
X1341173Y1034080D01*
X1341307Y1034119D01*
X1341442Y1034154D01*
X1341459Y1034163D01*
X1341478Y1034169D01*
X1341599Y1034239D01*
X1341721Y1034306D01*
X1341735Y1034320D01*
X1341752Y1034330D01*
X1341873Y1034437D01*
X1346203Y1038766D01*
X1346263Y1038844D01*
X1346331Y1038916D01*
X1346360Y1038969D01*
X1346397Y1039017D01*
X1346437Y1039108D01*
X1346485Y1039195D01*
X1346500Y1039253D01*
X1346524Y1039309D01*
X1346539Y1039407D01*
X1346564Y1039503D01*
X1346570Y1039603D01*
X1346574Y1039623D01*
X1346572Y1039635D01*
X1346574Y1039663D01*
X1346574Y1054287D01*
X1348063Y1055776D01*
X1374297Y1055776D01*
X1375786Y1054287D01*
X1375786Y1028053D01*
X1374297Y1026564D01*
X1359673Y1026564D01*
X1359575Y1026552D01*
X1359476Y1026549D01*
X1359418Y1026532D01*
X1359358Y1026524D01*
X1359266Y1026488D01*
X1359171Y1026460D01*
X1359118Y1026430D01*
X1359062Y1026407D01*
X1358982Y1026349D01*
X1358897Y1026299D01*
X1358821Y1026233D01*
X1358805Y1026221D01*
X1358797Y1026211D01*
X1358776Y1026193D01*
X1331026Y998442D01*
X1328346Y995763D01*
X1325079Y994409D01*
X1181381Y994409D01*
X1178114Y995763D01*
X1147684Y1026193D01*
X1147606Y1026253D01*
X1147534Y1026321D01*
X1147481Y1026350D01*
X1147433Y1026387D01*
X1147342Y1026427D01*
X1147255Y1026475D01*
X1147197Y1026490D01*
X1147141Y1026514D01*
X1147043Y1026529D01*
X1146947Y1026554D01*
X1146847Y1026560D01*
X1146827Y1026564D01*
X1146815Y1026562D01*
X1146787Y1026564D01*
X1143773Y1026564D01*
X1143675Y1026552D01*
X1143576Y1026549D01*
X1143518Y1026532D01*
X1143458Y1026524D01*
X1143366Y1026488D01*
X1143271Y1026460D01*
X1143219Y1026430D01*
X1143162Y1026407D01*
X1143082Y1026349D01*
X1142997Y1026299D01*
X1142921Y1026233D01*
X1142905Y1026221D01*
X1142897Y1026211D01*
X1142876Y1026193D01*
X1125146Y1008463D01*
X1121879Y1007109D01*
X952781Y1007109D01*
X949514Y1008463D01*
X946834Y1011142D01*
X931784Y1026193D01*
X931706Y1026253D01*
X931634Y1026321D01*
X931581Y1026350D01*
X931533Y1026387D01*
X931442Y1026427D01*
X931355Y1026475D01*
X931297Y1026490D01*
X931241Y1026514D01*
X931143Y1026529D01*
X931047Y1026554D01*
X930947Y1026560D01*
X930927Y1026564D01*
X930915Y1026562D01*
X930887Y1026564D01*
X927873Y1026564D01*
X927775Y1026552D01*
X927676Y1026549D01*
X927618Y1026532D01*
X927558Y1026524D01*
X927466Y1026488D01*
X927371Y1026460D01*
X927319Y1026430D01*
X927262Y1026407D01*
X927182Y1026349D01*
X927097Y1026299D01*
X927021Y1026233D01*
X927005Y1026221D01*
X926997Y1026211D01*
X926976Y1026193D01*
X911926Y1011142D01*
X909246Y1008463D01*
X905979Y1007109D01*
X660681Y1007109D01*
X657414Y1008463D01*
X654734Y1011142D01*
X639684Y1026193D01*
X639606Y1026253D01*
X639534Y1026321D01*
X639481Y1026350D01*
X639433Y1026387D01*
X639342Y1026427D01*
X639255Y1026475D01*
X639197Y1026490D01*
X639141Y1026514D01*
X639043Y1026529D01*
X638947Y1026554D01*
X638847Y1026560D01*
X638827Y1026564D01*
X638815Y1026562D01*
X638787Y1026564D01*
X635773Y1026564D01*
X635675Y1026552D01*
X635576Y1026549D01*
X635518Y1026532D01*
X635458Y1026524D01*
X635366Y1026488D01*
X635271Y1026460D01*
X635218Y1026430D01*
X635162Y1026407D01*
X635082Y1026349D01*
X634997Y1026299D01*
X634921Y1026233D01*
X634905Y1026221D01*
X634897Y1026211D01*
X634876Y1026193D01*
X607126Y998442D01*
X604446Y995763D01*
X601179Y994409D01*
X591459Y994409D01*
X591390Y994401D01*
X591320Y994402D01*
X591233Y994381D01*
X591144Y994369D01*
X591079Y994344D01*
X591011Y994327D01*
X590932Y994285D01*
X590848Y994252D01*
X590792Y994211D01*
X590730Y994179D01*
X590663Y994118D01*
X590591Y994066D01*
X590546Y994012D01*
X590495Y993965D01*
X590445Y993890D01*
X590388Y993821D01*
X590358Y993757D01*
X590320Y993699D01*
X590291Y993614D01*
X590252Y993533D01*
X590239Y993464D01*
X590217Y993398D01*
X590209Y993309D01*
X590193Y993221D01*
X590197Y993151D01*
X590191Y993081D01*
X590207Y992993D01*
X590212Y992903D01*
X590234Y992837D01*
X590246Y992768D01*
X590283Y992686D01*
X590310Y992601D01*
X590348Y992542D01*
X590376Y992478D01*
X590432Y992408D01*
X590481Y992332D01*
X590531Y992284D01*
X590575Y992230D01*
X590647Y992175D01*
X590712Y992114D01*
X590773Y992080D01*
X590829Y992038D01*
X590974Y991967D01*
X593021Y991119D01*
X640599Y943541D01*
X641605Y941114D01*
X641605Y887182D01*
X641617Y887083D01*
X641620Y886984D01*
X641637Y886926D01*
X641645Y886866D01*
X641681Y886774D01*
X641709Y886679D01*
X641739Y886627D01*
X641762Y886570D01*
X641820Y886490D01*
X641870Y886405D01*
X641936Y886329D01*
X641948Y886313D01*
X641958Y886305D01*
X641976Y886284D01*
X665304Y862956D01*
X665382Y862896D01*
X665454Y862828D01*
X665507Y862799D01*
X665555Y862762D01*
X665646Y862722D01*
X665733Y862674D01*
X665791Y862659D01*
X665847Y862635D01*
X665945Y862620D01*
X666041Y862595D01*
X666141Y862589D01*
X666161Y862585D01*
X666174Y862587D01*
X666202Y862585D01*
X679494Y862585D01*
X681921Y861579D01*
X683779Y859721D01*
X684785Y857294D01*
X684785Y854666D01*
X683779Y852239D01*
X681921Y850381D01*
X679494Y849375D01*
X661626Y849375D01*
G37*
%LPD*%
%LPC*%
G36*
X680855Y496061D02*
X680855Y496061D01*
X673861Y503055D01*
X673861Y512945D01*
X680719Y519803D01*
X680792Y519897D01*
X680870Y519986D01*
X680889Y520022D01*
X680914Y520054D01*
X680961Y520163D01*
X681015Y520269D01*
X681024Y520308D01*
X681040Y520346D01*
X681059Y520463D01*
X681085Y520579D01*
X681083Y520620D01*
X681090Y520660D01*
X681079Y520778D01*
X681075Y520897D01*
X681064Y520936D01*
X681060Y520976D01*
X681020Y521089D01*
X680987Y521203D01*
X680966Y521238D01*
X680952Y521276D01*
X680885Y521374D01*
X680825Y521477D01*
X680785Y521522D01*
X680774Y521539D01*
X680758Y521552D01*
X680719Y521598D01*
X673861Y528455D01*
X673861Y538345D01*
X680719Y545203D01*
X680792Y545297D01*
X680870Y545386D01*
X680889Y545422D01*
X680914Y545454D01*
X680961Y545563D01*
X681015Y545669D01*
X681024Y545708D01*
X681040Y545746D01*
X681059Y545863D01*
X681085Y545979D01*
X681083Y546020D01*
X681090Y546060D01*
X681079Y546178D01*
X681075Y546297D01*
X681064Y546336D01*
X681060Y546376D01*
X681020Y546489D01*
X680987Y546603D01*
X680966Y546638D01*
X680952Y546676D01*
X680885Y546774D01*
X680825Y546877D01*
X680785Y546922D01*
X680774Y546939D01*
X680758Y546952D01*
X680719Y546998D01*
X673861Y553855D01*
X673861Y563745D01*
X680719Y570603D01*
X680792Y570697D01*
X680870Y570786D01*
X680889Y570822D01*
X680914Y570854D01*
X680961Y570963D01*
X681015Y571069D01*
X681024Y571108D01*
X681040Y571146D01*
X681059Y571263D01*
X681085Y571379D01*
X681083Y571420D01*
X681090Y571460D01*
X681079Y571578D01*
X681075Y571697D01*
X681064Y571736D01*
X681060Y571776D01*
X681020Y571889D01*
X680987Y572003D01*
X680966Y572038D01*
X680952Y572076D01*
X680885Y572174D01*
X680825Y572277D01*
X680785Y572322D01*
X680774Y572339D01*
X680758Y572352D01*
X680719Y572398D01*
X673861Y579255D01*
X673861Y589145D01*
X680855Y596139D01*
X690745Y596139D01*
X697603Y589281D01*
X697697Y589208D01*
X697786Y589130D01*
X697822Y589111D01*
X697854Y589086D01*
X697963Y589039D01*
X698069Y588985D01*
X698108Y588976D01*
X698146Y588960D01*
X698263Y588941D01*
X698379Y588915D01*
X698420Y588917D01*
X698460Y588910D01*
X698578Y588921D01*
X698697Y588925D01*
X698736Y588936D01*
X698776Y588940D01*
X698889Y588980D01*
X699003Y589013D01*
X699038Y589034D01*
X699076Y589048D01*
X699174Y589115D01*
X699277Y589175D01*
X699322Y589215D01*
X699339Y589226D01*
X699352Y589242D01*
X699398Y589281D01*
X706255Y596139D01*
X716145Y596139D01*
X723003Y589281D01*
X723097Y589208D01*
X723186Y589130D01*
X723222Y589111D01*
X723254Y589086D01*
X723363Y589039D01*
X723469Y588985D01*
X723508Y588976D01*
X723546Y588960D01*
X723663Y588941D01*
X723779Y588915D01*
X723820Y588917D01*
X723860Y588910D01*
X723978Y588921D01*
X724097Y588925D01*
X724136Y588936D01*
X724176Y588940D01*
X724289Y588980D01*
X724403Y589013D01*
X724438Y589034D01*
X724476Y589048D01*
X724574Y589115D01*
X724677Y589175D01*
X724722Y589215D01*
X724739Y589226D01*
X724752Y589242D01*
X724798Y589281D01*
X731655Y596139D01*
X741545Y596139D01*
X748403Y589281D01*
X748497Y589208D01*
X748586Y589130D01*
X748622Y589111D01*
X748654Y589086D01*
X748763Y589039D01*
X748869Y588985D01*
X748908Y588976D01*
X748946Y588960D01*
X749063Y588941D01*
X749179Y588915D01*
X749220Y588917D01*
X749260Y588910D01*
X749378Y588921D01*
X749497Y588925D01*
X749536Y588936D01*
X749576Y588940D01*
X749689Y588980D01*
X749803Y589013D01*
X749838Y589034D01*
X749876Y589048D01*
X749974Y589115D01*
X750077Y589175D01*
X750122Y589215D01*
X750139Y589226D01*
X750152Y589242D01*
X750198Y589281D01*
X757055Y596139D01*
X766945Y596139D01*
X773803Y589281D01*
X773897Y589208D01*
X773986Y589130D01*
X774022Y589111D01*
X774054Y589086D01*
X774163Y589039D01*
X774269Y588985D01*
X774308Y588976D01*
X774346Y588960D01*
X774463Y588941D01*
X774579Y588915D01*
X774620Y588917D01*
X774660Y588910D01*
X774778Y588921D01*
X774897Y588925D01*
X774936Y588936D01*
X774976Y588940D01*
X775089Y588980D01*
X775203Y589013D01*
X775238Y589034D01*
X775276Y589048D01*
X775374Y589115D01*
X775477Y589175D01*
X775522Y589215D01*
X775539Y589226D01*
X775552Y589242D01*
X775598Y589281D01*
X782455Y596139D01*
X792345Y596139D01*
X799202Y589281D01*
X799297Y589208D01*
X799386Y589130D01*
X799422Y589111D01*
X799454Y589086D01*
X799563Y589039D01*
X799669Y588985D01*
X799708Y588976D01*
X799746Y588960D01*
X799863Y588941D01*
X799979Y588915D01*
X800020Y588917D01*
X800060Y588910D01*
X800178Y588921D01*
X800297Y588925D01*
X800336Y588936D01*
X800376Y588940D01*
X800489Y588980D01*
X800603Y589013D01*
X800637Y589034D01*
X800676Y589048D01*
X800774Y589115D01*
X800877Y589175D01*
X800922Y589215D01*
X800939Y589226D01*
X800952Y589242D01*
X800997Y589281D01*
X807855Y596139D01*
X817745Y596139D01*
X824603Y589281D01*
X824697Y589208D01*
X824786Y589130D01*
X824822Y589111D01*
X824854Y589086D01*
X824963Y589039D01*
X825069Y588985D01*
X825108Y588976D01*
X825146Y588960D01*
X825263Y588941D01*
X825379Y588915D01*
X825420Y588917D01*
X825460Y588910D01*
X825578Y588921D01*
X825697Y588925D01*
X825736Y588936D01*
X825776Y588940D01*
X825889Y588980D01*
X826003Y589013D01*
X826038Y589034D01*
X826076Y589048D01*
X826174Y589115D01*
X826277Y589175D01*
X826322Y589215D01*
X826339Y589226D01*
X826352Y589242D01*
X826398Y589281D01*
X833255Y596139D01*
X843145Y596139D01*
X850003Y589281D01*
X850097Y589208D01*
X850186Y589130D01*
X850222Y589111D01*
X850254Y589086D01*
X850363Y589039D01*
X850469Y588985D01*
X850508Y588976D01*
X850546Y588960D01*
X850663Y588941D01*
X850779Y588915D01*
X850820Y588917D01*
X850860Y588910D01*
X850978Y588921D01*
X851097Y588925D01*
X851136Y588936D01*
X851176Y588940D01*
X851289Y588980D01*
X851403Y589013D01*
X851438Y589034D01*
X851476Y589048D01*
X851574Y589115D01*
X851677Y589175D01*
X851722Y589215D01*
X851739Y589226D01*
X851752Y589242D01*
X851798Y589281D01*
X858655Y596139D01*
X868545Y596139D01*
X875403Y589281D01*
X875497Y589208D01*
X875586Y589130D01*
X875622Y589111D01*
X875654Y589086D01*
X875763Y589039D01*
X875869Y588985D01*
X875908Y588976D01*
X875946Y588960D01*
X876063Y588941D01*
X876179Y588915D01*
X876220Y588917D01*
X876260Y588910D01*
X876378Y588921D01*
X876497Y588925D01*
X876536Y588936D01*
X876576Y588940D01*
X876689Y588980D01*
X876803Y589013D01*
X876838Y589034D01*
X876876Y589048D01*
X876974Y589115D01*
X877077Y589175D01*
X877122Y589215D01*
X877139Y589226D01*
X877152Y589242D01*
X877198Y589281D01*
X884055Y596139D01*
X893945Y596139D01*
X900803Y589281D01*
X900897Y589208D01*
X900986Y589130D01*
X901022Y589111D01*
X901054Y589086D01*
X901163Y589039D01*
X901269Y588985D01*
X901308Y588976D01*
X901346Y588960D01*
X901463Y588941D01*
X901579Y588915D01*
X901620Y588917D01*
X901660Y588910D01*
X901778Y588921D01*
X901897Y588925D01*
X901936Y588936D01*
X901976Y588940D01*
X902089Y588980D01*
X902203Y589013D01*
X902238Y589034D01*
X902276Y589048D01*
X902374Y589115D01*
X902477Y589175D01*
X902522Y589215D01*
X902539Y589226D01*
X902552Y589242D01*
X902598Y589281D01*
X909455Y596139D01*
X919345Y596139D01*
X926203Y589281D01*
X926297Y589208D01*
X926386Y589130D01*
X926422Y589111D01*
X926454Y589086D01*
X926563Y589039D01*
X926669Y588985D01*
X926708Y588976D01*
X926746Y588960D01*
X926863Y588941D01*
X926979Y588915D01*
X927020Y588917D01*
X927060Y588910D01*
X927178Y588921D01*
X927297Y588925D01*
X927336Y588936D01*
X927376Y588940D01*
X927489Y588980D01*
X927603Y589013D01*
X927638Y589034D01*
X927676Y589048D01*
X927774Y589115D01*
X927877Y589175D01*
X927922Y589215D01*
X927939Y589226D01*
X927952Y589242D01*
X927998Y589281D01*
X934855Y596139D01*
X944745Y596139D01*
X951603Y589281D01*
X951697Y589208D01*
X951786Y589130D01*
X951822Y589111D01*
X951854Y589086D01*
X951963Y589039D01*
X952069Y588985D01*
X952108Y588976D01*
X952146Y588960D01*
X952263Y588941D01*
X952379Y588915D01*
X952420Y588917D01*
X952460Y588910D01*
X952578Y588921D01*
X952697Y588925D01*
X952736Y588936D01*
X952776Y588940D01*
X952889Y588980D01*
X953003Y589013D01*
X953038Y589034D01*
X953076Y589048D01*
X953174Y589115D01*
X953277Y589175D01*
X953322Y589215D01*
X953339Y589226D01*
X953352Y589242D01*
X953398Y589281D01*
X960255Y596139D01*
X970145Y596139D01*
X977139Y589145D01*
X977139Y579255D01*
X970281Y572398D01*
X970208Y572303D01*
X970130Y572214D01*
X970111Y572178D01*
X970086Y572146D01*
X970039Y572037D01*
X969985Y571931D01*
X969976Y571892D01*
X969960Y571854D01*
X969941Y571737D01*
X969915Y571621D01*
X969917Y571580D01*
X969910Y571540D01*
X969921Y571422D01*
X969925Y571303D01*
X969936Y571264D01*
X969940Y571224D01*
X969980Y571111D01*
X970013Y570997D01*
X970034Y570963D01*
X970048Y570924D01*
X970115Y570826D01*
X970175Y570723D01*
X970215Y570678D01*
X970226Y570661D01*
X970242Y570648D01*
X970281Y570603D01*
X977139Y563745D01*
X977139Y553855D01*
X970281Y546998D01*
X970208Y546903D01*
X970130Y546814D01*
X970111Y546778D01*
X970086Y546746D01*
X970039Y546637D01*
X969985Y546531D01*
X969976Y546492D01*
X969960Y546454D01*
X969941Y546337D01*
X969915Y546221D01*
X969917Y546180D01*
X969910Y546140D01*
X969921Y546022D01*
X969925Y545903D01*
X969936Y545864D01*
X969940Y545824D01*
X969980Y545711D01*
X970013Y545597D01*
X970034Y545563D01*
X970048Y545524D01*
X970115Y545426D01*
X970175Y545323D01*
X970215Y545278D01*
X970226Y545261D01*
X970242Y545248D01*
X970281Y545203D01*
X977139Y538345D01*
X977139Y528455D01*
X970281Y521597D01*
X970208Y521503D01*
X970130Y521414D01*
X970111Y521378D01*
X970086Y521346D01*
X970039Y521237D01*
X969985Y521131D01*
X969976Y521092D01*
X969960Y521054D01*
X969941Y520937D01*
X969915Y520821D01*
X969917Y520780D01*
X969910Y520740D01*
X969921Y520622D01*
X969925Y520503D01*
X969936Y520464D01*
X969940Y520424D01*
X969980Y520311D01*
X970013Y520197D01*
X970034Y520162D01*
X970048Y520124D01*
X970115Y520026D01*
X970175Y519923D01*
X970215Y519878D01*
X970226Y519861D01*
X970242Y519848D01*
X970281Y519802D01*
X977139Y512945D01*
X977139Y503055D01*
X970145Y496061D01*
X960255Y496061D01*
X953398Y502919D01*
X953303Y502992D01*
X953214Y503070D01*
X953178Y503089D01*
X953146Y503114D01*
X953037Y503161D01*
X952931Y503215D01*
X952892Y503224D01*
X952854Y503240D01*
X952737Y503259D01*
X952621Y503285D01*
X952580Y503283D01*
X952540Y503290D01*
X952422Y503279D01*
X952303Y503275D01*
X952264Y503264D01*
X952224Y503260D01*
X952111Y503220D01*
X951997Y503187D01*
X951963Y503166D01*
X951924Y503152D01*
X951826Y503085D01*
X951723Y503025D01*
X951678Y502985D01*
X951661Y502974D01*
X951648Y502958D01*
X951603Y502919D01*
X944745Y496061D01*
X934855Y496061D01*
X927998Y502919D01*
X927903Y502992D01*
X927814Y503070D01*
X927778Y503089D01*
X927746Y503114D01*
X927637Y503161D01*
X927531Y503215D01*
X927492Y503224D01*
X927454Y503240D01*
X927337Y503259D01*
X927221Y503285D01*
X927180Y503283D01*
X927140Y503290D01*
X927022Y503279D01*
X926903Y503275D01*
X926864Y503264D01*
X926824Y503260D01*
X926711Y503220D01*
X926597Y503187D01*
X926563Y503166D01*
X926524Y503152D01*
X926426Y503085D01*
X926323Y503025D01*
X926278Y502985D01*
X926261Y502974D01*
X926248Y502958D01*
X926203Y502919D01*
X919345Y496061D01*
X909455Y496061D01*
X902598Y502919D01*
X902503Y502992D01*
X902414Y503070D01*
X902378Y503089D01*
X902346Y503114D01*
X902237Y503161D01*
X902131Y503215D01*
X902092Y503224D01*
X902054Y503240D01*
X901937Y503259D01*
X901821Y503285D01*
X901780Y503283D01*
X901740Y503290D01*
X901622Y503279D01*
X901503Y503275D01*
X901464Y503264D01*
X901424Y503260D01*
X901311Y503220D01*
X901197Y503187D01*
X901163Y503166D01*
X901124Y503152D01*
X901026Y503085D01*
X900923Y503025D01*
X900878Y502985D01*
X900861Y502974D01*
X900848Y502958D01*
X900803Y502919D01*
X893945Y496061D01*
X884055Y496061D01*
X877198Y502919D01*
X877103Y502992D01*
X877014Y503070D01*
X876978Y503089D01*
X876946Y503114D01*
X876837Y503161D01*
X876731Y503215D01*
X876692Y503224D01*
X876654Y503240D01*
X876537Y503259D01*
X876421Y503285D01*
X876380Y503283D01*
X876340Y503290D01*
X876222Y503279D01*
X876103Y503275D01*
X876064Y503264D01*
X876024Y503260D01*
X875911Y503220D01*
X875797Y503187D01*
X875763Y503166D01*
X875724Y503152D01*
X875626Y503085D01*
X875523Y503025D01*
X875478Y502985D01*
X875461Y502974D01*
X875448Y502958D01*
X875403Y502919D01*
X868545Y496061D01*
X858655Y496061D01*
X851798Y502919D01*
X851703Y502992D01*
X851614Y503070D01*
X851578Y503089D01*
X851546Y503114D01*
X851437Y503161D01*
X851331Y503215D01*
X851292Y503224D01*
X851254Y503240D01*
X851137Y503259D01*
X851021Y503285D01*
X850980Y503283D01*
X850940Y503290D01*
X850822Y503279D01*
X850703Y503275D01*
X850664Y503264D01*
X850624Y503260D01*
X850511Y503220D01*
X850397Y503187D01*
X850363Y503166D01*
X850324Y503152D01*
X850226Y503085D01*
X850123Y503025D01*
X850078Y502985D01*
X850061Y502974D01*
X850048Y502958D01*
X850003Y502919D01*
X843145Y496061D01*
X833255Y496061D01*
X826398Y502919D01*
X826303Y502992D01*
X826214Y503070D01*
X826178Y503089D01*
X826146Y503114D01*
X826037Y503161D01*
X825931Y503215D01*
X825892Y503224D01*
X825854Y503240D01*
X825737Y503259D01*
X825621Y503285D01*
X825580Y503283D01*
X825540Y503290D01*
X825422Y503279D01*
X825303Y503275D01*
X825264Y503264D01*
X825224Y503260D01*
X825111Y503220D01*
X824997Y503187D01*
X824963Y503166D01*
X824924Y503152D01*
X824826Y503085D01*
X824723Y503025D01*
X824678Y502985D01*
X824661Y502974D01*
X824648Y502958D01*
X824603Y502919D01*
X817745Y496061D01*
X807855Y496061D01*
X800998Y502919D01*
X800903Y502992D01*
X800814Y503070D01*
X800778Y503089D01*
X800746Y503114D01*
X800637Y503161D01*
X800531Y503215D01*
X800492Y503224D01*
X800454Y503240D01*
X800337Y503259D01*
X800221Y503285D01*
X800180Y503283D01*
X800140Y503290D01*
X800022Y503279D01*
X799903Y503275D01*
X799864Y503264D01*
X799824Y503260D01*
X799711Y503220D01*
X799597Y503187D01*
X799563Y503166D01*
X799524Y503152D01*
X799426Y503085D01*
X799323Y503025D01*
X799278Y502985D01*
X799261Y502974D01*
X799248Y502958D01*
X799203Y502919D01*
X792345Y496061D01*
X782455Y496061D01*
X775598Y502919D01*
X775503Y502992D01*
X775414Y503070D01*
X775378Y503089D01*
X775346Y503114D01*
X775237Y503161D01*
X775131Y503215D01*
X775092Y503224D01*
X775054Y503240D01*
X774937Y503259D01*
X774821Y503285D01*
X774780Y503283D01*
X774740Y503290D01*
X774622Y503279D01*
X774503Y503275D01*
X774464Y503264D01*
X774424Y503260D01*
X774311Y503220D01*
X774197Y503187D01*
X774163Y503166D01*
X774124Y503152D01*
X774026Y503085D01*
X773923Y503025D01*
X773878Y502985D01*
X773861Y502974D01*
X773848Y502958D01*
X773803Y502919D01*
X766945Y496061D01*
X757055Y496061D01*
X750198Y502919D01*
X750103Y502992D01*
X750014Y503070D01*
X749978Y503089D01*
X749946Y503114D01*
X749837Y503161D01*
X749731Y503215D01*
X749692Y503224D01*
X749654Y503240D01*
X749537Y503259D01*
X749421Y503285D01*
X749380Y503283D01*
X749340Y503290D01*
X749222Y503279D01*
X749103Y503275D01*
X749064Y503264D01*
X749024Y503260D01*
X748911Y503220D01*
X748797Y503187D01*
X748763Y503166D01*
X748724Y503152D01*
X748626Y503085D01*
X748523Y503025D01*
X748478Y502985D01*
X748461Y502974D01*
X748448Y502958D01*
X748403Y502919D01*
X741545Y496061D01*
X731655Y496061D01*
X724798Y502919D01*
X724703Y502992D01*
X724614Y503070D01*
X724578Y503089D01*
X724546Y503114D01*
X724437Y503161D01*
X724331Y503215D01*
X724292Y503224D01*
X724254Y503240D01*
X724137Y503259D01*
X724021Y503285D01*
X723980Y503283D01*
X723940Y503290D01*
X723822Y503279D01*
X723703Y503275D01*
X723664Y503264D01*
X723624Y503260D01*
X723511Y503220D01*
X723397Y503187D01*
X723363Y503166D01*
X723324Y503152D01*
X723226Y503085D01*
X723123Y503025D01*
X723078Y502985D01*
X723061Y502974D01*
X723048Y502958D01*
X723003Y502919D01*
X716145Y496061D01*
X706255Y496061D01*
X699398Y502919D01*
X699303Y502992D01*
X699214Y503070D01*
X699178Y503089D01*
X699146Y503114D01*
X699037Y503161D01*
X698931Y503215D01*
X698892Y503224D01*
X698854Y503240D01*
X698737Y503259D01*
X698621Y503285D01*
X698580Y503283D01*
X698540Y503290D01*
X698422Y503279D01*
X698303Y503275D01*
X698264Y503264D01*
X698224Y503260D01*
X698111Y503220D01*
X697997Y503187D01*
X697963Y503166D01*
X697924Y503152D01*
X697826Y503085D01*
X697723Y503025D01*
X697678Y502985D01*
X697661Y502974D01*
X697648Y502958D01*
X697603Y502919D01*
X690745Y496061D01*
X680855Y496061D01*
G37*
%LPD*%
%LPC*%
G36*
X1169626Y849375D02*
X1169626Y849375D01*
X1167199Y850381D01*
X1137401Y880179D01*
X1136395Y882606D01*
X1136395Y931926D01*
X1136380Y932044D01*
X1136373Y932163D01*
X1136360Y932201D01*
X1136355Y932242D01*
X1136312Y932352D01*
X1136275Y932465D01*
X1136253Y932500D01*
X1136238Y932537D01*
X1136169Y932633D01*
X1136105Y932734D01*
X1136075Y932762D01*
X1136052Y932795D01*
X1135960Y932871D01*
X1135873Y932952D01*
X1135838Y932972D01*
X1135807Y932997D01*
X1135699Y933048D01*
X1135595Y933106D01*
X1135555Y933116D01*
X1135519Y933133D01*
X1135402Y933155D01*
X1135287Y933185D01*
X1135227Y933189D01*
X1135207Y933193D01*
X1135186Y933191D01*
X1135126Y933195D01*
X1017226Y933195D01*
X1014799Y934201D01*
X962836Y986164D01*
X962758Y986224D01*
X962686Y986292D01*
X962633Y986321D01*
X962585Y986358D01*
X962494Y986398D01*
X962407Y986446D01*
X962349Y986461D01*
X962293Y986485D01*
X962195Y986500D01*
X962099Y986525D01*
X961999Y986531D01*
X961979Y986535D01*
X961966Y986533D01*
X961938Y986535D01*
X910546Y986535D01*
X908119Y987541D01*
X906956Y988704D01*
X906878Y988764D01*
X906806Y988832D01*
X906753Y988861D01*
X906705Y988898D01*
X906614Y988938D01*
X906527Y988986D01*
X906469Y989001D01*
X906413Y989025D01*
X906315Y989040D01*
X906219Y989065D01*
X906119Y989071D01*
X906099Y989075D01*
X906086Y989073D01*
X906058Y989075D01*
X706842Y989075D01*
X706743Y989063D01*
X706644Y989060D01*
X706586Y989043D01*
X706526Y989035D01*
X706434Y988999D01*
X706339Y988971D01*
X706287Y988941D01*
X706230Y988918D01*
X706150Y988860D01*
X706065Y988810D01*
X705989Y988744D01*
X705973Y988732D01*
X705965Y988722D01*
X705944Y988704D01*
X694621Y977381D01*
X692194Y976375D01*
X689566Y976375D01*
X687139Y977381D01*
X685281Y979239D01*
X684275Y981666D01*
X684275Y984294D01*
X685281Y986721D01*
X699839Y1001279D01*
X702266Y1002285D01*
X910634Y1002285D01*
X913061Y1001279D01*
X914224Y1000116D01*
X914302Y1000056D01*
X914374Y999988D01*
X914427Y999959D01*
X914475Y999922D01*
X914566Y999882D01*
X914653Y999834D01*
X914711Y999819D01*
X914767Y999795D01*
X914865Y999780D01*
X914961Y999755D01*
X915061Y999749D01*
X915081Y999745D01*
X915094Y999747D01*
X915122Y999745D01*
X966514Y999745D01*
X968941Y998739D01*
X1020904Y946776D01*
X1020982Y946716D01*
X1021054Y946648D01*
X1021107Y946619D01*
X1021155Y946582D01*
X1021246Y946542D01*
X1021333Y946494D01*
X1021391Y946479D01*
X1021447Y946455D01*
X1021545Y946440D01*
X1021641Y946415D01*
X1021741Y946409D01*
X1021761Y946405D01*
X1021774Y946407D01*
X1021802Y946405D01*
X1144314Y946405D01*
X1146741Y945399D01*
X1148599Y943541D01*
X1149605Y941114D01*
X1149605Y887182D01*
X1149617Y887083D01*
X1149620Y886984D01*
X1149637Y886926D01*
X1149645Y886866D01*
X1149681Y886774D01*
X1149709Y886679D01*
X1149739Y886627D01*
X1149762Y886570D01*
X1149820Y886490D01*
X1149870Y886405D01*
X1149936Y886329D01*
X1149948Y886313D01*
X1149958Y886305D01*
X1149976Y886284D01*
X1173304Y862956D01*
X1173382Y862896D01*
X1173454Y862828D01*
X1173507Y862799D01*
X1173555Y862762D01*
X1173646Y862722D01*
X1173733Y862674D01*
X1173791Y862659D01*
X1173847Y862635D01*
X1173945Y862620D01*
X1174041Y862595D01*
X1174141Y862589D01*
X1174161Y862585D01*
X1174174Y862587D01*
X1174202Y862585D01*
X1187494Y862585D01*
X1189921Y861579D01*
X1191779Y859721D01*
X1192785Y857294D01*
X1192785Y854666D01*
X1191779Y852239D01*
X1189921Y850381D01*
X1187494Y849375D01*
X1169626Y849375D01*
G37*
%LPD*%
%LPC*%
G36*
X229826Y849375D02*
X229826Y849375D01*
X227399Y850381D01*
X197601Y880179D01*
X196595Y882606D01*
X196595Y974638D01*
X196583Y974737D01*
X196580Y974836D01*
X196563Y974894D01*
X196555Y974954D01*
X196519Y975046D01*
X196491Y975141D01*
X196461Y975193D01*
X196438Y975250D01*
X196380Y975330D01*
X196330Y975415D01*
X196264Y975491D01*
X196252Y975507D01*
X196242Y975515D01*
X196224Y975536D01*
X183056Y988704D01*
X182978Y988764D01*
X182906Y988832D01*
X182853Y988861D01*
X182805Y988898D01*
X182714Y988938D01*
X182627Y988986D01*
X182569Y989001D01*
X182513Y989025D01*
X182415Y989040D01*
X182319Y989065D01*
X182219Y989071D01*
X182199Y989075D01*
X182186Y989073D01*
X182158Y989075D01*
X62186Y989075D01*
X59759Y990081D01*
X57901Y991939D01*
X56895Y994366D01*
X56895Y996994D01*
X57901Y999421D01*
X59759Y1001279D01*
X62186Y1002285D01*
X186734Y1002285D01*
X189161Y1001279D01*
X208799Y981641D01*
X209805Y979214D01*
X209805Y887182D01*
X209817Y887083D01*
X209820Y886984D01*
X209837Y886926D01*
X209845Y886866D01*
X209881Y886774D01*
X209909Y886679D01*
X209939Y886627D01*
X209962Y886570D01*
X210020Y886490D01*
X210070Y886405D01*
X210136Y886329D01*
X210148Y886313D01*
X210158Y886305D01*
X210176Y886284D01*
X233504Y862956D01*
X233582Y862896D01*
X233654Y862828D01*
X233707Y862799D01*
X233755Y862762D01*
X233846Y862722D01*
X233933Y862674D01*
X233991Y862659D01*
X234047Y862635D01*
X234145Y862620D01*
X234241Y862595D01*
X234341Y862589D01*
X234361Y862585D01*
X234374Y862587D01*
X234402Y862585D01*
X247694Y862585D01*
X250121Y861579D01*
X251979Y859721D01*
X252985Y857294D01*
X252985Y854666D01*
X251979Y852239D01*
X250121Y850381D01*
X247694Y849375D01*
X229826Y849375D01*
G37*
%LPD*%
%LPC*%
G36*
X671103Y142359D02*
X671103Y142359D01*
X667412Y143888D01*
X664588Y146712D01*
X663059Y150403D01*
X663059Y154397D01*
X664588Y158088D01*
X667412Y160912D01*
X671103Y162441D01*
X675097Y162441D01*
X675429Y162303D01*
X675457Y162296D01*
X675483Y162282D01*
X675610Y162254D01*
X675735Y162220D01*
X675765Y162219D01*
X675794Y162213D01*
X675923Y162217D01*
X676053Y162214D01*
X676082Y162221D01*
X676112Y162222D01*
X676236Y162258D01*
X676363Y162289D01*
X676389Y162302D01*
X676417Y162311D01*
X676529Y162377D01*
X676644Y162437D01*
X676665Y162457D01*
X676691Y162472D01*
X676812Y162579D01*
X744356Y230122D01*
X744416Y230201D01*
X744484Y230273D01*
X744513Y230326D01*
X744550Y230374D01*
X744590Y230465D01*
X744638Y230551D01*
X744653Y230610D01*
X744677Y230665D01*
X744692Y230763D01*
X744717Y230859D01*
X744723Y230959D01*
X744727Y230980D01*
X744725Y230992D01*
X744727Y231020D01*
X744727Y433694D01*
X747778Y436744D01*
X775769Y464736D01*
X775787Y464759D01*
X775809Y464778D01*
X775884Y464884D01*
X775964Y464987D01*
X775975Y465014D01*
X775992Y465038D01*
X776038Y465159D01*
X776090Y465279D01*
X776095Y465308D01*
X776105Y465335D01*
X776119Y465464D01*
X776140Y465593D01*
X776137Y465622D01*
X776140Y465651D01*
X776122Y465780D01*
X776110Y465909D01*
X776100Y465937D01*
X776096Y465966D01*
X776044Y466119D01*
X775461Y467525D01*
X775461Y472275D01*
X777279Y476663D01*
X780637Y480021D01*
X785025Y481839D01*
X789775Y481839D01*
X794163Y480021D01*
X797521Y476663D01*
X799339Y472275D01*
X799339Y467525D01*
X797521Y463137D01*
X794163Y459779D01*
X789775Y457961D01*
X785025Y457961D01*
X783619Y458544D01*
X783590Y458552D01*
X783564Y458565D01*
X783437Y458594D01*
X783312Y458628D01*
X783282Y458628D01*
X783254Y458635D01*
X783124Y458631D01*
X782994Y458633D01*
X782965Y458626D01*
X782936Y458625D01*
X782811Y458589D01*
X782685Y458559D01*
X782659Y458545D01*
X782630Y458537D01*
X782518Y458471D01*
X782404Y458410D01*
X782382Y458390D01*
X782356Y458375D01*
X782236Y458269D01*
X754244Y430278D01*
X754184Y430199D01*
X754116Y430127D01*
X754087Y430074D01*
X754050Y430026D01*
X754010Y429935D01*
X753962Y429849D01*
X753947Y429790D01*
X753923Y429735D01*
X753908Y429637D01*
X753883Y429541D01*
X753877Y429441D01*
X753873Y429420D01*
X753875Y429408D01*
X753873Y429380D01*
X753873Y226706D01*
X683279Y156112D01*
X683260Y156088D01*
X683238Y156069D01*
X683163Y155963D01*
X683084Y155861D01*
X683072Y155833D01*
X683055Y155809D01*
X683009Y155688D01*
X682957Y155569D01*
X682953Y155539D01*
X682942Y155512D01*
X682928Y155383D01*
X682907Y155255D01*
X682910Y155225D01*
X682907Y155196D01*
X682925Y155067D01*
X682937Y154938D01*
X682947Y154910D01*
X682951Y154881D01*
X683003Y154729D01*
X683141Y154397D01*
X683141Y150403D01*
X681612Y146712D01*
X678788Y143888D01*
X675097Y142359D01*
X671103Y142359D01*
G37*
%LPD*%
%LPC*%
G36*
X1294086Y107695D02*
X1294086Y107695D01*
X1291659Y108701D01*
X1241037Y159322D01*
X1239001Y161359D01*
X1237995Y163786D01*
X1237995Y217719D01*
X1237983Y217817D01*
X1237980Y217916D01*
X1237963Y217974D01*
X1237955Y218034D01*
X1237919Y218126D01*
X1237891Y218221D01*
X1237861Y218273D01*
X1237838Y218330D01*
X1237780Y218410D01*
X1237730Y218495D01*
X1237664Y218571D01*
X1237652Y218587D01*
X1237642Y218595D01*
X1237624Y218616D01*
X1214296Y241944D01*
X1214218Y242004D01*
X1214146Y242072D01*
X1214093Y242101D01*
X1214045Y242138D01*
X1213954Y242178D01*
X1213867Y242226D01*
X1213809Y242241D01*
X1213753Y242265D01*
X1213655Y242280D01*
X1213559Y242305D01*
X1213459Y242311D01*
X1213439Y242315D01*
X1213427Y242313D01*
X1213399Y242315D01*
X1200106Y242315D01*
X1197679Y243321D01*
X1195821Y245179D01*
X1194815Y247606D01*
X1194815Y250234D01*
X1195821Y252661D01*
X1197679Y254519D01*
X1200106Y255525D01*
X1217974Y255525D01*
X1220401Y254519D01*
X1222438Y252483D01*
X1248163Y226758D01*
X1250199Y224721D01*
X1251205Y222294D01*
X1251205Y168361D01*
X1251217Y168263D01*
X1251220Y168164D01*
X1251237Y168106D01*
X1251245Y168046D01*
X1251281Y167954D01*
X1251309Y167859D01*
X1251339Y167807D01*
X1251362Y167750D01*
X1251420Y167670D01*
X1251470Y167585D01*
X1251536Y167509D01*
X1251548Y167493D01*
X1251558Y167485D01*
X1251576Y167464D01*
X1297764Y121276D01*
X1297842Y121216D01*
X1297914Y121148D01*
X1297967Y121119D01*
X1298015Y121082D01*
X1298106Y121042D01*
X1298193Y120994D01*
X1298251Y120979D01*
X1298307Y120955D01*
X1298405Y120940D01*
X1298501Y120915D01*
X1298601Y120909D01*
X1298621Y120905D01*
X1298634Y120907D01*
X1298662Y120905D01*
X1398314Y120905D01*
X1400741Y119899D01*
X1402599Y118041D01*
X1403605Y115614D01*
X1403605Y112986D01*
X1402599Y110559D01*
X1400741Y108701D01*
X1398314Y107695D01*
X1294086Y107695D01*
G37*
%LPD*%
%LPC*%
G36*
X697388Y863091D02*
X697388Y863091D01*
X695334Y863942D01*
X693762Y865514D01*
X692911Y867568D01*
X692911Y869792D01*
X693762Y871846D01*
X708034Y886118D01*
X710088Y886969D01*
X872332Y886969D01*
X874386Y886118D01*
X881038Y879466D01*
X881889Y877412D01*
X881889Y875188D01*
X881038Y873134D01*
X879466Y871562D01*
X877412Y870711D01*
X875188Y870711D01*
X873134Y871562D01*
X869277Y875420D01*
X869199Y875480D01*
X869126Y875548D01*
X869073Y875577D01*
X869026Y875614D01*
X868935Y875654D01*
X868848Y875702D01*
X868789Y875717D01*
X868734Y875741D01*
X868636Y875756D01*
X868540Y875781D01*
X868440Y875787D01*
X868420Y875791D01*
X868407Y875789D01*
X868379Y875791D01*
X714041Y875791D01*
X713942Y875779D01*
X713843Y875776D01*
X713785Y875759D01*
X713725Y875751D01*
X713633Y875715D01*
X713538Y875687D01*
X713486Y875657D01*
X713429Y875634D01*
X713349Y875576D01*
X713264Y875526D01*
X713189Y875460D01*
X713172Y875448D01*
X713164Y875438D01*
X713143Y875420D01*
X701666Y863942D01*
X699612Y863091D01*
X697388Y863091D01*
G37*
%LPD*%
%LPC*%
G36*
X1197566Y976375D02*
X1197566Y976375D01*
X1195139Y977381D01*
X1193281Y979239D01*
X1192275Y981666D01*
X1192275Y984294D01*
X1193281Y986721D01*
X1195139Y988579D01*
X1197566Y989585D01*
X1330238Y989585D01*
X1330337Y989597D01*
X1330436Y989600D01*
X1330494Y989617D01*
X1330554Y989625D01*
X1330646Y989661D01*
X1330741Y989689D01*
X1330793Y989719D01*
X1330850Y989742D01*
X1330930Y989800D01*
X1331015Y989850D01*
X1331091Y989916D01*
X1331107Y989928D01*
X1331115Y989938D01*
X1331136Y989956D01*
X1339919Y998739D01*
X1342346Y999745D01*
X1344974Y999745D01*
X1347401Y998739D01*
X1349259Y996881D01*
X1350265Y994454D01*
X1350265Y991826D01*
X1349259Y989399D01*
X1337241Y977381D01*
X1334814Y976375D01*
X1197566Y976375D01*
G37*
%LPD*%
%LPC*%
G36*
X257766Y976375D02*
X257766Y976375D01*
X255339Y977381D01*
X253481Y979239D01*
X252475Y981666D01*
X252475Y984294D01*
X253481Y986721D01*
X255339Y988579D01*
X257766Y989585D01*
X390439Y989585D01*
X390537Y989597D01*
X390636Y989600D01*
X390694Y989617D01*
X390754Y989625D01*
X390846Y989661D01*
X390941Y989689D01*
X390993Y989719D01*
X391050Y989742D01*
X391130Y989800D01*
X391215Y989850D01*
X391290Y989916D01*
X391307Y989928D01*
X391315Y989938D01*
X391336Y989956D01*
X400119Y998739D01*
X402546Y999745D01*
X405174Y999745D01*
X407601Y998739D01*
X409459Y996881D01*
X410465Y994454D01*
X410465Y991826D01*
X409459Y989399D01*
X399478Y979417D01*
X397441Y977381D01*
X395014Y976375D01*
X257766Y976375D01*
G37*
%LPD*%
%LPC*%
G36*
X671103Y320159D02*
X671103Y320159D01*
X667412Y321688D01*
X664588Y324512D01*
X663059Y328203D01*
X663059Y332197D01*
X664588Y335888D01*
X667412Y338712D01*
X671103Y340241D01*
X675097Y340241D01*
X675429Y340103D01*
X675457Y340096D01*
X675483Y340082D01*
X675610Y340054D01*
X675735Y340020D01*
X675765Y340019D01*
X675794Y340013D01*
X675923Y340017D01*
X676053Y340014D01*
X676082Y340021D01*
X676112Y340022D01*
X676236Y340058D01*
X676363Y340089D01*
X676389Y340102D01*
X676417Y340111D01*
X676529Y340177D01*
X676644Y340237D01*
X676665Y340257D01*
X676691Y340272D01*
X676812Y340379D01*
X731656Y395222D01*
X731716Y395301D01*
X731784Y395373D01*
X731813Y395426D01*
X731850Y395474D01*
X731890Y395565D01*
X731938Y395651D01*
X731953Y395710D01*
X731977Y395765D01*
X731992Y395863D01*
X732017Y395959D01*
X732023Y396059D01*
X732027Y396080D01*
X732025Y396092D01*
X732027Y396120D01*
X732027Y458024D01*
X732024Y458053D01*
X732026Y458082D01*
X732004Y458210D01*
X731987Y458339D01*
X731977Y458367D01*
X731972Y458396D01*
X731918Y458514D01*
X731870Y458635D01*
X731853Y458659D01*
X731841Y458686D01*
X731760Y458787D01*
X731684Y458892D01*
X731661Y458911D01*
X731642Y458934D01*
X731539Y459012D01*
X731439Y459095D01*
X731412Y459108D01*
X731388Y459125D01*
X731244Y459196D01*
X729837Y459779D01*
X726479Y463137D01*
X724661Y467525D01*
X724661Y472275D01*
X726479Y476663D01*
X729837Y480021D01*
X734225Y481839D01*
X738975Y481839D01*
X743363Y480021D01*
X746721Y476663D01*
X748539Y472275D01*
X748539Y467525D01*
X746721Y463137D01*
X743363Y459779D01*
X741956Y459196D01*
X741931Y459182D01*
X741903Y459173D01*
X741793Y459103D01*
X741680Y459039D01*
X741659Y459018D01*
X741634Y459002D01*
X741545Y458908D01*
X741452Y458817D01*
X741436Y458792D01*
X741416Y458771D01*
X741353Y458657D01*
X741285Y458546D01*
X741277Y458518D01*
X741262Y458492D01*
X741230Y458366D01*
X741192Y458242D01*
X741190Y458213D01*
X741183Y458184D01*
X741173Y458024D01*
X741173Y391806D01*
X683279Y333912D01*
X683260Y333888D01*
X683238Y333869D01*
X683163Y333763D01*
X683084Y333661D01*
X683072Y333633D01*
X683055Y333609D01*
X683009Y333488D01*
X682957Y333369D01*
X682953Y333339D01*
X682942Y333312D01*
X682928Y333183D01*
X682907Y333055D01*
X682910Y333025D01*
X682907Y332996D01*
X682925Y332867D01*
X682937Y332738D01*
X682947Y332710D01*
X682951Y332681D01*
X683003Y332529D01*
X683141Y332197D01*
X683141Y328203D01*
X681612Y324512D01*
X678788Y321688D01*
X675097Y320159D01*
X671103Y320159D01*
G37*
%LPD*%
%LPC*%
G36*
X147600Y87469D02*
X147600Y87469D01*
X138731Y91143D01*
X131943Y97931D01*
X128269Y106800D01*
X128269Y116400D01*
X131943Y125269D01*
X138731Y132057D01*
X147600Y135731D01*
X157200Y135731D01*
X166069Y132057D01*
X172857Y125269D01*
X176531Y116400D01*
X176531Y106800D01*
X172857Y97931D01*
X166069Y91143D01*
X157200Y87469D01*
X147600Y87469D01*
G37*
%LPD*%
%LPC*%
G36*
X671103Y345559D02*
X671103Y345559D01*
X667412Y347088D01*
X664588Y349912D01*
X663059Y353603D01*
X663059Y357597D01*
X664588Y361288D01*
X667412Y364112D01*
X671103Y365641D01*
X675097Y365641D01*
X675429Y365503D01*
X675457Y365496D01*
X675483Y365482D01*
X675610Y365454D01*
X675735Y365420D01*
X675765Y365419D01*
X675794Y365413D01*
X675923Y365417D01*
X676053Y365414D01*
X676082Y365421D01*
X676112Y365422D01*
X676236Y365458D01*
X676363Y365489D01*
X676389Y365502D01*
X676417Y365511D01*
X676529Y365576D01*
X676644Y365637D01*
X676666Y365657D01*
X676691Y365672D01*
X676812Y365779D01*
X693556Y382522D01*
X693616Y382601D01*
X693684Y382673D01*
X693713Y382726D01*
X693750Y382774D01*
X693790Y382865D01*
X693838Y382951D01*
X693853Y383010D01*
X693877Y383065D01*
X693892Y383163D01*
X693917Y383259D01*
X693923Y383359D01*
X693927Y383380D01*
X693925Y383392D01*
X693927Y383420D01*
X693927Y454780D01*
X693915Y454878D01*
X693912Y454977D01*
X693895Y455036D01*
X693887Y455096D01*
X693851Y455188D01*
X693823Y455283D01*
X693793Y455335D01*
X693770Y455391D01*
X693712Y455471D01*
X693662Y455557D01*
X693596Y455632D01*
X693584Y455649D01*
X693574Y455657D01*
X693556Y455678D01*
X690964Y458269D01*
X690941Y458287D01*
X690922Y458309D01*
X690816Y458384D01*
X690713Y458464D01*
X690686Y458475D01*
X690662Y458492D01*
X690541Y458538D01*
X690421Y458590D01*
X690392Y458595D01*
X690365Y458605D01*
X690236Y458619D01*
X690107Y458640D01*
X690078Y458637D01*
X690049Y458640D01*
X689920Y458622D01*
X689791Y458610D01*
X689763Y458600D01*
X689734Y458596D01*
X689581Y458544D01*
X688175Y457961D01*
X683425Y457961D01*
X679037Y459779D01*
X675679Y463137D01*
X673861Y467525D01*
X673861Y472275D01*
X675679Y476663D01*
X679037Y480021D01*
X683425Y481839D01*
X688175Y481839D01*
X692563Y480021D01*
X695921Y476663D01*
X697739Y472275D01*
X697739Y467525D01*
X697156Y466119D01*
X697148Y466090D01*
X697135Y466064D01*
X697106Y465937D01*
X697072Y465812D01*
X697072Y465782D01*
X697065Y465754D01*
X697069Y465624D01*
X697067Y465494D01*
X697074Y465465D01*
X697075Y465436D01*
X697111Y465311D01*
X697141Y465185D01*
X697155Y465159D01*
X697163Y465130D01*
X697229Y465019D01*
X697290Y464904D01*
X697310Y464882D01*
X697325Y464856D01*
X697431Y464736D01*
X700022Y462144D01*
X703073Y459094D01*
X703073Y379106D01*
X700022Y376055D01*
X683279Y359312D01*
X683261Y359289D01*
X683238Y359269D01*
X683163Y359163D01*
X683084Y359061D01*
X683072Y359033D01*
X683055Y359009D01*
X683009Y358888D01*
X682957Y358769D01*
X682953Y358740D01*
X682942Y358712D01*
X682928Y358583D01*
X682907Y358455D01*
X682910Y358425D01*
X682907Y358396D01*
X682925Y358267D01*
X682937Y358138D01*
X682947Y358110D01*
X682951Y358081D01*
X683003Y357929D01*
X683141Y357597D01*
X683141Y353603D01*
X681612Y349912D01*
X678788Y347088D01*
X675097Y345559D01*
X671103Y345559D01*
G37*
%LPD*%
%LPC*%
G36*
X113194Y299239D02*
X113194Y299239D01*
X111150Y300086D01*
X109586Y301650D01*
X108739Y303694D01*
X108739Y305906D01*
X109586Y307950D01*
X111150Y309514D01*
X113194Y310361D01*
X115406Y310361D01*
X117558Y309469D01*
X117567Y309467D01*
X117575Y309462D01*
X117720Y309425D01*
X117865Y309385D01*
X117874Y309385D01*
X117883Y309383D01*
X118044Y309373D01*
X200780Y309373D01*
X200878Y309385D01*
X200977Y309388D01*
X201036Y309405D01*
X201096Y309413D01*
X201188Y309449D01*
X201283Y309477D01*
X201335Y309507D01*
X201391Y309530D01*
X201471Y309588D01*
X201557Y309638D01*
X201632Y309704D01*
X201649Y309716D01*
X201657Y309726D01*
X201678Y309744D01*
X210956Y319022D01*
X211016Y319101D01*
X211084Y319173D01*
X211113Y319226D01*
X211150Y319274D01*
X211190Y319365D01*
X211238Y319451D01*
X211253Y319510D01*
X211277Y319565D01*
X211292Y319663D01*
X211317Y319759D01*
X211323Y319859D01*
X211327Y319880D01*
X211325Y319892D01*
X211327Y319920D01*
X211327Y322169D01*
X211315Y322267D01*
X211312Y322366D01*
X211295Y322424D01*
X211287Y322484D01*
X211251Y322576D01*
X211223Y322671D01*
X211193Y322723D01*
X211170Y322780D01*
X211112Y322860D01*
X211062Y322945D01*
X210996Y323021D01*
X210984Y323037D01*
X210974Y323045D01*
X210956Y323066D01*
X208659Y325362D01*
X207359Y328501D01*
X207359Y331899D01*
X208659Y335038D01*
X211062Y337441D01*
X214201Y338741D01*
X217599Y338741D01*
X220738Y337441D01*
X223141Y335038D01*
X224441Y331899D01*
X224441Y328501D01*
X223141Y325362D01*
X220844Y323066D01*
X220784Y322988D01*
X220716Y322916D01*
X220687Y322863D01*
X220650Y322815D01*
X220610Y322724D01*
X220562Y322637D01*
X220547Y322579D01*
X220523Y322523D01*
X220508Y322425D01*
X220483Y322329D01*
X220477Y322229D01*
X220473Y322209D01*
X220475Y322197D01*
X220473Y322169D01*
X220473Y315606D01*
X205094Y300227D01*
X118044Y300227D01*
X118035Y300226D01*
X118025Y300227D01*
X117877Y300206D01*
X117728Y300187D01*
X117720Y300184D01*
X117710Y300183D01*
X117558Y300131D01*
X115406Y299239D01*
X113194Y299239D01*
G37*
%LPD*%
%LPC*%
G36*
X1205388Y863091D02*
X1205388Y863091D01*
X1203334Y863942D01*
X1201762Y865514D01*
X1200911Y867568D01*
X1200911Y869792D01*
X1201762Y871846D01*
X1203334Y873418D01*
X1205388Y874269D01*
X1297639Y874269D01*
X1297738Y874281D01*
X1297837Y874284D01*
X1297895Y874301D01*
X1297955Y874309D01*
X1298047Y874345D01*
X1298142Y874373D01*
X1298194Y874403D01*
X1298251Y874426D01*
X1298331Y874484D01*
X1298416Y874534D01*
X1298491Y874600D01*
X1298508Y874612D01*
X1298516Y874622D01*
X1298537Y874640D01*
X1304934Y881038D01*
X1306988Y881889D01*
X1309212Y881889D01*
X1311266Y881038D01*
X1312838Y879466D01*
X1313689Y877412D01*
X1313689Y875188D01*
X1312838Y873134D01*
X1303646Y863942D01*
X1301592Y863091D01*
X1205388Y863091D01*
G37*
%LPD*%
%LPC*%
G36*
X265588Y863091D02*
X265588Y863091D01*
X263534Y863942D01*
X261962Y865514D01*
X261111Y867568D01*
X261111Y869792D01*
X261962Y871846D01*
X263534Y873418D01*
X265588Y874269D01*
X357839Y874269D01*
X357938Y874281D01*
X358037Y874284D01*
X358095Y874301D01*
X358155Y874309D01*
X358247Y874345D01*
X358342Y874373D01*
X358394Y874403D01*
X358451Y874426D01*
X358531Y874484D01*
X358616Y874534D01*
X358691Y874600D01*
X358708Y874612D01*
X358716Y874622D01*
X358737Y874640D01*
X365134Y881038D01*
X367188Y881889D01*
X369412Y881889D01*
X371466Y881038D01*
X373038Y879466D01*
X373889Y877412D01*
X373889Y875188D01*
X373038Y873134D01*
X363846Y863942D01*
X361792Y863091D01*
X265588Y863091D01*
G37*
%LPD*%
%LPC*%
G36*
X1078388Y223011D02*
X1078388Y223011D01*
X1076334Y223862D01*
X1074762Y225434D01*
X1073911Y227488D01*
X1073911Y229712D01*
X1074762Y231766D01*
X1083954Y240958D01*
X1086008Y241809D01*
X1182212Y241809D01*
X1184266Y240958D01*
X1185838Y239386D01*
X1186689Y237332D01*
X1186689Y235108D01*
X1185838Y233054D01*
X1184266Y231482D01*
X1182212Y230631D01*
X1089961Y230631D01*
X1089862Y230619D01*
X1089763Y230616D01*
X1089705Y230599D01*
X1089645Y230591D01*
X1089553Y230555D01*
X1089458Y230527D01*
X1089406Y230497D01*
X1089349Y230474D01*
X1089269Y230416D01*
X1089184Y230366D01*
X1089109Y230300D01*
X1089092Y230288D01*
X1089084Y230278D01*
X1089063Y230260D01*
X1082666Y223862D01*
X1080612Y223011D01*
X1078388Y223011D01*
G37*
%LPD*%
%LPC*%
G36*
X1460499Y947419D02*
X1460499Y947419D01*
X1460499Y985454D01*
X1463270Y985211D01*
X1466765Y984595D01*
X1470193Y983677D01*
X1473527Y982463D01*
X1476744Y980963D01*
X1479817Y979189D01*
X1482724Y977153D01*
X1485443Y974872D01*
X1487952Y972363D01*
X1490233Y969644D01*
X1492269Y966737D01*
X1494043Y963664D01*
X1495543Y960447D01*
X1496757Y957113D01*
X1497675Y953685D01*
X1498291Y950190D01*
X1498534Y947419D01*
X1460499Y947419D01*
G37*
%LPD*%
%LPC*%
G36*
X43179Y947419D02*
X43179Y947419D01*
X43179Y985454D01*
X45950Y985211D01*
X49445Y984595D01*
X52873Y983677D01*
X56207Y982463D01*
X59424Y980963D01*
X62497Y979189D01*
X65404Y977153D01*
X68123Y974872D01*
X70632Y972363D01*
X72913Y969644D01*
X74949Y966737D01*
X76723Y963664D01*
X78223Y960447D01*
X79437Y957113D01*
X80355Y953685D01*
X80971Y950190D01*
X81214Y947419D01*
X43179Y947419D01*
G37*
%LPD*%
%LPC*%
G36*
X751839Y947419D02*
X751839Y947419D01*
X751839Y985454D01*
X754610Y985211D01*
X758105Y984595D01*
X761533Y983677D01*
X764867Y982463D01*
X768084Y980963D01*
X771157Y979189D01*
X774064Y977153D01*
X776783Y974872D01*
X779292Y972363D01*
X781573Y969644D01*
X783609Y966737D01*
X785383Y963664D01*
X786883Y960447D01*
X788097Y957113D01*
X789015Y953685D01*
X789631Y950190D01*
X789874Y947419D01*
X751839Y947419D01*
G37*
%LPD*%
%LPC*%
G36*
X1460499Y144779D02*
X1460499Y144779D01*
X1460499Y182814D01*
X1463270Y182571D01*
X1466765Y181955D01*
X1470193Y181037D01*
X1473527Y179823D01*
X1476744Y178323D01*
X1479817Y176549D01*
X1482724Y174513D01*
X1485443Y172232D01*
X1487952Y169723D01*
X1490233Y167004D01*
X1492269Y164097D01*
X1494043Y161024D01*
X1495543Y157807D01*
X1496757Y154473D01*
X1497675Y151045D01*
X1498291Y147550D01*
X1498534Y144779D01*
X1460499Y144779D01*
G37*
%LPD*%
%LPC*%
G36*
X43179Y144779D02*
X43179Y144779D01*
X43179Y182814D01*
X45950Y182571D01*
X49445Y181955D01*
X52873Y181037D01*
X56207Y179823D01*
X59424Y178323D01*
X62497Y176549D01*
X65404Y174513D01*
X68123Y172232D01*
X70632Y169723D01*
X72913Y167004D01*
X74949Y164097D01*
X76723Y161024D01*
X78223Y157807D01*
X79437Y154473D01*
X80355Y151045D01*
X80971Y147550D01*
X81214Y144779D01*
X43179Y144779D01*
G37*
%LPD*%
%LPC*%
G36*
X751839Y144779D02*
X751839Y144779D01*
X751839Y182814D01*
X754610Y182571D01*
X758105Y181955D01*
X761533Y181037D01*
X764867Y179823D01*
X768084Y178323D01*
X771157Y176549D01*
X774064Y174513D01*
X776783Y172232D01*
X779292Y169723D01*
X781573Y167004D01*
X783609Y164097D01*
X785383Y161024D01*
X786883Y157807D01*
X788097Y154473D01*
X789015Y151045D01*
X789631Y147550D01*
X789874Y144779D01*
X751839Y144779D01*
G37*
%LPD*%
%LPC*%
G36*
X1417386Y144779D02*
X1417386Y144779D01*
X1417629Y147550D01*
X1418245Y151045D01*
X1419163Y154473D01*
X1420377Y157807D01*
X1421877Y161024D01*
X1423651Y164097D01*
X1425687Y167004D01*
X1427968Y169723D01*
X1430477Y172232D01*
X1433196Y174513D01*
X1436103Y176549D01*
X1439176Y178323D01*
X1442393Y179823D01*
X1445727Y181037D01*
X1449155Y181955D01*
X1452650Y182571D01*
X1455421Y182814D01*
X1455421Y144779D01*
X1417386Y144779D01*
G37*
%LPD*%
%LPC*%
G36*
X751839Y942341D02*
X751839Y942341D01*
X789874Y942341D01*
X789631Y939570D01*
X789015Y936075D01*
X788097Y932647D01*
X786883Y929313D01*
X785383Y926096D01*
X783609Y923023D01*
X781573Y920116D01*
X779292Y917397D01*
X776783Y914888D01*
X774064Y912607D01*
X771157Y910571D01*
X768084Y908797D01*
X764867Y907297D01*
X761533Y906083D01*
X758105Y905165D01*
X754610Y904549D01*
X751839Y904306D01*
X751839Y942341D01*
G37*
%LPD*%
%LPC*%
G36*
X1460499Y139701D02*
X1460499Y139701D01*
X1498534Y139701D01*
X1498291Y136930D01*
X1497675Y133435D01*
X1496757Y130007D01*
X1495543Y126673D01*
X1494043Y123456D01*
X1492269Y120383D01*
X1490233Y117476D01*
X1487952Y114757D01*
X1485443Y112248D01*
X1482724Y109967D01*
X1479817Y107931D01*
X1476744Y106157D01*
X1473527Y104657D01*
X1470193Y103443D01*
X1466765Y102525D01*
X1463270Y101909D01*
X1460499Y101666D01*
X1460499Y139701D01*
G37*
%LPD*%
%LPC*%
G36*
X43179Y942341D02*
X43179Y942341D01*
X81214Y942341D01*
X80971Y939570D01*
X80355Y936075D01*
X79437Y932647D01*
X78223Y929313D01*
X76723Y926096D01*
X74949Y923023D01*
X72913Y920116D01*
X70632Y917397D01*
X68123Y914888D01*
X65404Y912607D01*
X62497Y910571D01*
X59424Y908797D01*
X56207Y907297D01*
X52873Y906083D01*
X49445Y905165D01*
X45950Y904549D01*
X43179Y904306D01*
X43179Y942341D01*
G37*
%LPD*%
%LPC*%
G36*
X708726Y947419D02*
X708726Y947419D01*
X708969Y950190D01*
X709585Y953685D01*
X710503Y957113D01*
X711717Y960447D01*
X713217Y963664D01*
X714991Y966737D01*
X717027Y969644D01*
X719308Y972363D01*
X721817Y974872D01*
X724536Y977153D01*
X727443Y979189D01*
X730516Y980963D01*
X733733Y982463D01*
X737067Y983677D01*
X740495Y984595D01*
X743990Y985211D01*
X746761Y985454D01*
X746761Y947419D01*
X708726Y947419D01*
G37*
%LPD*%
%LPC*%
G36*
X1417386Y947419D02*
X1417386Y947419D01*
X1417629Y950190D01*
X1418245Y953685D01*
X1419163Y957113D01*
X1420377Y960447D01*
X1421877Y963664D01*
X1423651Y966737D01*
X1425687Y969644D01*
X1427968Y972363D01*
X1430477Y974872D01*
X1433196Y977153D01*
X1436103Y979189D01*
X1439176Y980963D01*
X1442393Y982463D01*
X1445727Y983677D01*
X1449155Y984595D01*
X1452650Y985211D01*
X1455421Y985454D01*
X1455421Y947419D01*
X1417386Y947419D01*
G37*
%LPD*%
%LPC*%
G36*
X751839Y139701D02*
X751839Y139701D01*
X789874Y139701D01*
X789631Y136930D01*
X789015Y133435D01*
X788097Y130007D01*
X786883Y126673D01*
X785383Y123456D01*
X783609Y120383D01*
X781573Y117476D01*
X779292Y114757D01*
X776783Y112248D01*
X774064Y109967D01*
X771157Y107931D01*
X768084Y106157D01*
X764867Y104657D01*
X761533Y103443D01*
X758105Y102525D01*
X754610Y101909D01*
X751839Y101666D01*
X751839Y139701D01*
G37*
%LPD*%
%LPC*%
G36*
X43179Y139701D02*
X43179Y139701D01*
X81214Y139701D01*
X80971Y136930D01*
X80355Y133435D01*
X79437Y130007D01*
X78223Y126673D01*
X76723Y123456D01*
X74949Y120383D01*
X72913Y117476D01*
X70632Y114757D01*
X68123Y112248D01*
X65404Y109967D01*
X62497Y107931D01*
X59424Y106157D01*
X56207Y104657D01*
X52873Y103443D01*
X49445Y102525D01*
X45950Y101909D01*
X43179Y101666D01*
X43179Y139701D01*
G37*
%LPD*%
%LPC*%
G36*
X1460499Y942341D02*
X1460499Y942341D01*
X1498534Y942341D01*
X1498291Y939570D01*
X1497675Y936075D01*
X1496757Y932647D01*
X1495543Y929313D01*
X1494043Y926096D01*
X1492269Y923023D01*
X1490233Y920116D01*
X1487952Y917397D01*
X1485443Y914888D01*
X1482724Y912607D01*
X1479817Y910571D01*
X1476744Y908797D01*
X1473527Y907297D01*
X1470193Y906083D01*
X1466765Y905165D01*
X1463270Y904549D01*
X1460499Y904306D01*
X1460499Y942341D01*
G37*
%LPD*%
%LPC*%
G36*
X708726Y144779D02*
X708726Y144779D01*
X708969Y147550D01*
X709585Y151045D01*
X710503Y154473D01*
X711717Y157807D01*
X713217Y161024D01*
X714991Y164097D01*
X717027Y167004D01*
X719308Y169723D01*
X721817Y172232D01*
X724536Y174513D01*
X727443Y176549D01*
X730516Y178323D01*
X733733Y179823D01*
X737067Y181037D01*
X740495Y181955D01*
X743990Y182571D01*
X746761Y182814D01*
X746761Y144779D01*
X708726Y144779D01*
G37*
%LPD*%
%LPC*%
G36*
X66Y144779D02*
X66Y144779D01*
X309Y147550D01*
X925Y151045D01*
X1843Y154472D01*
X3057Y157807D01*
X4557Y161024D01*
X6331Y164097D01*
X8367Y167004D01*
X10648Y169723D01*
X13157Y172232D01*
X15876Y174513D01*
X18783Y176549D01*
X21856Y178323D01*
X25073Y179823D01*
X28407Y181037D01*
X31835Y181955D01*
X35330Y182571D01*
X38101Y182814D01*
X38101Y144779D01*
X66Y144779D01*
G37*
%LPD*%
%LPC*%
G36*
X66Y947419D02*
X66Y947419D01*
X309Y950190D01*
X925Y953685D01*
X1843Y957112D01*
X3057Y960447D01*
X4557Y963664D01*
X6331Y966737D01*
X8367Y969644D01*
X10648Y972363D01*
X13157Y974872D01*
X15876Y977153D01*
X18783Y979189D01*
X21856Y980963D01*
X25073Y982463D01*
X28407Y983677D01*
X31835Y984595D01*
X35330Y985211D01*
X38101Y985454D01*
X38101Y947419D01*
X66Y947419D01*
G37*
%LPD*%
%LPC*%
G36*
X743990Y101909D02*
X743990Y101909D01*
X740495Y102525D01*
X737067Y103443D01*
X733733Y104657D01*
X730516Y106157D01*
X727443Y107931D01*
X724536Y109967D01*
X721817Y112248D01*
X719308Y114757D01*
X717027Y117476D01*
X714991Y120383D01*
X713217Y123456D01*
X711717Y126673D01*
X710503Y130007D01*
X709585Y133435D01*
X708969Y136930D01*
X708726Y139701D01*
X746761Y139701D01*
X746761Y101666D01*
X743990Y101909D01*
G37*
%LPD*%
%LPC*%
G36*
X1452650Y101909D02*
X1452650Y101909D01*
X1449155Y102525D01*
X1445727Y103443D01*
X1442393Y104657D01*
X1439176Y106157D01*
X1436103Y107931D01*
X1433196Y109967D01*
X1430477Y112248D01*
X1427968Y114757D01*
X1425687Y117476D01*
X1423651Y120383D01*
X1421877Y123456D01*
X1420377Y126673D01*
X1419163Y130007D01*
X1418245Y133435D01*
X1417629Y136930D01*
X1417386Y139701D01*
X1455421Y139701D01*
X1455421Y101666D01*
X1452650Y101909D01*
G37*
%LPD*%
%LPC*%
G36*
X1452650Y904549D02*
X1452650Y904549D01*
X1449155Y905165D01*
X1445727Y906083D01*
X1442393Y907297D01*
X1439176Y908797D01*
X1436103Y910571D01*
X1433196Y912607D01*
X1430477Y914888D01*
X1427968Y917397D01*
X1425687Y920116D01*
X1423651Y923023D01*
X1421877Y926096D01*
X1420377Y929313D01*
X1419163Y932647D01*
X1418245Y936075D01*
X1417629Y939570D01*
X1417386Y942341D01*
X1455421Y942341D01*
X1455421Y904306D01*
X1452650Y904549D01*
G37*
%LPD*%
%LPC*%
G36*
X743990Y904549D02*
X743990Y904549D01*
X740495Y905165D01*
X737067Y906083D01*
X733733Y907297D01*
X730516Y908797D01*
X727443Y910571D01*
X724536Y912607D01*
X721817Y914888D01*
X719308Y917397D01*
X717027Y920116D01*
X714991Y923023D01*
X713217Y926096D01*
X711717Y929313D01*
X710503Y932647D01*
X709585Y936075D01*
X708969Y939570D01*
X708726Y942341D01*
X746761Y942341D01*
X746761Y904306D01*
X743990Y904549D01*
G37*
%LPD*%
%LPC*%
G36*
X35330Y904549D02*
X35330Y904549D01*
X31835Y905165D01*
X28407Y906083D01*
X25073Y907297D01*
X21856Y908797D01*
X18783Y910571D01*
X15876Y912607D01*
X13157Y914888D01*
X10648Y917397D01*
X8367Y920116D01*
X6331Y923023D01*
X4557Y926096D01*
X3057Y929313D01*
X1843Y932648D01*
X925Y936075D01*
X309Y939570D01*
X66Y942341D01*
X38101Y942341D01*
X38101Y904306D01*
X35330Y904549D01*
G37*
%LPD*%
%LPC*%
G36*
X35330Y101909D02*
X35330Y101909D01*
X31835Y102525D01*
X28407Y103443D01*
X25073Y104657D01*
X21856Y106157D01*
X18783Y107931D01*
X15876Y109967D01*
X13157Y112248D01*
X10648Y114757D01*
X8367Y117476D01*
X6331Y120383D01*
X4557Y123456D01*
X3057Y126673D01*
X1843Y130008D01*
X925Y133435D01*
X309Y136930D01*
X66Y139701D01*
X38101Y139701D01*
X38101Y101666D01*
X35330Y101909D01*
G37*
%LPD*%
%LPC*%
G36*
X429210Y52704D02*
X429210Y52704D01*
X424426Y54686D01*
X420764Y58348D01*
X418782Y63133D01*
X418782Y89267D01*
X420764Y94052D01*
X424426Y97714D01*
X429210Y99696D01*
X434390Y99696D01*
X439174Y97714D01*
X442836Y94052D01*
X444818Y89267D01*
X444818Y63133D01*
X442836Y58348D01*
X439174Y54686D01*
X434390Y52704D01*
X429210Y52704D01*
G37*
%LPD*%
%LPC*%
G36*
X327610Y52704D02*
X327610Y52704D01*
X322826Y54686D01*
X319164Y58348D01*
X317182Y63133D01*
X317182Y89267D01*
X319164Y94052D01*
X322826Y97714D01*
X327610Y99696D01*
X332790Y99696D01*
X337574Y97714D01*
X341236Y94052D01*
X343218Y89267D01*
X343218Y63133D01*
X341236Y58348D01*
X337574Y54686D01*
X332790Y52704D01*
X327610Y52704D01*
G37*
%LPD*%
%LPC*%
G36*
X378410Y52704D02*
X378410Y52704D01*
X373626Y54686D01*
X369964Y58348D01*
X367982Y63133D01*
X367982Y89267D01*
X369964Y94052D01*
X373626Y97714D01*
X378410Y99696D01*
X383590Y99696D01*
X388374Y97714D01*
X392036Y94052D01*
X394018Y89267D01*
X394018Y63133D01*
X392036Y58348D01*
X388374Y54686D01*
X383590Y52704D01*
X378410Y52704D01*
G37*
%LPD*%
%LPC*%
G36*
X797510Y27304D02*
X797510Y27304D01*
X792726Y29286D01*
X789064Y32948D01*
X787082Y37733D01*
X787082Y63867D01*
X789064Y68652D01*
X792726Y72314D01*
X797510Y74296D01*
X802690Y74296D01*
X807474Y72314D01*
X811136Y68652D01*
X813118Y63867D01*
X813118Y37733D01*
X811136Y32948D01*
X807474Y29286D01*
X802690Y27304D01*
X797510Y27304D01*
G37*
%LPD*%
%LPC*%
G36*
X848310Y27304D02*
X848310Y27304D01*
X843526Y29286D01*
X839864Y32948D01*
X837882Y37733D01*
X837882Y63867D01*
X839864Y68652D01*
X843526Y72314D01*
X848310Y74296D01*
X853490Y74296D01*
X858274Y72314D01*
X861936Y68652D01*
X863918Y63867D01*
X863918Y37733D01*
X861936Y32948D01*
X858274Y29286D01*
X853490Y27304D01*
X848310Y27304D01*
G37*
%LPD*%
%LPC*%
G36*
X773594Y375439D02*
X773594Y375439D01*
X771550Y376286D01*
X769986Y377850D01*
X769139Y379894D01*
X769139Y382106D01*
X769986Y384150D01*
X771550Y385714D01*
X773594Y386561D01*
X775806Y386561D01*
X777958Y385669D01*
X777967Y385667D01*
X777975Y385662D01*
X778120Y385625D01*
X778265Y385585D01*
X778274Y385585D01*
X778283Y385583D01*
X778444Y385573D01*
X872556Y385573D01*
X872565Y385574D01*
X872575Y385573D01*
X872723Y385594D01*
X872872Y385613D01*
X872880Y385616D01*
X872890Y385617D01*
X873042Y385669D01*
X875194Y386561D01*
X877406Y386561D01*
X879450Y385714D01*
X881014Y384150D01*
X881861Y382106D01*
X881861Y379894D01*
X881014Y377850D01*
X879450Y376286D01*
X877406Y375439D01*
X875194Y375439D01*
X873042Y376331D01*
X873033Y376333D01*
X873025Y376338D01*
X872880Y376375D01*
X872735Y376415D01*
X872726Y376415D01*
X872717Y376417D01*
X872556Y376427D01*
X778444Y376427D01*
X778435Y376426D01*
X778425Y376427D01*
X778277Y376406D01*
X778128Y376387D01*
X778120Y376384D01*
X778110Y376383D01*
X777958Y376331D01*
X775806Y375439D01*
X773594Y375439D01*
G37*
%LPD*%
%LPC*%
G36*
X798994Y400839D02*
X798994Y400839D01*
X796950Y401686D01*
X795386Y403250D01*
X794539Y405294D01*
X794539Y407506D01*
X795386Y409550D01*
X796950Y411114D01*
X798994Y411961D01*
X801206Y411961D01*
X803358Y411069D01*
X803367Y411067D01*
X803375Y411062D01*
X803520Y411025D01*
X803665Y410985D01*
X803674Y410985D01*
X803683Y410983D01*
X803844Y410973D01*
X897956Y410973D01*
X897965Y410974D01*
X897975Y410973D01*
X898123Y410994D01*
X898272Y411013D01*
X898280Y411016D01*
X898290Y411017D01*
X898442Y411069D01*
X900594Y411961D01*
X902806Y411961D01*
X904850Y411114D01*
X906414Y409550D01*
X907261Y407506D01*
X907261Y405294D01*
X906414Y403250D01*
X904850Y401686D01*
X902806Y400839D01*
X900594Y400839D01*
X898442Y401731D01*
X898433Y401733D01*
X898425Y401738D01*
X898280Y401775D01*
X898135Y401815D01*
X898126Y401815D01*
X898117Y401817D01*
X897956Y401827D01*
X803844Y401827D01*
X803835Y401826D01*
X803825Y401827D01*
X803677Y401806D01*
X803528Y401787D01*
X803520Y401784D01*
X803510Y401783D01*
X803358Y401731D01*
X801206Y400839D01*
X798994Y400839D01*
G37*
%LPD*%
%LPC*%
G36*
X405294Y489739D02*
X405294Y489739D01*
X403250Y490586D01*
X401686Y492150D01*
X400794Y494302D01*
X400790Y494310D01*
X400787Y494319D01*
X400711Y494448D01*
X400637Y494578D01*
X400630Y494585D01*
X400626Y494593D01*
X400519Y494714D01*
X342314Y552919D01*
X342307Y552925D01*
X342301Y552932D01*
X342181Y553022D01*
X342063Y553114D01*
X342054Y553118D01*
X342047Y553124D01*
X341902Y553194D01*
X339750Y554086D01*
X338186Y555650D01*
X337339Y557694D01*
X337339Y559906D01*
X338186Y561950D01*
X339750Y563514D01*
X341794Y564361D01*
X344006Y564361D01*
X346050Y563514D01*
X347614Y561950D01*
X348506Y559798D01*
X348510Y559790D01*
X348513Y559781D01*
X348589Y559652D01*
X348663Y559522D01*
X348670Y559515D01*
X348674Y559507D01*
X348781Y559386D01*
X406986Y501181D01*
X406993Y501175D01*
X406999Y501168D01*
X407119Y501078D01*
X407237Y500986D01*
X407246Y500982D01*
X407253Y500976D01*
X407398Y500906D01*
X409550Y500014D01*
X411114Y498450D01*
X411961Y496406D01*
X411961Y494194D01*
X411114Y492150D01*
X409550Y490586D01*
X407506Y489739D01*
X405294Y489739D01*
G37*
%LPD*%
%LPC*%
G36*
X392594Y477039D02*
X392594Y477039D01*
X390550Y477886D01*
X388986Y479450D01*
X388094Y481602D01*
X388090Y481610D01*
X388087Y481619D01*
X388011Y481748D01*
X387937Y481878D01*
X387930Y481885D01*
X387926Y481893D01*
X387819Y482014D01*
X329614Y540219D01*
X329607Y540225D01*
X329601Y540232D01*
X329481Y540322D01*
X329363Y540414D01*
X329354Y540418D01*
X329347Y540424D01*
X329202Y540494D01*
X327050Y541386D01*
X325486Y542950D01*
X324639Y544994D01*
X324639Y547206D01*
X325486Y549250D01*
X327050Y550814D01*
X329094Y551661D01*
X331306Y551661D01*
X333350Y550814D01*
X334914Y549250D01*
X335806Y547098D01*
X335810Y547090D01*
X335813Y547081D01*
X335889Y546952D01*
X335963Y546822D01*
X335970Y546815D01*
X335974Y546807D01*
X336081Y546686D01*
X394286Y488481D01*
X394293Y488475D01*
X394299Y488468D01*
X394419Y488378D01*
X394537Y488286D01*
X394546Y488282D01*
X394553Y488276D01*
X394698Y488206D01*
X396850Y487314D01*
X398414Y485750D01*
X399261Y483706D01*
X399261Y481494D01*
X398414Y479450D01*
X396850Y477886D01*
X394806Y477039D01*
X392594Y477039D01*
G37*
%LPD*%
%LPC*%
G36*
X214794Y565939D02*
X214794Y565939D01*
X212750Y566786D01*
X211186Y568350D01*
X210294Y570502D01*
X210290Y570510D01*
X210287Y570519D01*
X210211Y570648D01*
X210137Y570778D01*
X210130Y570785D01*
X210126Y570793D01*
X210019Y570914D01*
X164514Y616419D01*
X164507Y616425D01*
X164501Y616432D01*
X164426Y616489D01*
X164374Y616537D01*
X164332Y616561D01*
X164263Y616614D01*
X164254Y616618D01*
X164247Y616624D01*
X164102Y616694D01*
X161950Y617586D01*
X160386Y619150D01*
X159539Y621194D01*
X159539Y623406D01*
X160386Y625450D01*
X161950Y627014D01*
X163994Y627861D01*
X166206Y627861D01*
X168250Y627014D01*
X169814Y625450D01*
X170706Y623298D01*
X170710Y623290D01*
X170713Y623281D01*
X170789Y623152D01*
X170863Y623022D01*
X170870Y623015D01*
X170874Y623007D01*
X170981Y622886D01*
X216486Y577381D01*
X216493Y577375D01*
X216499Y577368D01*
X216619Y577278D01*
X216737Y577186D01*
X216746Y577182D01*
X216753Y577176D01*
X216898Y577106D01*
X219050Y576214D01*
X220614Y574650D01*
X221461Y572606D01*
X221461Y570394D01*
X220614Y568350D01*
X219050Y566786D01*
X217006Y565939D01*
X214794Y565939D01*
G37*
%LPD*%
%LPC*%
G36*
X1040294Y578639D02*
X1040294Y578639D01*
X1038250Y579486D01*
X1036686Y581050D01*
X1035839Y583094D01*
X1035839Y585306D01*
X1036731Y587458D01*
X1036733Y587467D01*
X1036738Y587475D01*
X1036775Y587620D01*
X1036815Y587765D01*
X1036815Y587774D01*
X1036817Y587783D01*
X1036827Y587944D01*
X1036827Y643956D01*
X1036826Y643965D01*
X1036827Y643975D01*
X1036806Y644123D01*
X1036787Y644272D01*
X1036784Y644280D01*
X1036783Y644290D01*
X1036731Y644442D01*
X1035839Y646594D01*
X1035839Y648806D01*
X1036686Y650850D01*
X1038250Y652414D01*
X1040294Y653261D01*
X1042506Y653261D01*
X1044550Y652414D01*
X1046114Y650850D01*
X1046961Y648806D01*
X1046961Y646594D01*
X1046069Y644442D01*
X1046067Y644433D01*
X1046062Y644425D01*
X1046025Y644280D01*
X1045985Y644135D01*
X1045985Y644126D01*
X1045983Y644117D01*
X1045973Y643956D01*
X1045973Y587944D01*
X1045974Y587935D01*
X1045973Y587925D01*
X1045994Y587777D01*
X1046013Y587628D01*
X1046016Y587620D01*
X1046017Y587610D01*
X1046069Y587458D01*
X1046961Y585306D01*
X1046961Y583094D01*
X1046114Y581050D01*
X1044550Y579486D01*
X1042506Y578639D01*
X1040294Y578639D01*
G37*
%LPD*%
%LPC*%
G36*
X313475Y1026564D02*
X313475Y1026564D01*
X308107Y1028788D01*
X303998Y1032897D01*
X301774Y1038265D01*
X301774Y1044075D01*
X303998Y1049443D01*
X308107Y1053552D01*
X313475Y1055776D01*
X319285Y1055776D01*
X324653Y1053552D01*
X328762Y1049443D01*
X330986Y1044075D01*
X330986Y1038265D01*
X328762Y1032897D01*
X324653Y1028788D01*
X319285Y1026564D01*
X313475Y1026564D01*
G37*
%LPD*%
%LPC*%
G36*
X1288275Y1026564D02*
X1288275Y1026564D01*
X1282907Y1028788D01*
X1278798Y1032897D01*
X1276574Y1038265D01*
X1276574Y1044075D01*
X1278798Y1049443D01*
X1282907Y1053552D01*
X1288275Y1055776D01*
X1294085Y1055776D01*
X1299453Y1053552D01*
X1303562Y1049443D01*
X1305786Y1044075D01*
X1305786Y1038265D01*
X1303562Y1032897D01*
X1299453Y1028788D01*
X1294085Y1026564D01*
X1288275Y1026564D01*
G37*
%LPD*%
%LPC*%
G36*
X1253275Y1026564D02*
X1253275Y1026564D01*
X1247907Y1028788D01*
X1243798Y1032897D01*
X1241574Y1038265D01*
X1241574Y1044075D01*
X1243798Y1049443D01*
X1247907Y1053552D01*
X1253275Y1055776D01*
X1259085Y1055776D01*
X1264453Y1053552D01*
X1268562Y1049443D01*
X1270786Y1044075D01*
X1270786Y1038265D01*
X1268562Y1032897D01*
X1264453Y1028788D01*
X1259085Y1026564D01*
X1253275Y1026564D01*
G37*
%LPD*%
%LPC*%
G36*
X564375Y1026564D02*
X564375Y1026564D01*
X559007Y1028788D01*
X554898Y1032897D01*
X552674Y1038265D01*
X552674Y1044075D01*
X554898Y1049443D01*
X559007Y1053552D01*
X564375Y1055776D01*
X570185Y1055776D01*
X575553Y1053552D01*
X579662Y1049443D01*
X581886Y1044075D01*
X581886Y1038265D01*
X579662Y1032897D01*
X575553Y1028788D01*
X570185Y1026564D01*
X564375Y1026564D01*
G37*
%LPD*%
%LPC*%
G36*
X348475Y1026564D02*
X348475Y1026564D01*
X343107Y1028788D01*
X338998Y1032897D01*
X336774Y1038265D01*
X336774Y1044075D01*
X338998Y1049443D01*
X343107Y1053552D01*
X348475Y1055776D01*
X354285Y1055776D01*
X359653Y1053552D01*
X363762Y1049443D01*
X365986Y1044075D01*
X365986Y1038265D01*
X363762Y1032897D01*
X359653Y1028788D01*
X354285Y1026564D01*
X348475Y1026564D01*
G37*
%LPD*%
%LPC*%
G36*
X1344415Y36424D02*
X1344415Y36424D01*
X1339047Y38648D01*
X1334938Y42757D01*
X1332714Y48125D01*
X1332714Y53935D01*
X1334938Y59303D01*
X1339047Y63412D01*
X1344415Y65636D01*
X1350225Y65636D01*
X1355593Y63412D01*
X1359702Y59303D01*
X1361926Y53935D01*
X1361926Y48125D01*
X1359702Y42757D01*
X1355593Y38648D01*
X1350225Y36424D01*
X1344415Y36424D01*
G37*
%LPD*%
%LPC*%
G36*
X529375Y1026564D02*
X529375Y1026564D01*
X524007Y1028788D01*
X519898Y1032897D01*
X517674Y1038265D01*
X517674Y1044075D01*
X519898Y1049443D01*
X524007Y1053552D01*
X529375Y1055776D01*
X535185Y1055776D01*
X540553Y1053552D01*
X544662Y1049443D01*
X546886Y1044075D01*
X546886Y1038265D01*
X544662Y1032897D01*
X540553Y1028788D01*
X535185Y1026564D01*
X529375Y1026564D01*
G37*
%LPD*%
%LPC*%
G36*
X1309415Y36424D02*
X1309415Y36424D01*
X1304047Y38648D01*
X1299938Y42757D01*
X1297714Y48125D01*
X1297714Y53935D01*
X1299938Y59303D01*
X1304047Y63412D01*
X1309415Y65636D01*
X1315225Y65636D01*
X1320593Y63412D01*
X1324702Y59303D01*
X1326926Y53935D01*
X1326926Y48125D01*
X1324702Y42757D01*
X1320593Y38648D01*
X1315225Y36424D01*
X1309415Y36424D01*
G37*
%LPD*%
%LPC*%
G36*
X1128515Y36424D02*
X1128515Y36424D01*
X1123147Y38648D01*
X1119038Y42757D01*
X1116814Y48125D01*
X1116814Y53935D01*
X1119038Y59303D01*
X1123147Y63412D01*
X1128515Y65636D01*
X1134325Y65636D01*
X1139693Y63412D01*
X1143802Y59303D01*
X1146026Y53935D01*
X1146026Y48125D01*
X1143802Y42757D01*
X1139693Y38648D01*
X1134325Y36424D01*
X1128515Y36424D01*
G37*
%LPD*%
%LPC*%
G36*
X1093515Y36424D02*
X1093515Y36424D01*
X1088147Y38648D01*
X1084038Y42757D01*
X1081814Y48125D01*
X1081814Y53935D01*
X1084038Y59303D01*
X1088147Y63412D01*
X1093515Y65636D01*
X1099325Y65636D01*
X1104693Y63412D01*
X1108802Y59303D01*
X1111026Y53935D01*
X1111026Y48125D01*
X1108802Y42757D01*
X1104693Y38648D01*
X1099325Y36424D01*
X1093515Y36424D01*
G37*
%LPD*%
%LPC*%
G36*
X585903Y66159D02*
X585903Y66159D01*
X582212Y67688D01*
X579388Y70512D01*
X577859Y74203D01*
X577859Y78197D01*
X579388Y81888D01*
X582212Y84712D01*
X585903Y86241D01*
X589897Y86241D01*
X593588Y84712D01*
X593692Y84607D01*
X593802Y84522D01*
X593909Y84433D01*
X593928Y84425D01*
X593944Y84412D01*
X594072Y84357D01*
X594197Y84298D01*
X594217Y84294D01*
X594236Y84286D01*
X594373Y84264D01*
X594510Y84238D01*
X594530Y84239D01*
X594550Y84236D01*
X594688Y84249D01*
X594827Y84258D01*
X594846Y84264D01*
X594866Y84266D01*
X594997Y84313D01*
X595129Y84356D01*
X595147Y84367D01*
X595166Y84373D01*
X595281Y84452D01*
X595398Y84526D01*
X595412Y84541D01*
X595429Y84552D01*
X595521Y84656D01*
X595616Y84758D01*
X595626Y84775D01*
X595639Y84790D01*
X595703Y84914D01*
X595770Y85036D01*
X595775Y85056D01*
X595784Y85074D01*
X595814Y85209D01*
X595849Y85344D01*
X595851Y85372D01*
X595854Y85384D01*
X595853Y85404D01*
X595859Y85505D01*
X595859Y85797D01*
X597388Y89488D01*
X600212Y92312D01*
X603903Y93841D01*
X607897Y93841D01*
X611588Y92312D01*
X614412Y89488D01*
X615941Y85797D01*
X615941Y81803D01*
X614412Y78112D01*
X611588Y75288D01*
X607897Y73759D01*
X603903Y73759D01*
X600212Y75288D01*
X600108Y75393D01*
X599998Y75478D01*
X599891Y75567D01*
X599872Y75575D01*
X599856Y75588D01*
X599728Y75643D01*
X599603Y75702D01*
X599583Y75706D01*
X599564Y75714D01*
X599427Y75736D01*
X599290Y75762D01*
X599270Y75761D01*
X599250Y75764D01*
X599112Y75751D01*
X598973Y75742D01*
X598954Y75736D01*
X598934Y75734D01*
X598803Y75687D01*
X598671Y75644D01*
X598653Y75633D01*
X598634Y75627D01*
X598519Y75548D01*
X598402Y75474D01*
X598388Y75459D01*
X598371Y75448D01*
X598279Y75344D01*
X598184Y75242D01*
X598174Y75225D01*
X598161Y75210D01*
X598097Y75086D01*
X598030Y74964D01*
X598025Y74944D01*
X598016Y74926D01*
X597986Y74791D01*
X597951Y74656D01*
X597949Y74628D01*
X597946Y74616D01*
X597947Y74596D01*
X597941Y74495D01*
X597941Y74203D01*
X596412Y70512D01*
X593588Y67688D01*
X589897Y66159D01*
X585903Y66159D01*
G37*
%LPD*%
%LPC*%
G36*
X633894Y629439D02*
X633894Y629439D01*
X631850Y630286D01*
X630286Y631850D01*
X629439Y633894D01*
X629439Y636106D01*
X630286Y638150D01*
X631850Y639714D01*
X634002Y640606D01*
X634010Y640610D01*
X634019Y640613D01*
X634148Y640689D01*
X634278Y640763D01*
X634285Y640770D01*
X634293Y640774D01*
X634414Y640881D01*
X667219Y673686D01*
X667225Y673693D01*
X667232Y673699D01*
X667322Y673819D01*
X667414Y673937D01*
X667418Y673946D01*
X667424Y673953D01*
X667494Y674098D01*
X668386Y676250D01*
X669950Y677814D01*
X671994Y678661D01*
X674206Y678661D01*
X676250Y677814D01*
X677814Y676250D01*
X678661Y674206D01*
X678661Y671994D01*
X677814Y669950D01*
X676250Y668386D01*
X674098Y667494D01*
X674090Y667490D01*
X674081Y667487D01*
X673952Y667411D01*
X673822Y667337D01*
X673815Y667330D01*
X673807Y667326D01*
X673686Y667219D01*
X640881Y634414D01*
X640875Y634407D01*
X640868Y634401D01*
X640778Y634281D01*
X640686Y634163D01*
X640682Y634154D01*
X640676Y634147D01*
X640606Y634002D01*
X639714Y631850D01*
X638150Y630286D01*
X636106Y629439D01*
X633894Y629439D01*
G37*
%LPD*%
%LPC*%
G36*
X65096Y318007D02*
X65096Y318007D01*
X63607Y319496D01*
X63607Y340904D01*
X65096Y342393D01*
X86504Y342393D01*
X87993Y340904D01*
X87993Y319496D01*
X86504Y318007D01*
X65096Y318007D01*
G37*
%LPD*%
%LPC*%
G36*
X104793Y459104D02*
X104793Y459104D01*
X103304Y460593D01*
X103304Y479207D01*
X104793Y480696D01*
X123407Y480696D01*
X124896Y479207D01*
X124896Y460593D01*
X123407Y459104D01*
X104793Y459104D01*
G37*
%LPD*%
%LPC*%
G36*
X206393Y459104D02*
X206393Y459104D01*
X204904Y460593D01*
X204904Y479207D01*
X206393Y480696D01*
X225007Y480696D01*
X226496Y479207D01*
X226496Y460593D01*
X225007Y459104D01*
X206393Y459104D01*
G37*
%LPD*%
%LPC*%
G36*
X595794Y642139D02*
X595794Y642139D01*
X593750Y642986D01*
X592186Y644550D01*
X591339Y646594D01*
X591339Y648806D01*
X592186Y650850D01*
X593750Y652414D01*
X595902Y653306D01*
X595910Y653310D01*
X595919Y653313D01*
X596048Y653389D01*
X596178Y653463D01*
X596185Y653470D01*
X596193Y653474D01*
X596314Y653581D01*
X616419Y673686D01*
X616425Y673693D01*
X616432Y673699D01*
X616522Y673819D01*
X616614Y673937D01*
X616618Y673946D01*
X616624Y673953D01*
X616694Y674098D01*
X617586Y676250D01*
X619150Y677814D01*
X621194Y678661D01*
X623406Y678661D01*
X625450Y677814D01*
X627014Y676250D01*
X627861Y674206D01*
X627861Y671994D01*
X627014Y669950D01*
X625450Y668386D01*
X623298Y667494D01*
X623290Y667490D01*
X623281Y667487D01*
X623152Y667411D01*
X623022Y667337D01*
X623015Y667330D01*
X623007Y667326D01*
X622886Y667219D01*
X602781Y647114D01*
X602775Y647107D01*
X602768Y647101D01*
X602678Y646981D01*
X602586Y646863D01*
X602582Y646854D01*
X602576Y646847D01*
X602506Y646702D01*
X601614Y644550D01*
X600050Y642986D01*
X598006Y642139D01*
X595794Y642139D01*
G37*
%LPD*%
%LPC*%
G36*
X518426Y64769D02*
X518426Y64769D01*
X514225Y66509D01*
X511009Y69725D01*
X509269Y73926D01*
X509269Y78474D01*
X511009Y82675D01*
X514225Y85891D01*
X518426Y87631D01*
X522974Y87631D01*
X527175Y85891D01*
X530391Y82675D01*
X532131Y78474D01*
X532131Y73926D01*
X530391Y69725D01*
X527175Y66509D01*
X522974Y64769D01*
X518426Y64769D01*
G37*
%LPD*%
%LPC*%
G36*
X588348Y396359D02*
X588348Y396359D01*
X586859Y397848D01*
X586859Y414952D01*
X588348Y416441D01*
X605452Y416441D01*
X606941Y414952D01*
X606941Y397848D01*
X605452Y396359D01*
X588348Y396359D01*
G37*
%LPD*%
%LPC*%
G36*
X664548Y66159D02*
X664548Y66159D01*
X663059Y67648D01*
X663059Y84752D01*
X664548Y86241D01*
X681652Y86241D01*
X683141Y84752D01*
X683141Y67648D01*
X681652Y66159D01*
X664548Y66159D01*
G37*
%LPD*%
%LPC*%
G36*
X512148Y91559D02*
X512148Y91559D01*
X510659Y93048D01*
X510659Y110152D01*
X512148Y111641D01*
X529252Y111641D01*
X530741Y110152D01*
X530741Y93048D01*
X529252Y91559D01*
X512148Y91559D01*
G37*
%LPD*%
%LPC*%
G36*
X154939Y54139D02*
X154939Y54139D01*
X154939Y75597D01*
X156448Y75427D01*
X159091Y74824D01*
X161649Y73929D01*
X164091Y72753D01*
X166386Y71311D01*
X168505Y69621D01*
X170421Y67705D01*
X172111Y65586D01*
X173553Y63291D01*
X174729Y60849D01*
X175624Y58291D01*
X176227Y55648D01*
X176397Y54139D01*
X154939Y54139D01*
G37*
%LPD*%
%LPC*%
G36*
X201939Y84139D02*
X201939Y84139D01*
X201939Y105597D01*
X203448Y105427D01*
X206091Y104824D01*
X208649Y103929D01*
X211091Y102753D01*
X213386Y101311D01*
X215505Y99621D01*
X217421Y97705D01*
X219111Y95586D01*
X220553Y93291D01*
X221729Y90849D01*
X222624Y88291D01*
X223227Y85648D01*
X223397Y84139D01*
X201939Y84139D01*
G37*
%LPD*%
%LPC*%
G36*
X154939Y49061D02*
X154939Y49061D01*
X176397Y49061D01*
X176227Y47552D01*
X175624Y44909D01*
X174729Y42351D01*
X173553Y39909D01*
X172111Y37614D01*
X170421Y35495D01*
X168505Y33579D01*
X166386Y31889D01*
X164091Y30447D01*
X161649Y29271D01*
X159091Y28376D01*
X156448Y27773D01*
X154939Y27603D01*
X154939Y49061D01*
G37*
%LPD*%
%LPC*%
G36*
X201939Y79061D02*
X201939Y79061D01*
X223397Y79061D01*
X223227Y77552D01*
X222624Y74909D01*
X221729Y72351D01*
X220553Y69909D01*
X219111Y67614D01*
X217421Y65495D01*
X215505Y63579D01*
X213386Y61889D01*
X211091Y60447D01*
X208649Y59271D01*
X206091Y58376D01*
X203448Y57773D01*
X201939Y57603D01*
X201939Y79061D01*
G37*
%LPD*%
%LPC*%
G36*
X128403Y54139D02*
X128403Y54139D01*
X128573Y55648D01*
X129176Y58291D01*
X130071Y60849D01*
X131247Y63291D01*
X132689Y65586D01*
X134379Y67705D01*
X136295Y69621D01*
X138414Y71311D01*
X140709Y72753D01*
X143151Y73929D01*
X145709Y74824D01*
X148352Y75427D01*
X149861Y75597D01*
X149861Y54139D01*
X128403Y54139D01*
G37*
%LPD*%
%LPC*%
G36*
X175403Y84139D02*
X175403Y84139D01*
X175573Y85648D01*
X176176Y88291D01*
X177071Y90849D01*
X178247Y93291D01*
X179689Y95586D01*
X181379Y97705D01*
X183295Y99621D01*
X185414Y101311D01*
X187709Y102753D01*
X190151Y103929D01*
X192709Y104824D01*
X195352Y105427D01*
X196861Y105597D01*
X196861Y84139D01*
X175403Y84139D01*
G37*
%LPD*%
%LPC*%
G36*
X148352Y27773D02*
X148352Y27773D01*
X145709Y28376D01*
X143151Y29271D01*
X140709Y30447D01*
X138414Y31889D01*
X136295Y33579D01*
X134379Y35495D01*
X132689Y37614D01*
X131247Y39909D01*
X130071Y42351D01*
X129176Y44909D01*
X128573Y47552D01*
X128403Y49061D01*
X149861Y49061D01*
X149861Y27603D01*
X148352Y27773D01*
G37*
%LPD*%
%LPC*%
G36*
X195352Y57773D02*
X195352Y57773D01*
X192709Y58376D01*
X190151Y59271D01*
X187709Y60447D01*
X185414Y61889D01*
X183295Y63579D01*
X181379Y65495D01*
X179689Y67614D01*
X178247Y69909D01*
X177071Y72351D01*
X176176Y74909D01*
X175573Y77552D01*
X175403Y79061D01*
X196861Y79061D01*
X196861Y57603D01*
X195352Y57773D01*
G37*
%LPD*%
%LPC*%
G36*
X516541Y116959D02*
X516541Y116959D01*
X510659Y122841D01*
X510659Y131159D01*
X516541Y137041D01*
X524859Y137041D01*
X530741Y131159D01*
X530741Y122841D01*
X524859Y116959D01*
X516541Y116959D01*
G37*
%LPD*%
%LPC*%
G36*
X518703Y142359D02*
X518703Y142359D01*
X515012Y143888D01*
X512188Y146712D01*
X510659Y150403D01*
X510659Y154397D01*
X512188Y158088D01*
X515012Y160912D01*
X518703Y162441D01*
X522697Y162441D01*
X526388Y160912D01*
X529212Y158088D01*
X530741Y154397D01*
X530741Y150403D01*
X529212Y146712D01*
X526388Y143888D01*
X522697Y142359D01*
X518703Y142359D01*
G37*
%LPD*%
%LPC*%
G36*
X594903Y313809D02*
X594903Y313809D01*
X591212Y315338D01*
X588388Y318162D01*
X586859Y321853D01*
X586859Y325847D01*
X588388Y329538D01*
X591212Y332362D01*
X594903Y333891D01*
X598897Y333891D01*
X602588Y332362D01*
X605412Y329538D01*
X606941Y325847D01*
X606941Y321853D01*
X605412Y318162D01*
X602588Y315338D01*
X598897Y313809D01*
X594903Y313809D01*
G37*
%LPD*%
%LPC*%
G36*
X646973Y313809D02*
X646973Y313809D01*
X643282Y315338D01*
X640458Y318162D01*
X638929Y321853D01*
X638929Y325847D01*
X640458Y329538D01*
X643282Y332362D01*
X646973Y333891D01*
X650967Y333891D01*
X654658Y332362D01*
X657482Y329538D01*
X659011Y325847D01*
X659011Y321853D01*
X657482Y318162D01*
X654658Y315338D01*
X650967Y313809D01*
X646973Y313809D01*
G37*
%LPD*%
%LPC*%
G36*
X671103Y116959D02*
X671103Y116959D01*
X667412Y118488D01*
X664588Y121312D01*
X663059Y125003D01*
X663059Y128997D01*
X664588Y132688D01*
X667412Y135512D01*
X671103Y137041D01*
X675097Y137041D01*
X678788Y135512D01*
X681612Y132688D01*
X683141Y128997D01*
X683141Y125003D01*
X681612Y121312D01*
X678788Y118488D01*
X675097Y116959D01*
X671103Y116959D01*
G37*
%LPD*%
%LPC*%
G36*
X518703Y345559D02*
X518703Y345559D01*
X515012Y347088D01*
X512188Y349912D01*
X510659Y353603D01*
X510659Y357597D01*
X512188Y361288D01*
X515012Y364112D01*
X518703Y365641D01*
X522697Y365641D01*
X526388Y364112D01*
X529212Y361288D01*
X530741Y357597D01*
X530741Y353603D01*
X529212Y349912D01*
X526388Y347088D01*
X522697Y345559D01*
X518703Y345559D01*
G37*
%LPD*%
%LPC*%
G36*
X544103Y91559D02*
X544103Y91559D01*
X540412Y93088D01*
X537588Y95912D01*
X536059Y99603D01*
X536059Y103597D01*
X537588Y107288D01*
X540412Y110112D01*
X544103Y111641D01*
X548097Y111641D01*
X551788Y110112D01*
X554612Y107288D01*
X556141Y103597D01*
X556141Y99603D01*
X554612Y95912D01*
X551788Y93088D01*
X548097Y91559D01*
X544103Y91559D01*
G37*
%LPD*%
%LPC*%
G36*
X671103Y91559D02*
X671103Y91559D01*
X667412Y93088D01*
X664588Y95912D01*
X663059Y99603D01*
X663059Y103597D01*
X664588Y107288D01*
X667412Y110112D01*
X671103Y111641D01*
X675097Y111641D01*
X678788Y110112D01*
X681612Y107288D01*
X683141Y103597D01*
X683141Y99603D01*
X681612Y95912D01*
X678788Y93088D01*
X675097Y91559D01*
X671103Y91559D01*
G37*
%LPD*%
%LPC*%
G36*
X671103Y396359D02*
X671103Y396359D01*
X667412Y397888D01*
X664588Y400712D01*
X663059Y404403D01*
X663059Y408397D01*
X664588Y412088D01*
X667412Y414912D01*
X671103Y416441D01*
X675097Y416441D01*
X678788Y414912D01*
X681612Y412088D01*
X683141Y408397D01*
X683141Y404403D01*
X681612Y400712D01*
X678788Y397888D01*
X675097Y396359D01*
X671103Y396359D01*
G37*
%LPD*%
%LPC*%
G36*
X620303Y396359D02*
X620303Y396359D01*
X616612Y397888D01*
X613788Y400712D01*
X612259Y404403D01*
X612259Y408397D01*
X613788Y412088D01*
X616612Y414912D01*
X620303Y416441D01*
X624297Y416441D01*
X627988Y414912D01*
X630812Y412088D01*
X632341Y408397D01*
X632341Y404403D01*
X630812Y400712D01*
X627988Y397888D01*
X624297Y396359D01*
X620303Y396359D01*
G37*
%LPD*%
%LPC*%
G36*
X645703Y396359D02*
X645703Y396359D01*
X642012Y397888D01*
X639188Y400712D01*
X637659Y404403D01*
X637659Y408397D01*
X639188Y412088D01*
X642012Y414912D01*
X645703Y416441D01*
X649697Y416441D01*
X653388Y414912D01*
X656212Y412088D01*
X657741Y408397D01*
X657741Y404403D01*
X656212Y400712D01*
X653388Y397888D01*
X649697Y396359D01*
X645703Y396359D01*
G37*
%LPD*%
%LPC*%
G36*
X518703Y396359D02*
X518703Y396359D01*
X515012Y397888D01*
X512188Y400712D01*
X510659Y404403D01*
X510659Y408397D01*
X512188Y412088D01*
X515012Y414912D01*
X518703Y416441D01*
X522697Y416441D01*
X526388Y414912D01*
X529212Y412088D01*
X530741Y408397D01*
X530741Y404403D01*
X529212Y400712D01*
X526388Y397888D01*
X522697Y396359D01*
X518703Y396359D01*
G37*
%LPD*%
%LPC*%
G36*
X569503Y396359D02*
X569503Y396359D01*
X565812Y397888D01*
X562988Y400712D01*
X561459Y404403D01*
X561459Y408397D01*
X562988Y412088D01*
X565812Y414912D01*
X569503Y416441D01*
X573497Y416441D01*
X577188Y414912D01*
X580012Y412088D01*
X581541Y408397D01*
X581541Y404403D01*
X580012Y400712D01*
X577188Y397888D01*
X573497Y396359D01*
X569503Y396359D01*
G37*
%LPD*%
%LPC*%
G36*
X544103Y396359D02*
X544103Y396359D01*
X540412Y397888D01*
X537588Y400712D01*
X536059Y404403D01*
X536059Y408397D01*
X537588Y412088D01*
X540412Y414912D01*
X544103Y416441D01*
X548097Y416441D01*
X551788Y414912D01*
X554612Y412088D01*
X556141Y408397D01*
X556141Y404403D01*
X554612Y400712D01*
X551788Y397888D01*
X548097Y396359D01*
X544103Y396359D01*
G37*
%LPD*%
%LPC*%
G36*
X671103Y370959D02*
X671103Y370959D01*
X667412Y372488D01*
X664588Y375312D01*
X663059Y379003D01*
X663059Y382997D01*
X664588Y386688D01*
X667412Y389512D01*
X671103Y391041D01*
X675097Y391041D01*
X678788Y389512D01*
X681612Y386688D01*
X683141Y382997D01*
X683141Y379003D01*
X681612Y375312D01*
X678788Y372488D01*
X675097Y370959D01*
X671103Y370959D01*
G37*
%LPD*%
%LPC*%
G36*
X518703Y370959D02*
X518703Y370959D01*
X515012Y372488D01*
X512188Y375312D01*
X510659Y379003D01*
X510659Y382997D01*
X512188Y386688D01*
X515012Y389512D01*
X518703Y391041D01*
X522697Y391041D01*
X526388Y389512D01*
X529212Y386688D01*
X530741Y382997D01*
X530741Y379003D01*
X529212Y375312D01*
X526388Y372488D01*
X522697Y370959D01*
X518703Y370959D01*
G37*
%LPD*%
%LPC*%
G36*
X594903Y358259D02*
X594903Y358259D01*
X591212Y359788D01*
X588388Y362612D01*
X586859Y366303D01*
X586859Y370297D01*
X588388Y373988D01*
X591212Y376812D01*
X594903Y378341D01*
X598897Y378341D01*
X602588Y376812D01*
X605412Y373988D01*
X606941Y370297D01*
X606941Y366303D01*
X605412Y362612D01*
X602588Y359788D01*
X598897Y358259D01*
X594903Y358259D01*
G37*
%LPD*%
%LPC*%
G36*
X620938Y358259D02*
X620938Y358259D01*
X617247Y359788D01*
X614423Y362612D01*
X612894Y366303D01*
X612894Y370297D01*
X614423Y373988D01*
X617247Y376812D01*
X620938Y378341D01*
X624932Y378341D01*
X628623Y376812D01*
X631447Y373988D01*
X632976Y370297D01*
X632976Y366303D01*
X631447Y362612D01*
X628623Y359788D01*
X624932Y358259D01*
X620938Y358259D01*
G37*
%LPD*%
%LPC*%
G36*
X568868Y358259D02*
X568868Y358259D01*
X565177Y359788D01*
X562353Y362612D01*
X560824Y366303D01*
X560824Y370297D01*
X562353Y373988D01*
X565177Y376812D01*
X568868Y378341D01*
X572862Y378341D01*
X576553Y376812D01*
X579377Y373988D01*
X580906Y370297D01*
X580906Y366303D01*
X579377Y362612D01*
X576553Y359788D01*
X572862Y358259D01*
X568868Y358259D01*
G37*
%LPD*%
%LPC*%
G36*
X542833Y358259D02*
X542833Y358259D01*
X539142Y359788D01*
X536318Y362612D01*
X534789Y366303D01*
X534789Y370297D01*
X536318Y373988D01*
X539142Y376812D01*
X542833Y378341D01*
X546827Y378341D01*
X550518Y376812D01*
X553342Y373988D01*
X554871Y370297D01*
X554871Y366303D01*
X553342Y362612D01*
X550518Y359788D01*
X546827Y358259D01*
X542833Y358259D01*
G37*
%LPD*%
%LPC*%
G36*
X646973Y358259D02*
X646973Y358259D01*
X643282Y359788D01*
X640458Y362612D01*
X638929Y366303D01*
X638929Y370297D01*
X640458Y373988D01*
X643282Y376812D01*
X646973Y378341D01*
X650967Y378341D01*
X654658Y376812D01*
X657482Y373988D01*
X659011Y370297D01*
X659011Y366303D01*
X657482Y362612D01*
X654658Y359788D01*
X650967Y358259D01*
X646973Y358259D01*
G37*
%LPD*%
%LPC*%
G36*
X620938Y313809D02*
X620938Y313809D01*
X617247Y315338D01*
X614423Y318162D01*
X612894Y321853D01*
X612894Y325847D01*
X614423Y329538D01*
X617247Y332362D01*
X620938Y333891D01*
X624932Y333891D01*
X628623Y332362D01*
X631447Y329538D01*
X632976Y325847D01*
X632976Y321853D01*
X631447Y318162D01*
X628623Y315338D01*
X624932Y313809D01*
X620938Y313809D01*
G37*
%LPD*%
%LPC*%
G36*
X568868Y313809D02*
X568868Y313809D01*
X565177Y315338D01*
X562353Y318162D01*
X560824Y321853D01*
X560824Y325847D01*
X562353Y329538D01*
X565177Y332362D01*
X568868Y333891D01*
X572862Y333891D01*
X576553Y332362D01*
X579377Y329538D01*
X580906Y325847D01*
X580906Y321853D01*
X579377Y318162D01*
X576553Y315338D01*
X572862Y313809D01*
X568868Y313809D01*
G37*
%LPD*%
%LPC*%
G36*
X542833Y313809D02*
X542833Y313809D01*
X539142Y315338D01*
X536318Y318162D01*
X534789Y321853D01*
X534789Y325847D01*
X536318Y329538D01*
X539142Y332362D01*
X542833Y333891D01*
X546827Y333891D01*
X550518Y332362D01*
X553342Y329538D01*
X554871Y325847D01*
X554871Y321853D01*
X553342Y318162D01*
X550518Y315338D01*
X546827Y313809D01*
X542833Y313809D01*
G37*
%LPD*%
%LPC*%
G36*
X671103Y294759D02*
X671103Y294759D01*
X667412Y296288D01*
X664588Y299112D01*
X663059Y302803D01*
X663059Y306797D01*
X664588Y310488D01*
X667412Y313312D01*
X671103Y314841D01*
X675097Y314841D01*
X678788Y313312D01*
X681612Y310488D01*
X683141Y306797D01*
X683141Y302803D01*
X681612Y299112D01*
X678788Y296288D01*
X675097Y294759D01*
X671103Y294759D01*
G37*
%LPD*%
%LPC*%
G36*
X518703Y294759D02*
X518703Y294759D01*
X515012Y296288D01*
X512188Y299112D01*
X510659Y302803D01*
X510659Y306797D01*
X512188Y310488D01*
X515012Y313312D01*
X518703Y314841D01*
X522697Y314841D01*
X526388Y313312D01*
X529212Y310488D01*
X530741Y306797D01*
X530741Y302803D01*
X529212Y299112D01*
X526388Y296288D01*
X522697Y294759D01*
X518703Y294759D01*
G37*
%LPD*%
%LPC*%
G36*
X518703Y269359D02*
X518703Y269359D01*
X515012Y270888D01*
X512188Y273712D01*
X510659Y277403D01*
X510659Y281397D01*
X512188Y285088D01*
X515012Y287912D01*
X518703Y289441D01*
X522697Y289441D01*
X526388Y287912D01*
X529212Y285088D01*
X530741Y281397D01*
X530741Y277403D01*
X529212Y273712D01*
X526388Y270888D01*
X522697Y269359D01*
X518703Y269359D01*
G37*
%LPD*%
%LPC*%
G36*
X671103Y269359D02*
X671103Y269359D01*
X667412Y270888D01*
X664588Y273712D01*
X663059Y277403D01*
X663059Y281397D01*
X664588Y285088D01*
X667412Y287912D01*
X671103Y289441D01*
X675097Y289441D01*
X678788Y287912D01*
X681612Y285088D01*
X683141Y281397D01*
X683141Y277403D01*
X681612Y273712D01*
X678788Y270888D01*
X675097Y269359D01*
X671103Y269359D01*
G37*
%LPD*%
%LPC*%
G36*
X518703Y243959D02*
X518703Y243959D01*
X515012Y245488D01*
X512188Y248312D01*
X510659Y252003D01*
X510659Y255997D01*
X512188Y259688D01*
X515012Y262512D01*
X518703Y264041D01*
X522697Y264041D01*
X526388Y262512D01*
X529212Y259688D01*
X530741Y255997D01*
X530741Y252003D01*
X529212Y248312D01*
X526388Y245488D01*
X522697Y243959D01*
X518703Y243959D01*
G37*
%LPD*%
%LPC*%
G36*
X671103Y243959D02*
X671103Y243959D01*
X667412Y245488D01*
X664588Y248312D01*
X663059Y252003D01*
X663059Y255997D01*
X664588Y259688D01*
X667412Y262512D01*
X671103Y264041D01*
X675097Y264041D01*
X678788Y262512D01*
X681612Y259688D01*
X683141Y255997D01*
X683141Y252003D01*
X681612Y248312D01*
X678788Y245488D01*
X675097Y243959D01*
X671103Y243959D01*
G37*
%LPD*%
%LPC*%
G36*
X518703Y320159D02*
X518703Y320159D01*
X515012Y321688D01*
X512188Y324512D01*
X510659Y328203D01*
X510659Y332197D01*
X512188Y335888D01*
X515012Y338712D01*
X518703Y340241D01*
X522697Y340241D01*
X526388Y338712D01*
X529212Y335888D01*
X530741Y332197D01*
X530741Y328203D01*
X529212Y324512D01*
X526388Y321688D01*
X522697Y320159D01*
X518703Y320159D01*
G37*
%LPD*%
%LPC*%
G36*
X518703Y218559D02*
X518703Y218559D01*
X515012Y220088D01*
X512188Y222912D01*
X510659Y226603D01*
X510659Y230597D01*
X512188Y234288D01*
X515012Y237112D01*
X518703Y238641D01*
X522697Y238641D01*
X526388Y237112D01*
X529212Y234288D01*
X530741Y230597D01*
X530741Y226603D01*
X529212Y222912D01*
X526388Y220088D01*
X522697Y218559D01*
X518703Y218559D01*
G37*
%LPD*%
%LPC*%
G36*
X671103Y218559D02*
X671103Y218559D01*
X667412Y220088D01*
X664588Y222912D01*
X663059Y226603D01*
X663059Y230597D01*
X664588Y234288D01*
X667412Y237112D01*
X671103Y238641D01*
X675097Y238641D01*
X678788Y237112D01*
X681612Y234288D01*
X683141Y230597D01*
X683141Y226603D01*
X681612Y222912D01*
X678788Y220088D01*
X675097Y218559D01*
X671103Y218559D01*
G37*
%LPD*%
%LPC*%
G36*
X671103Y193159D02*
X671103Y193159D01*
X667412Y194688D01*
X664588Y197512D01*
X663059Y201203D01*
X663059Y205197D01*
X664588Y208888D01*
X667412Y211712D01*
X671103Y213241D01*
X675097Y213241D01*
X678788Y211712D01*
X681612Y208888D01*
X683141Y205197D01*
X683141Y201203D01*
X681612Y197512D01*
X678788Y194688D01*
X675097Y193159D01*
X671103Y193159D01*
G37*
%LPD*%
%LPC*%
G36*
X518703Y193159D02*
X518703Y193159D01*
X515012Y194688D01*
X512188Y197512D01*
X510659Y201203D01*
X510659Y205197D01*
X512188Y208888D01*
X515012Y211712D01*
X518703Y213241D01*
X522697Y213241D01*
X526388Y211712D01*
X529212Y208888D01*
X530741Y205197D01*
X530741Y201203D01*
X529212Y197512D01*
X526388Y194688D01*
X522697Y193159D01*
X518703Y193159D01*
G37*
%LPD*%
%LPC*%
G36*
X518703Y167759D02*
X518703Y167759D01*
X515012Y169288D01*
X512188Y172112D01*
X510659Y175803D01*
X510659Y179797D01*
X512188Y183488D01*
X515012Y186312D01*
X518703Y187841D01*
X522697Y187841D01*
X526388Y186312D01*
X529212Y183488D01*
X530741Y179797D01*
X530741Y175803D01*
X529212Y172112D01*
X526388Y169288D01*
X522697Y167759D01*
X518703Y167759D01*
G37*
%LPD*%
%LPC*%
G36*
X671103Y167759D02*
X671103Y167759D01*
X667412Y169288D01*
X664588Y172112D01*
X663059Y175803D01*
X663059Y179797D01*
X664588Y183488D01*
X667412Y186312D01*
X671103Y187841D01*
X675097Y187841D01*
X678788Y186312D01*
X681612Y183488D01*
X683141Y179797D01*
X683141Y175803D01*
X681612Y172112D01*
X678788Y169288D01*
X675097Y167759D01*
X671103Y167759D01*
G37*
%LPD*%
%LPC*%
G36*
X163401Y321659D02*
X163401Y321659D01*
X160262Y322959D01*
X157859Y325362D01*
X156559Y328501D01*
X156559Y331899D01*
X157859Y335038D01*
X160262Y337441D01*
X163401Y338741D01*
X166799Y338741D01*
X169938Y337441D01*
X172341Y335038D01*
X173641Y331899D01*
X173641Y328501D01*
X172341Y325362D01*
X169938Y322959D01*
X166799Y321659D01*
X163401Y321659D01*
G37*
%LPD*%
%LPC*%
G36*
X904239Y53339D02*
X904239Y53339D01*
X904239Y74056D01*
X904749Y73975D01*
X906697Y73342D01*
X908523Y72412D01*
X910181Y71207D01*
X911630Y69758D01*
X912834Y68100D01*
X913764Y66275D01*
X914398Y64326D01*
X914718Y62302D01*
X914718Y53339D01*
X904239Y53339D01*
G37*
%LPD*%
%LPC*%
G36*
X281939Y78739D02*
X281939Y78739D01*
X281939Y99456D01*
X282449Y99375D01*
X284397Y98742D01*
X286223Y97812D01*
X287881Y96607D01*
X289330Y95158D01*
X290534Y93500D01*
X291464Y91675D01*
X292098Y89726D01*
X292418Y87702D01*
X292418Y78739D01*
X281939Y78739D01*
G37*
%LPD*%
%LPC*%
G36*
X281939Y73661D02*
X281939Y73661D01*
X292418Y73661D01*
X292418Y64698D01*
X292098Y62674D01*
X291464Y60725D01*
X290534Y58900D01*
X289330Y57242D01*
X287881Y55793D01*
X286223Y54588D01*
X284397Y53658D01*
X282448Y53025D01*
X281939Y52944D01*
X281939Y73661D01*
G37*
%LPD*%
%LPC*%
G36*
X904239Y48261D02*
X904239Y48261D01*
X914718Y48261D01*
X914718Y39298D01*
X914398Y37274D01*
X913764Y35325D01*
X912834Y33500D01*
X911630Y31842D01*
X910181Y30393D01*
X908523Y29188D01*
X906697Y28258D01*
X904748Y27625D01*
X904239Y27544D01*
X904239Y48261D01*
G37*
%LPD*%
%LPC*%
G36*
X266382Y78739D02*
X266382Y78739D01*
X266382Y87702D01*
X266702Y89726D01*
X267336Y91675D01*
X268266Y93500D01*
X269470Y95158D01*
X270919Y96607D01*
X272577Y97812D01*
X274403Y98742D01*
X276351Y99375D01*
X276861Y99456D01*
X276861Y78739D01*
X266382Y78739D01*
G37*
%LPD*%
%LPC*%
G36*
X888682Y53339D02*
X888682Y53339D01*
X888682Y62302D01*
X889002Y64326D01*
X889636Y66275D01*
X890566Y68100D01*
X891770Y69758D01*
X893219Y71207D01*
X894877Y72412D01*
X896703Y73342D01*
X898651Y73975D01*
X899161Y74056D01*
X899161Y53339D01*
X888682Y53339D01*
G37*
%LPD*%
%LPC*%
G36*
X276352Y53025D02*
X276352Y53025D01*
X274403Y53658D01*
X272577Y54588D01*
X270919Y55793D01*
X269470Y57242D01*
X268266Y58900D01*
X267336Y60725D01*
X266702Y62674D01*
X266382Y64698D01*
X266382Y73661D01*
X276861Y73661D01*
X276861Y52944D01*
X276352Y53025D01*
G37*
%LPD*%
%LPC*%
G36*
X898652Y27625D02*
X898652Y27625D01*
X896703Y28258D01*
X894877Y29188D01*
X893219Y30393D01*
X891770Y31842D01*
X890566Y33500D01*
X889636Y35325D01*
X889002Y37274D01*
X888682Y39298D01*
X888682Y48261D01*
X899161Y48261D01*
X899161Y27544D01*
X898652Y27625D01*
G37*
%LPD*%
%LPC*%
G36*
X173019Y1043709D02*
X173019Y1043709D01*
X173019Y1055556D01*
X173900Y1055416D01*
X176087Y1054706D01*
X178135Y1053662D01*
X179995Y1052311D01*
X181621Y1050685D01*
X182972Y1048825D01*
X184016Y1046777D01*
X184726Y1044590D01*
X184866Y1043709D01*
X173019Y1043709D01*
G37*
%LPD*%
%LPC*%
G36*
X604819Y1043709D02*
X604819Y1043709D01*
X604819Y1055556D01*
X605700Y1055416D01*
X607887Y1054706D01*
X609935Y1053662D01*
X611795Y1052311D01*
X613421Y1050685D01*
X614772Y1048825D01*
X615816Y1046777D01*
X616526Y1044590D01*
X616666Y1043709D01*
X604819Y1043709D01*
G37*
%LPD*%
%LPC*%
G36*
X1279859Y53569D02*
X1279859Y53569D01*
X1279859Y65416D01*
X1280740Y65276D01*
X1282927Y64566D01*
X1284975Y63522D01*
X1286835Y62171D01*
X1288461Y60545D01*
X1289812Y58685D01*
X1290856Y56637D01*
X1291566Y54450D01*
X1291706Y53569D01*
X1279859Y53569D01*
G37*
%LPD*%
%LPC*%
G36*
X1112819Y1043709D02*
X1112819Y1043709D01*
X1112819Y1055556D01*
X1113700Y1055416D01*
X1115887Y1054706D01*
X1117935Y1053662D01*
X1119795Y1052311D01*
X1121421Y1050685D01*
X1122772Y1048825D01*
X1123816Y1046777D01*
X1124526Y1044590D01*
X1124666Y1043709D01*
X1112819Y1043709D01*
G37*
%LPD*%
%LPC*%
G36*
X1328719Y1043709D02*
X1328719Y1043709D01*
X1328719Y1055556D01*
X1329600Y1055416D01*
X1331787Y1054706D01*
X1333835Y1053662D01*
X1335695Y1052311D01*
X1337321Y1050685D01*
X1338672Y1048825D01*
X1339716Y1046777D01*
X1340426Y1044590D01*
X1340566Y1043709D01*
X1328719Y1043709D01*
G37*
%LPD*%
%LPC*%
G36*
X388919Y1043709D02*
X388919Y1043709D01*
X388919Y1055556D01*
X389800Y1055416D01*
X391987Y1054706D01*
X394035Y1053662D01*
X395895Y1052311D01*
X397521Y1050685D01*
X398872Y1048825D01*
X399916Y1046777D01*
X400626Y1044590D01*
X400766Y1043709D01*
X388919Y1043709D01*
G37*
%LPD*%
%LPC*%
G36*
X896919Y1043709D02*
X896919Y1043709D01*
X896919Y1055556D01*
X897800Y1055416D01*
X899987Y1054706D01*
X902035Y1053662D01*
X903895Y1052311D01*
X905521Y1050685D01*
X906872Y1048825D01*
X907916Y1046777D01*
X908626Y1044590D01*
X908766Y1043709D01*
X896919Y1043709D01*
G37*
%LPD*%
%LPC*%
G36*
X1063959Y53569D02*
X1063959Y53569D01*
X1063959Y65416D01*
X1064840Y65276D01*
X1067027Y64566D01*
X1069075Y63522D01*
X1070935Y62171D01*
X1072561Y60545D01*
X1073912Y58685D01*
X1074956Y56637D01*
X1075666Y54450D01*
X1075806Y53569D01*
X1063959Y53569D01*
G37*
%LPD*%
%LPC*%
G36*
X371994Y1043709D02*
X371994Y1043709D01*
X372134Y1044590D01*
X372844Y1046777D01*
X373888Y1048825D01*
X375239Y1050685D01*
X376865Y1052311D01*
X378725Y1053662D01*
X380773Y1054706D01*
X382960Y1055416D01*
X383841Y1055556D01*
X383841Y1043709D01*
X371994Y1043709D01*
G37*
%LPD*%
%LPC*%
G36*
X879994Y1043709D02*
X879994Y1043709D01*
X880134Y1044590D01*
X880844Y1046777D01*
X881888Y1048825D01*
X883239Y1050685D01*
X884865Y1052311D01*
X886725Y1053662D01*
X888773Y1054706D01*
X890960Y1055416D01*
X891841Y1055556D01*
X891841Y1043709D01*
X879994Y1043709D01*
G37*
%LPD*%
%LPC*%
G36*
X1095894Y1043709D02*
X1095894Y1043709D01*
X1096034Y1044590D01*
X1096744Y1046777D01*
X1097788Y1048825D01*
X1099139Y1050685D01*
X1100765Y1052311D01*
X1102625Y1053662D01*
X1104673Y1054706D01*
X1106860Y1055416D01*
X1107741Y1055556D01*
X1107741Y1043709D01*
X1095894Y1043709D01*
G37*
%LPD*%
%LPC*%
G36*
X156094Y1043709D02*
X156094Y1043709D01*
X156234Y1044590D01*
X156944Y1046777D01*
X157988Y1048825D01*
X159339Y1050685D01*
X160965Y1052311D01*
X162825Y1053662D01*
X164873Y1054706D01*
X167060Y1055416D01*
X167941Y1055556D01*
X167941Y1043709D01*
X156094Y1043709D01*
G37*
%LPD*%
%LPC*%
G36*
X1279859Y48491D02*
X1279859Y48491D01*
X1291706Y48491D01*
X1291566Y47610D01*
X1290856Y45423D01*
X1289812Y43375D01*
X1288461Y41515D01*
X1286835Y39889D01*
X1284975Y38538D01*
X1282927Y37494D01*
X1280740Y36784D01*
X1279859Y36644D01*
X1279859Y48491D01*
G37*
%LPD*%
%LPC*%
G36*
X1063959Y48491D02*
X1063959Y48491D01*
X1075806Y48491D01*
X1075666Y47610D01*
X1074956Y45423D01*
X1073912Y43375D01*
X1072561Y41515D01*
X1070935Y39889D01*
X1069075Y38538D01*
X1067027Y37494D01*
X1064840Y36784D01*
X1063959Y36644D01*
X1063959Y48491D01*
G37*
%LPD*%
%LPC*%
G36*
X1311794Y1043709D02*
X1311794Y1043709D01*
X1311934Y1044590D01*
X1312644Y1046777D01*
X1313688Y1048825D01*
X1315039Y1050685D01*
X1316665Y1052311D01*
X1318525Y1053662D01*
X1320573Y1054706D01*
X1322760Y1055416D01*
X1323641Y1055556D01*
X1323641Y1043709D01*
X1311794Y1043709D01*
G37*
%LPD*%
%LPC*%
G36*
X587894Y1043709D02*
X587894Y1043709D01*
X588034Y1044590D01*
X588744Y1046777D01*
X589788Y1048825D01*
X591139Y1050685D01*
X592765Y1052311D01*
X594625Y1053662D01*
X596673Y1054706D01*
X598860Y1055416D01*
X599741Y1055556D01*
X599741Y1043709D01*
X587894Y1043709D01*
G37*
%LPD*%
%LPC*%
G36*
X1322760Y1026924D02*
X1322760Y1026924D01*
X1320573Y1027634D01*
X1318525Y1028678D01*
X1316665Y1030029D01*
X1315039Y1031655D01*
X1313688Y1033515D01*
X1312644Y1035563D01*
X1311934Y1037750D01*
X1311794Y1038631D01*
X1323641Y1038631D01*
X1323641Y1026784D01*
X1322760Y1026924D01*
G37*
%LPD*%
%LPC*%
G36*
X1273900Y36784D02*
X1273900Y36784D01*
X1271713Y37494D01*
X1269665Y38538D01*
X1267805Y39889D01*
X1266179Y41515D01*
X1264828Y43375D01*
X1263784Y45423D01*
X1263074Y47610D01*
X1262934Y48491D01*
X1274781Y48491D01*
X1274781Y36644D01*
X1273900Y36784D01*
G37*
%LPD*%
%LPC*%
G36*
X382960Y1026924D02*
X382960Y1026924D01*
X380773Y1027634D01*
X378725Y1028678D01*
X376865Y1030029D01*
X375239Y1031655D01*
X373888Y1033515D01*
X372844Y1035563D01*
X372134Y1037750D01*
X371994Y1038631D01*
X383841Y1038631D01*
X383841Y1026784D01*
X382960Y1026924D01*
G37*
%LPD*%
%LPC*%
G36*
X1058000Y36784D02*
X1058000Y36784D01*
X1055813Y37494D01*
X1053765Y38538D01*
X1051905Y39889D01*
X1050279Y41515D01*
X1048928Y43375D01*
X1047884Y45423D01*
X1047174Y47610D01*
X1047034Y48491D01*
X1058881Y48491D01*
X1058881Y36644D01*
X1058000Y36784D01*
G37*
%LPD*%
%LPC*%
G36*
X598860Y1026924D02*
X598860Y1026924D01*
X596673Y1027634D01*
X594625Y1028678D01*
X592765Y1030029D01*
X591139Y1031655D01*
X589788Y1033515D01*
X588744Y1035563D01*
X588034Y1037750D01*
X587894Y1038631D01*
X599741Y1038631D01*
X599741Y1026784D01*
X598860Y1026924D01*
G37*
%LPD*%
%LPC*%
G36*
X28049Y332449D02*
X28049Y332449D01*
X28049Y342188D01*
X28655Y342093D01*
X30480Y341499D01*
X32190Y340628D01*
X33743Y339500D01*
X35100Y338143D01*
X36228Y336590D01*
X37099Y334880D01*
X37693Y333055D01*
X37788Y332449D01*
X28049Y332449D01*
G37*
%LPD*%
%LPC*%
G36*
X13812Y332449D02*
X13812Y332449D01*
X13907Y333055D01*
X14501Y334880D01*
X15372Y336590D01*
X16500Y338143D01*
X17857Y339500D01*
X19410Y340628D01*
X21120Y341499D01*
X22945Y342093D01*
X23551Y342188D01*
X23551Y332449D01*
X13812Y332449D01*
G37*
%LPD*%
%LPC*%
G36*
X28049Y327951D02*
X28049Y327951D01*
X37788Y327951D01*
X37693Y327345D01*
X37099Y325520D01*
X36228Y323810D01*
X35100Y322257D01*
X33743Y320900D01*
X32190Y319772D01*
X30480Y318901D01*
X28655Y318307D01*
X28049Y318212D01*
X28049Y327951D01*
G37*
%LPD*%
%LPC*%
G36*
X22945Y318307D02*
X22945Y318307D01*
X21120Y318901D01*
X19410Y319772D01*
X17857Y320900D01*
X16500Y322257D01*
X15372Y323810D01*
X14501Y325520D01*
X13907Y327345D01*
X13812Y327951D01*
X23551Y327951D01*
X23551Y318212D01*
X22945Y318307D01*
G37*
%LPD*%
%LPC*%
G36*
X828039Y281939D02*
X828039Y281939D01*
X828039Y291085D01*
X828296Y291045D01*
X830083Y290464D01*
X831757Y289611D01*
X833278Y288506D01*
X834606Y287178D01*
X835711Y285657D01*
X836564Y283983D01*
X837145Y282196D01*
X837185Y281939D01*
X828039Y281939D01*
G37*
%LPD*%
%LPC*%
G36*
X813815Y281939D02*
X813815Y281939D01*
X813855Y282196D01*
X814436Y283983D01*
X815289Y285657D01*
X816394Y287178D01*
X817722Y288506D01*
X819243Y289611D01*
X820917Y290464D01*
X822704Y291045D01*
X822961Y291085D01*
X822961Y281939D01*
X813815Y281939D01*
G37*
%LPD*%
%LPC*%
G36*
X90849Y471649D02*
X90849Y471649D01*
X90849Y480553D01*
X91628Y480430D01*
X93244Y479905D01*
X94758Y479133D01*
X96133Y478135D01*
X97335Y476933D01*
X98333Y475558D01*
X99105Y474044D01*
X99630Y472428D01*
X99753Y471649D01*
X90849Y471649D01*
G37*
%LPD*%
%LPC*%
G36*
X192449Y471649D02*
X192449Y471649D01*
X192449Y480553D01*
X193228Y480430D01*
X194844Y479905D01*
X196358Y479133D01*
X197733Y478135D01*
X198935Y476933D01*
X199933Y475558D01*
X200705Y474044D01*
X201230Y472428D01*
X201353Y471649D01*
X192449Y471649D01*
G37*
%LPD*%
%LPC*%
G36*
X78447Y471649D02*
X78447Y471649D01*
X78570Y472428D01*
X79095Y474044D01*
X79867Y475558D01*
X80865Y476933D01*
X82067Y478135D01*
X83442Y479133D01*
X84956Y479905D01*
X86572Y480430D01*
X87351Y480553D01*
X87351Y471649D01*
X78447Y471649D01*
G37*
%LPD*%
%LPC*%
G36*
X180047Y471649D02*
X180047Y471649D01*
X180170Y472428D01*
X180695Y474044D01*
X181467Y475558D01*
X182465Y476933D01*
X183667Y478135D01*
X185042Y479133D01*
X186556Y479905D01*
X188172Y480430D01*
X188951Y480553D01*
X188951Y471649D01*
X180047Y471649D01*
G37*
%LPD*%
%LPC*%
G36*
X90849Y468151D02*
X90849Y468151D01*
X99753Y468151D01*
X99630Y467372D01*
X99105Y465756D01*
X98333Y464242D01*
X97335Y462867D01*
X96133Y461665D01*
X94758Y460667D01*
X93244Y459895D01*
X91628Y459370D01*
X90849Y459247D01*
X90849Y468151D01*
G37*
%LPD*%
%LPC*%
G36*
X192449Y468151D02*
X192449Y468151D01*
X201353Y468151D01*
X201230Y467372D01*
X200705Y465756D01*
X199933Y464242D01*
X198935Y462867D01*
X197733Y461665D01*
X196358Y460667D01*
X194844Y459895D01*
X193228Y459370D01*
X192449Y459247D01*
X192449Y468151D01*
G37*
%LPD*%
%LPC*%
G36*
X188172Y459370D02*
X188172Y459370D01*
X186556Y459895D01*
X185042Y460667D01*
X183667Y461665D01*
X182465Y462867D01*
X181467Y464242D01*
X180695Y465756D01*
X180170Y467372D01*
X180047Y468151D01*
X188951Y468151D01*
X188951Y459247D01*
X188172Y459370D01*
G37*
%LPD*%
%LPC*%
G36*
X86572Y459370D02*
X86572Y459370D01*
X84956Y459895D01*
X83442Y460667D01*
X82067Y461665D01*
X80865Y462867D01*
X79867Y464242D01*
X79095Y465756D01*
X78570Y467372D01*
X78447Y468151D01*
X87351Y468151D01*
X87351Y459247D01*
X86572Y459370D01*
G37*
%LPD*%
%LPC*%
G36*
X192499Y332199D02*
X192499Y332199D01*
X192499Y338510D01*
X192991Y338412D01*
X194546Y337769D01*
X195944Y336834D01*
X197134Y335644D01*
X198069Y334246D01*
X198712Y332691D01*
X198810Y332199D01*
X192499Y332199D01*
G37*
%LPD*%
%LPC*%
G36*
X192499Y328201D02*
X192499Y328201D01*
X198810Y328201D01*
X198712Y327709D01*
X198069Y326154D01*
X197134Y324756D01*
X195944Y323566D01*
X194546Y322631D01*
X192991Y321988D01*
X192499Y321890D01*
X192499Y328201D01*
G37*
%LPD*%
%LPC*%
G36*
X182190Y332199D02*
X182190Y332199D01*
X182288Y332691D01*
X182931Y334246D01*
X183866Y335644D01*
X185056Y336834D01*
X186454Y337769D01*
X188009Y338412D01*
X188501Y338510D01*
X188501Y332199D01*
X182190Y332199D01*
G37*
%LPD*%
%LPC*%
G36*
X188009Y321988D02*
X188009Y321988D01*
X186454Y322631D01*
X185056Y323566D01*
X183866Y324756D01*
X182931Y326154D01*
X182288Y327709D01*
X182190Y328201D01*
X188501Y328201D01*
X188501Y321890D01*
X188009Y321988D01*
G37*
%LPD*%
%LPC*%
G36*
X1457959Y944879D02*
X1457959Y944879D01*
X1457959Y944881D01*
X1457961Y944881D01*
X1457961Y944879D01*
X1457959Y944879D01*
G37*
%LPD*%
%LPC*%
G36*
X40639Y944879D02*
X40639Y944879D01*
X40639Y944881D01*
X40641Y944881D01*
X40641Y944879D01*
X40639Y944879D01*
G37*
%LPD*%
%LPC*%
G36*
X279399Y76199D02*
X279399Y76199D01*
X279399Y76201D01*
X279401Y76201D01*
X279401Y76199D01*
X279399Y76199D01*
G37*
%LPD*%
%LPC*%
G36*
X749299Y944879D02*
X749299Y944879D01*
X749299Y944881D01*
X749301Y944881D01*
X749301Y944879D01*
X749299Y944879D01*
G37*
%LPD*%
%LPC*%
G36*
X386379Y1041169D02*
X386379Y1041169D01*
X386379Y1041171D01*
X386381Y1041171D01*
X386381Y1041169D01*
X386379Y1041169D01*
G37*
%LPD*%
%LPC*%
G36*
X602279Y1041169D02*
X602279Y1041169D01*
X602279Y1041171D01*
X602281Y1041171D01*
X602281Y1041169D01*
X602279Y1041169D01*
G37*
%LPD*%
%LPC*%
G36*
X152399Y51599D02*
X152399Y51599D01*
X152399Y51601D01*
X152401Y51601D01*
X152401Y51599D01*
X152399Y51599D01*
G37*
%LPD*%
%LPC*%
G36*
X1277319Y51029D02*
X1277319Y51029D01*
X1277319Y51031D01*
X1277321Y51031D01*
X1277321Y51029D01*
X1277319Y51029D01*
G37*
%LPD*%
%LPC*%
G36*
X1061419Y51029D02*
X1061419Y51029D01*
X1061419Y51031D01*
X1061421Y51031D01*
X1061421Y51029D01*
X1061419Y51029D01*
G37*
%LPD*%
%LPC*%
G36*
X901699Y50799D02*
X901699Y50799D01*
X901699Y50801D01*
X901701Y50801D01*
X901701Y50799D01*
X901699Y50799D01*
G37*
%LPD*%
%LPC*%
G36*
X1457959Y142239D02*
X1457959Y142239D01*
X1457959Y142241D01*
X1457961Y142241D01*
X1457961Y142239D01*
X1457959Y142239D01*
G37*
%LPD*%
%LPC*%
G36*
X749299Y142239D02*
X749299Y142239D01*
X749299Y142241D01*
X749301Y142241D01*
X749301Y142239D01*
X749299Y142239D01*
G37*
%LPD*%
%LPC*%
G36*
X40639Y142239D02*
X40639Y142239D01*
X40639Y142241D01*
X40641Y142241D01*
X40641Y142239D01*
X40639Y142239D01*
G37*
%LPD*%
%LPC*%
G36*
X1326179Y1041169D02*
X1326179Y1041169D01*
X1326179Y1041171D01*
X1326181Y1041171D01*
X1326181Y1041169D01*
X1326179Y1041169D01*
G37*
%LPD*%
%LPC*%
G36*
X199399Y81599D02*
X199399Y81599D01*
X199399Y81601D01*
X199401Y81601D01*
X199401Y81599D01*
X199399Y81599D01*
G37*
%LPD*%
D10*
X40640Y944880D03*
X749300Y142240D03*
X40640Y142240D03*
X749300Y944880D03*
X1457960Y142240D03*
X1457960Y944880D03*
D11*
X965200Y533400D03*
X965200Y508000D03*
X939800Y533400D03*
X939800Y508000D03*
X914400Y533400D03*
X914400Y508000D03*
X889000Y533400D03*
X889000Y508000D03*
X863600Y533400D03*
X863600Y508000D03*
X838200Y533400D03*
X838200Y508000D03*
X812800Y533400D03*
X812800Y508000D03*
X787400Y533400D03*
X787400Y508000D03*
X762000Y533400D03*
X762000Y508000D03*
X736600Y533400D03*
X736600Y508000D03*
X711200Y533400D03*
X711200Y508000D03*
X685800Y533400D03*
X685800Y508000D03*
X965200Y584200D03*
X965200Y558800D03*
X939800Y584200D03*
X939800Y558800D03*
X914400Y584200D03*
X914400Y558800D03*
X889000Y584200D03*
X889000Y558800D03*
X863600Y584200D03*
X863600Y558800D03*
X838200Y584200D03*
X838200Y558800D03*
X812800Y584200D03*
X812800Y558800D03*
X787400Y584200D03*
X787400Y558800D03*
X762000Y584200D03*
X762000Y558800D03*
X736600Y584200D03*
X736600Y558800D03*
X711200Y584200D03*
X711200Y558800D03*
X685800Y584200D03*
X685800Y558800D03*
D12*
X205480Y1041170D03*
D13*
X170480Y1041170D03*
X135480Y1041170D03*
X100480Y1041170D03*
D12*
X421380Y1041170D03*
D13*
X386380Y1041170D03*
X351380Y1041170D03*
X316380Y1041170D03*
D12*
X637280Y1041170D03*
D13*
X602280Y1041170D03*
X567280Y1041170D03*
X532280Y1041170D03*
D12*
X929380Y1041170D03*
D13*
X894380Y1041170D03*
X859380Y1041170D03*
X824380Y1041170D03*
D12*
X1145280Y1041170D03*
D13*
X1110280Y1041170D03*
X1075280Y1041170D03*
X1040280Y1041170D03*
D12*
X1361180Y1041170D03*
D13*
X1326180Y1041170D03*
X1291180Y1041170D03*
X1256180Y1041170D03*
D12*
X1242320Y51030D03*
D13*
X1277320Y51030D03*
X1312320Y51030D03*
X1347320Y51030D03*
D12*
X1026420Y51030D03*
D13*
X1061420Y51030D03*
X1096420Y51030D03*
X1131420Y51030D03*
D14*
X673100Y76200D03*
X596900Y406400D03*
X520700Y101600D03*
D15*
X520700Y76200D03*
D16*
X520700Y127000D03*
D17*
X622300Y406400D03*
X647700Y406400D03*
X571500Y406400D03*
X546100Y406400D03*
X520700Y406400D03*
X673100Y406400D03*
X673100Y101600D03*
X673100Y127000D03*
X673100Y152400D03*
X673100Y177800D03*
X673100Y203200D03*
X673100Y228600D03*
X673100Y254000D03*
X673100Y279400D03*
X673100Y304800D03*
X673100Y330200D03*
X673100Y355600D03*
X673100Y381000D03*
X546100Y101600D03*
X520700Y381000D03*
X520700Y355600D03*
X520700Y330200D03*
X520700Y304800D03*
X520700Y279400D03*
X520700Y254000D03*
X520700Y228600D03*
X520700Y203200D03*
X520700Y177800D03*
X520700Y152400D03*
X544830Y368300D03*
X570865Y368300D03*
X596900Y368300D03*
X622935Y368300D03*
X648970Y368300D03*
X544830Y323850D03*
X570865Y323850D03*
X596900Y323850D03*
X622935Y323850D03*
X648970Y323850D03*
X587900Y76200D03*
X605900Y83800D03*
D18*
X89100Y469900D03*
D19*
X114100Y469900D03*
X215700Y469900D03*
D18*
X190700Y469900D03*
D20*
X165100Y330200D03*
X190500Y330200D03*
X215900Y330200D03*
D21*
X25800Y330200D03*
D22*
X75800Y330200D03*
D23*
X152400Y111600D03*
X152400Y51600D03*
X199400Y81600D03*
D24*
X800100Y61278D02*
X800100Y40323D01*
X850900Y40323D02*
X850900Y61278D01*
X901700Y61278D02*
X901700Y40323D01*
X279400Y65723D02*
X279400Y86678D01*
X330200Y86678D02*
X330200Y65723D01*
X431800Y65723D02*
X431800Y86678D01*
X381000Y86678D02*
X381000Y65723D01*
D25*
X825500Y279400D03*
X825500Y254000D03*
X825500Y228600D03*
X825500Y203200D03*
X736600Y469900D03*
X685800Y469900D03*
X787400Y469900D03*
D26*
X383510Y1003300D02*
X421380Y1041170D01*
X637280Y1041170D02*
X662450Y1016000D01*
X904210Y1016000D02*
X929380Y1041170D01*
X904210Y1016000D02*
X662450Y1016000D01*
X1145280Y1041170D02*
X1183150Y1003300D01*
X1323310Y1003300D02*
X1361180Y1041170D01*
X1323310Y1003300D02*
X1183150Y1003300D01*
X1191750Y101600D02*
X1242320Y51030D01*
X1076990Y101600D02*
X1026420Y51030D01*
X1076990Y101600D02*
X1191750Y101600D01*
X459250Y1003300D02*
X421380Y1041170D01*
X599410Y1003300D02*
X637280Y1041170D01*
X599410Y1003300D02*
X459250Y1003300D01*
X929380Y1041170D02*
X954550Y1016000D01*
X1120110Y1016000D02*
X1145280Y1041170D01*
X1120110Y1016000D02*
X954550Y1016000D01*
D27*
X38100Y1016000D03*
X1447800Y63500D03*
D26*
X1409700Y63500D01*
X1384300Y88900D01*
X1280190Y88900D01*
X1242320Y51030D01*
D28*
X1026420Y51030D02*
X988550Y88900D01*
X876300Y88900D02*
X774700Y190500D01*
X774700Y241300D01*
X787400Y254000D01*
X825500Y254000D01*
X876300Y88900D02*
X988550Y88900D01*
D26*
X180310Y1016000D02*
X205480Y1041170D01*
X180310Y1016000D02*
X38100Y1016000D01*
X205480Y1041170D02*
X243350Y1003300D01*
X383510Y1003300D01*
D27*
X403860Y993140D03*
D29*
X393700Y982980D01*
D27*
X259080Y982980D03*
D29*
X393700Y982980D01*
D27*
X203200Y939800D03*
D29*
X203200Y883920D01*
D27*
X203200Y883920D03*
D29*
X231140Y855980D01*
X246380Y855980D01*
D27*
X246380Y855980D03*
X911860Y993140D03*
X690880Y982980D03*
D29*
X909320Y995680D02*
X911860Y993140D01*
X909320Y995680D02*
X703580Y995680D01*
X690880Y982980D01*
D27*
X635000Y939800D03*
D29*
X635000Y883920D01*
D27*
X635000Y883920D03*
D29*
X662940Y855980D01*
X678180Y855980D01*
D27*
X678180Y855980D03*
X1343660Y993140D03*
D29*
X1333500Y982980D01*
D27*
X1198880Y982980D03*
D29*
X1333500Y982980D01*
D27*
X1143000Y939800D03*
D29*
X1143000Y883920D01*
D27*
X1143000Y883920D03*
D29*
X1170940Y855980D01*
X1186180Y855980D01*
D27*
X1186180Y855980D03*
X1043940Y111760D03*
D29*
X1054100Y121920D01*
D27*
X1188720Y121920D03*
D29*
X1054100Y121920D01*
D27*
X1244600Y165100D03*
D29*
X1244600Y220980D01*
D27*
X1244600Y220980D03*
D29*
X1216660Y248920D01*
X1201420Y248920D01*
D27*
X1201420Y248920D03*
D28*
X215900Y317500D02*
X215900Y330200D01*
X215900Y317500D02*
X203200Y304800D01*
X114300Y304800D01*
D27*
X114300Y304800D03*
X63500Y995680D03*
D29*
X185420Y995680D01*
X203200Y977900D02*
X203200Y939800D01*
X203200Y977900D02*
X185420Y995680D01*
D27*
X485140Y985520D03*
D29*
X589280Y985520D01*
X635000Y939800D01*
X911860Y993140D02*
X965200Y993140D01*
X1018540Y939800D02*
X1143000Y939800D01*
X1018540Y939800D02*
X965200Y993140D01*
D27*
X1397000Y114300D03*
D29*
X1295400Y114300D01*
X1244600Y165100D01*
D28*
X825500Y228600D02*
X800100Y228600D01*
X792480Y220980D01*
X792480Y198120D01*
X878840Y111760D01*
X1043940Y111760D01*
D27*
X266700Y868680D03*
D30*
X360680Y868680D01*
X368300Y876300D01*
D27*
X368300Y876300D03*
X190500Y736600D03*
D30*
X203200Y749300D01*
X228600Y749300D01*
D27*
X228600Y749300D03*
X622300Y749300D03*
D30*
X660400Y749300D01*
D27*
X660400Y749300D03*
X1130300Y749300D03*
D30*
X1168400Y749300D01*
D27*
X1168400Y749300D03*
X1257300Y368300D03*
D30*
X1244600Y355600D01*
X1219200Y355600D01*
D27*
X1219200Y355600D03*
D30*
X622300Y749300D02*
X228600Y749300D01*
X660400Y749300D02*
X1130300Y749300D01*
X1168400Y749300D02*
X1295400Y749300D01*
X1384300Y660400D01*
X1384300Y457200D01*
X1295400Y368300D01*
X1257300Y368300D01*
D28*
X1219200Y355600D02*
X1168400Y304800D01*
X927100Y304800D01*
X914400Y292100D01*
X914400Y215900D01*
X901700Y203200D01*
X825500Y203200D01*
D27*
X698500Y868680D03*
D30*
X871220Y881380D02*
X876300Y876300D01*
X871220Y881380D02*
X711200Y881380D01*
X698500Y868680D01*
D27*
X876300Y876300D03*
X1206500Y868680D03*
D30*
X1300480Y868680D01*
X1308100Y876300D01*
D27*
X1308100Y876300D03*
X1181100Y236220D03*
D30*
X1087120Y236220D01*
X1079500Y228600D01*
D27*
X1079500Y228600D03*
X635000Y635000D03*
D28*
X673100Y673100D01*
D27*
X673100Y673100D03*
X596900Y647700D03*
D28*
X622300Y673100D01*
D27*
X622300Y673100D03*
X406400Y495300D03*
D28*
X342900Y558800D01*
D27*
X342900Y558800D03*
X393700Y482600D03*
D28*
X330200Y546100D01*
D27*
X330200Y546100D03*
X215900Y571500D03*
D28*
X165100Y622300D01*
D27*
X165100Y622300D03*
D28*
X673100Y355600D02*
X698500Y381000D01*
X698500Y457200D02*
X685800Y469900D01*
X698500Y457200D02*
X698500Y381000D01*
D27*
X774700Y381000D03*
D28*
X876300Y381000D01*
D27*
X876300Y381000D03*
X800100Y406400D03*
D28*
X901700Y406400D01*
D27*
X901700Y406400D03*
D28*
X736600Y393700D02*
X673100Y330200D01*
X736600Y393700D02*
X736600Y469900D01*
D27*
X1041400Y584200D03*
D28*
X1041400Y647700D01*
D27*
X1041400Y647700D03*
D28*
X749300Y228600D02*
X673100Y152400D01*
X749300Y431800D02*
X787400Y469900D01*
X749300Y431800D02*
X749300Y228600D01*
M02*
