G04 EAGLE Gerber RS-274X export*
G75*
%MOMM*%
%FSLAX34Y34*%
%LPD*%
%INBottom Solder Mask*%
%IPPOS*%
%AMOC8*
5,1,8,0,0,1.08239X$1,22.5*%
G01*
%ADD10C,7.747000*%
%ADD11P,2.171924X8X202.500000*%
%ADD12R,2.540000X2.540000*%
%ADD13C,2.540000*%
%ADD14R,1.627000X1.627000*%
%ADD15C,1.905000*%
%ADD16P,1.761049X8X202.500000*%
%ADD17C,1.627000*%
%ADD18C,1.778000*%
%ADD19R,1.778000X1.778000*%
%ADD20C,1.930400*%
%ADD21R,1.930400X1.930400*%
%ADD22C,1.327000*%
%ADD23C,2.057400*%
%ADD24R,2.057400X2.057400*%
%ADD25C,4.445000*%
%ADD26C,2.222500*%
%ADD27C,2.006600*%


D10*
X40640Y944880D03*
X749300Y142240D03*
X40640Y142240D03*
X749300Y944880D03*
X1457960Y142240D03*
X1457960Y944880D03*
D11*
X965200Y533400D03*
X965200Y508000D03*
X939800Y533400D03*
X939800Y508000D03*
X914400Y533400D03*
X914400Y508000D03*
X889000Y533400D03*
X889000Y508000D03*
X863600Y533400D03*
X863600Y508000D03*
X838200Y533400D03*
X838200Y508000D03*
X812800Y533400D03*
X812800Y508000D03*
X787400Y533400D03*
X787400Y508000D03*
X762000Y533400D03*
X762000Y508000D03*
X736600Y533400D03*
X736600Y508000D03*
X711200Y533400D03*
X711200Y508000D03*
X685800Y533400D03*
X685800Y508000D03*
X965200Y584200D03*
X965200Y558800D03*
X939800Y584200D03*
X939800Y558800D03*
X914400Y584200D03*
X914400Y558800D03*
X889000Y584200D03*
X889000Y558800D03*
X863600Y584200D03*
X863600Y558800D03*
X838200Y584200D03*
X838200Y558800D03*
X812800Y584200D03*
X812800Y558800D03*
X787400Y584200D03*
X787400Y558800D03*
X762000Y584200D03*
X762000Y558800D03*
X736600Y584200D03*
X736600Y558800D03*
X711200Y584200D03*
X711200Y558800D03*
X685800Y584200D03*
X685800Y558800D03*
D12*
X205480Y1041170D03*
D13*
X170480Y1041170D03*
X135480Y1041170D03*
X100480Y1041170D03*
D12*
X421380Y1041170D03*
D13*
X386380Y1041170D03*
X351380Y1041170D03*
X316380Y1041170D03*
D12*
X637280Y1041170D03*
D13*
X602280Y1041170D03*
X567280Y1041170D03*
X532280Y1041170D03*
D12*
X929380Y1041170D03*
D13*
X894380Y1041170D03*
X859380Y1041170D03*
X824380Y1041170D03*
D12*
X1145280Y1041170D03*
D13*
X1110280Y1041170D03*
X1075280Y1041170D03*
X1040280Y1041170D03*
D12*
X1361180Y1041170D03*
D13*
X1326180Y1041170D03*
X1291180Y1041170D03*
X1256180Y1041170D03*
D12*
X1242320Y51030D03*
D13*
X1277320Y51030D03*
X1312320Y51030D03*
X1347320Y51030D03*
D12*
X1026420Y51030D03*
D13*
X1061420Y51030D03*
X1096420Y51030D03*
X1131420Y51030D03*
D14*
X673100Y76200D03*
X596900Y406400D03*
X520700Y101600D03*
D15*
X520700Y76200D03*
D16*
X520700Y127000D03*
D17*
X622300Y406400D03*
X647700Y406400D03*
X571500Y406400D03*
X546100Y406400D03*
X520700Y406400D03*
X673100Y406400D03*
X673100Y101600D03*
X673100Y127000D03*
X673100Y152400D03*
X673100Y177800D03*
X673100Y203200D03*
X673100Y228600D03*
X673100Y254000D03*
X673100Y279400D03*
X673100Y304800D03*
X673100Y330200D03*
X673100Y355600D03*
X673100Y381000D03*
X546100Y101600D03*
X520700Y381000D03*
X520700Y355600D03*
X520700Y330200D03*
X520700Y304800D03*
X520700Y279400D03*
X520700Y254000D03*
X520700Y228600D03*
X520700Y203200D03*
X520700Y177800D03*
X520700Y152400D03*
X544830Y368300D03*
X570865Y368300D03*
X596900Y368300D03*
X622935Y368300D03*
X648970Y368300D03*
X544830Y323850D03*
X570865Y323850D03*
X596900Y323850D03*
X622935Y323850D03*
X648970Y323850D03*
X587900Y76200D03*
X605900Y83800D03*
D18*
X89100Y469900D03*
D19*
X114100Y469900D03*
D20*
X190700Y469900D03*
D21*
X215700Y469900D03*
D22*
X165100Y330200D03*
X190500Y330200D03*
X215900Y330200D03*
D23*
X25800Y330200D03*
D24*
X75800Y330200D03*
D25*
X152400Y111600D03*
X152400Y51600D03*
X199400Y81600D03*
D26*
X800100Y61278D02*
X800100Y40323D01*
X850900Y40323D02*
X850900Y61278D01*
X901700Y61278D02*
X901700Y40323D01*
X279400Y65723D02*
X279400Y86678D01*
X330200Y86678D02*
X330200Y65723D01*
X431800Y65723D02*
X431800Y86678D01*
X381000Y86678D02*
X381000Y65723D01*
D27*
X825500Y279400D03*
X825500Y254000D03*
X825500Y228600D03*
X825500Y203200D03*
X736600Y469900D03*
X685800Y469900D03*
X787400Y469900D03*
M02*
